<svg width="20" height="20" viewBox="0 0 20 20" fill="none" xmlns="http://www.w3.org/2000/svg">
<path d="M13.2953 5.5376H4.25781C3.82634 5.5376 3.47656 5.88738 3.47656 6.31885V16.272C3.47656 16.7034 3.82634 17.0532 4.25781 17.0532H13.2953C13.7268 17.0532 14.0766 16.7034 14.0766 16.272V6.31885C14.0766 5.88738 13.7268 5.5376 13.2953 5.5376Z" stroke="white" stroke-width="1.3"/>
<path d="M6.04013 4.44678V4.09053C6.02738 3.8011 6.12965 3.51838 6.32462 3.30409C6.51958 3.08981 6.79141 2.96135 7.08075 2.94678H15.4745C15.7638 2.96135 16.0357 3.08981 16.2306 3.30409C16.4256 3.51838 16.5279 3.8011 16.5151 4.09053V13.3187C16.5279 13.6081 16.4256 13.8908 16.2306 14.1051C16.0357 14.3194 15.7638 14.4478 15.4745 14.4624H15.1151" stroke="white" stroke-width="1.3"/>
</svg>
