<svg width="16" height="16" viewBox="0 0 16 16" fill="none" xmlns="http://www.w3.org/2000/svg">
<g clip-path="url(#clip0_116_930)">
<path d="M13.7043 15.2127H6.07127C5.14275 15.2127 4.38752 14.4575 4.38752 13.529V5.89598C4.38752 4.96746 5.14275 4.21223 6.07127 4.21223H13.7043C14.6328 4.21223 15.388 4.96746 15.388 5.89598V13.529C15.388 14.4575 14.6328 15.2127 13.7043 15.2127ZM6.07127 5.33473C5.7618 5.33473 5.51002 5.5865 5.51002 5.89598V13.529C5.51002 13.8385 5.7618 14.0902 6.07127 14.0902H13.7043C14.0138 14.0902 14.2655 13.8385 14.2655 13.529V5.89598C14.2655 5.5865 14.0138 5.33473 13.7043 5.33473H6.07127ZM3.26502 10.7227H2.70377C2.39429 10.7227 2.14252 10.471 2.14252 10.1615V2.52848C2.14252 2.219 2.39429 1.96723 2.70377 1.96723H10.3368C10.6463 1.96723 10.898 2.219 10.898 2.52848V3.06167H12.0205V2.52848C12.0205 1.59996 11.2653 0.844727 10.3368 0.844727H2.70377C1.77525 0.844727 1.02002 1.59996 1.02002 2.52848V10.1615C1.02002 11.09 1.77525 11.8452 2.70377 11.8452H3.26502V10.7227Z" fill="white"/>
</g>
<defs>
<clipPath id="clip0_116_930">
<rect width="15.3259" height="15.3259" fill="white" transform="translate(0.54834 0.373047)"/>
</clipPath>
</defs>
</svg>
