<svg width="72" height="72" viewBox="0 0 72 72" fill="none" xmlns="http://www.w3.org/2000/svg">
<path d="M36 72C55.8823 72 72 55.8823 72 36C72 16.1177 55.8823 0 36 0C16.1177 0 0 16.1177 0 36C0 55.8823 16.1177 72 36 72Z" fill="#FC4581"/>
<path d="M55.2007 5.54465H16.7988C17.4841 5.11152 18.1845 4.70137 18.8998 4.31418C23.9661 1.57236 29.6196 0.0946866 35.3796 0.00683594H36.6199C37.309 0.0166797 37.9924 0.0490234 38.6716 0.0982422C44.5456 0.525472 50.2233 2.39629 55.2007 5.54465Z" fill="#DB1B1B"/>
<path d="M61.9818 11.0822H10.0181C10.0518 11.0457 10.087 11.0105 10.1221 10.974C10.7784 10.299 11.4557 9.65068 12.1542 9.02912C12.8263 8.43568 13.5206 7.86615 14.2368 7.32053C15.0637 6.69334 15.9243 6.0985 16.799 5.54443H55.2009C57.6781 7.10763 59.9552 8.96731 61.9818 11.0822Z" fill="white"/>
<path d="M66.3425 16.6184H5.65723C6.17051 15.8183 6.71473 15.0364 7.28848 14.2812C8.13542 13.1627 9.0468 12.0945 10.018 11.082H61.9818C63.6117 12.7815 65.0721 14.6358 66.3425 16.6184Z" fill="#DB1B1B"/>
<path d="M69.2411 22.1565H2.75928C2.93365 21.7346 3.11646 21.3212 3.30912 20.9077C3.921 19.584 4.61274 18.2986 5.38053 17.0588C5.47193 16.9182 5.56475 16.7663 5.66178 16.6187H66.3429C67.4681 18.3768 68.4378 20.2298 69.2411 22.1565Z" fill="white"/>
<path d="M71.0355 27.6932H0.964844C1.16547 26.8354 1.39984 25.9916 1.66797 25.162C1.98953 24.1382 2.35516 23.137 2.76484 22.1582H69.2411C69.9893 23.9512 70.5894 25.8023 71.0355 27.6932Z" fill="#DB1B1B"/>
<path d="M71.8945 33.2307H0.105469C0.246401 31.3651 0.533691 29.5135 0.964688 27.6929H71.0353C71.4663 29.5135 71.7536 31.3651 71.8945 33.2307Z" fill="white"/>
<path d="M72 35.9994C72 36.9303 71.9648 37.8533 71.8945 38.7683H0.105469C0.0351562 37.8542 0 36.9313 0 35.9994V34.2064C0.0001402 34.2531 0.0132872 34.2989 0.0379688 34.3386C0.0379688 34.2416 0.0464063 34.1445 0.0520312 34.0489C0.0660938 33.7747 0.084375 33.5033 0.105469 33.2305H71.8945C71.9648 34.1445 72 35.0675 72 35.9994Z" fill="#DB1B1B"/>
<path d="M71.8945 38.7686C71.7537 40.6342 71.4664 42.4858 71.0353 44.3064H0.964688C0.533572 42.4858 0.24628 40.6342 0.105469 38.7686H71.8945Z" fill="white"/>
<path d="M71.0355 44.3066C70.5903 46.1982 69.9902 48.05 69.2411 49.843H2.75922C2.01016 48.05 1.41001 46.1982 0.964844 44.3066H71.0355Z" fill="#DB1B1B"/>
<path d="M69.2411 49.8428C68.4387 51.7699 67.4689 53.6229 66.3429 55.3806H5.65756C4.5315 53.6229 3.5617 51.7699 2.75928 49.8428H69.2411Z" fill="white"/>
<path d="M66.3426 55.3809C65.073 57.3642 63.613 59.2189 61.9832 60.9187H10.0181C8.3883 59.2189 6.92826 57.3642 5.65869 55.3809H66.3426Z" fill="#DB1B1B"/>
<path d="M61.9818 60.9185C59.9541 63.0322 57.6771 64.8918 55.2009 66.4563H16.799C14.3228 64.8918 12.0458 63.0322 10.0181 60.9185H61.9818Z" fill="white"/>
<path d="M55.201 66.4561C49.6596 69.9643 43.2606 71.8819 36.7031 71.9995H35.2969C28.7382 71.885 22.3372 69.9698 16.7935 66.4631L55.201 66.4561Z" fill="#DB1B1B"/>
<path d="M38.6719 0.0982422V38.7701H0.105469C0.0351562 37.8551 0 36.9317 0 35.9998V34.2068C0.0001402 34.2536 0.0132872 34.2993 0.0379688 34.339C0.0379688 34.242 0.0464063 34.145 0.0520312 34.0493C0.0660938 33.7751 0.084375 33.5037 0.105469 33.2309C0.246401 31.3653 0.533691 29.5137 0.964688 27.6931C1.16531 26.8353 1.39969 25.9915 1.66781 25.1618C1.98937 24.1381 2.355 23.1368 2.76469 22.1581C2.93906 21.7362 3.12188 21.3228 3.31453 20.9093C3.92641 19.5856 4.61815 18.3003 5.38594 17.0604C5.47734 16.9198 5.57016 16.7679 5.66719 16.6203C6.18047 15.8201 6.72469 15.0382 7.29844 14.2831C8.14215 13.1644 9.05025 12.0957 10.0181 11.0825C10.0519 11.0459 10.087 11.0107 10.1222 10.9742C10.7784 10.2992 11.4558 9.6509 12.1542 9.02934C12.8264 8.4359 13.5206 7.86637 14.2369 7.32074C15.0637 6.69355 15.9244 6.09871 16.7991 5.54465C17.4844 5.11152 18.1847 4.70137 18.9 4.31418C23.9663 1.57236 29.6199 0.0946866 35.3798 0.00683594H36.6202C37.3092 0.0166797 37.9927 0.0490234 38.6719 0.0982422Z" fill="#3E436D"/>
<path d="M34.5096 2.30627L35.0018 3.8208C35.0184 3.87225 35.0509 3.9171 35.0946 3.94893C35.1383 3.98077 35.191 3.99794 35.2451 3.99799H36.844C36.8971 4.00007 36.9483 4.01864 36.9904 4.05114C37.0325 4.08363 37.0634 4.12842 37.0788 4.1793C37.0943 4.23017 37.0935 4.2846 37.0767 4.33502C37.0598 4.38544 37.0276 4.42935 36.9846 4.46064L35.6951 5.39721C35.652 5.4284 35.6199 5.47236 35.6032 5.52284C35.5866 5.57332 35.5862 5.62777 35.6023 5.67846L36.0945 7.19439C36.1096 7.24546 36.1084 7.29997 36.0911 7.35033C36.0738 7.40069 36.0412 7.4444 35.9978 7.47535C35.9545 7.50631 35.9026 7.52297 35.8493 7.52303C35.796 7.52308 35.7441 7.50652 35.7007 7.47564L34.4126 6.53908C34.3688 6.5075 34.3161 6.49051 34.2621 6.49051C34.2081 6.49051 34.1555 6.5075 34.1116 6.53908L32.8221 7.47564C32.7787 7.50652 32.7268 7.52308 32.6735 7.52303C32.6202 7.52297 32.5683 7.50631 32.525 7.47535C32.4817 7.4444 32.4491 7.40069 32.4317 7.35033C32.4144 7.29997 32.4132 7.24546 32.4284 7.19439L32.9219 5.67846C32.9373 5.62773 32.9367 5.57348 32.9201 5.52314C32.9034 5.4728 32.8717 5.42882 32.8291 5.39721L31.5396 4.46064C31.496 4.42883 31.4636 4.38405 31.447 4.33271C31.4304 4.28136 31.4304 4.22609 31.4471 4.17477C31.4638 4.12345 31.4963 4.07872 31.5399 4.04697C31.5836 4.01522 31.6361 3.99808 31.6901 3.99799H33.2834C33.3374 3.99772 33.3899 3.98047 33.4336 3.94867C33.4773 3.91687 33.5098 3.87213 33.5266 3.8208L34.0188 2.30627C34.0345 2.25335 34.0669 2.20692 34.1111 2.17391C34.1553 2.14089 34.209 2.12305 34.2642 2.12305C34.3194 2.12305 34.3731 2.14089 34.4173 2.17391C34.4616 2.20692 34.4939 2.25335 34.5096 2.30627Z" fill="white"/>
<path d="M17.4124 5.54529C17.3995 5.59129 17.3995 5.63992 17.4124 5.68592L17.906 7.19904C17.9211 7.25011 17.9199 7.30462 17.9026 7.35498C17.8853 7.40534 17.8527 7.44905 17.8093 7.48C17.766 7.51096 17.7141 7.52762 17.6608 7.52767C17.6076 7.52773 17.5556 7.51116 17.5122 7.48029L16.2227 6.54514C16.1791 6.51367 16.1267 6.49674 16.0729 6.49674C16.0192 6.49674 15.9668 6.51367 15.9232 6.54514L14.6336 7.48029C14.5987 7.50613 14.5577 7.52258 14.5146 7.52809C14.4715 7.5336 14.4277 7.52799 14.3874 7.51177C14.347 7.49556 14.3115 7.46929 14.2843 7.43547C14.257 7.40165 14.2388 7.36141 14.2314 7.31857C15.0583 6.69139 15.9189 6.09654 16.7936 5.54248C17.4789 5.10936 18.1793 4.6992 18.8946 4.31201C18.8785 4.36898 18.8432 4.41864 18.7947 4.45264L17.5052 5.3892C17.4565 5.42839 17.4236 5.4838 17.4124 5.54529Z" fill="white"/>
<path d="M34.5093 14.0935L35.0015 15.6095C35.0182 15.6608 35.0507 15.7054 35.0945 15.737C35.1382 15.7686 35.1908 15.7855 35.2448 15.7852H36.8437C36.8976 15.7853 36.9502 15.8025 36.9938 15.8342C37.0375 15.866 37.0699 15.9107 37.0866 15.962C37.1033 16.0133 37.1034 16.0686 37.0867 16.12C37.0701 16.1713 37.0377 16.2161 36.9941 16.2479L35.7046 17.1845C35.6616 17.2156 35.6294 17.2596 35.6128 17.3101C35.5961 17.3606 35.5958 17.415 35.6118 17.4657L36.0984 18.9845C36.1135 19.0355 36.1123 19.09 36.095 19.1404C36.0777 19.1908 36.0451 19.2345 36.0017 19.2654C35.9584 19.2964 35.9065 19.313 35.8532 19.3131C35.8 19.3131 35.748 19.2966 35.7046 19.2657L34.4165 18.3291C34.3727 18.2976 34.32 18.2806 34.266 18.2806C34.212 18.2806 34.1594 18.2976 34.1155 18.3291L32.826 19.2657C32.7826 19.2966 32.7307 19.3131 32.6774 19.3131C32.6242 19.313 32.5722 19.2964 32.5289 19.2654C32.4856 19.2345 32.453 19.1908 32.4356 19.1404C32.4183 19.09 32.4171 19.0355 32.4323 18.9845L32.9259 17.4685C32.9412 17.4178 32.9406 17.3635 32.924 17.3132C32.9074 17.2629 32.8756 17.2189 32.833 17.1873L31.5435 16.2507C31.4999 16.2189 31.4675 16.1741 31.4509 16.1228C31.4343 16.0714 31.4343 16.0161 31.451 15.9648C31.4677 15.9135 31.5002 15.8688 31.5438 15.837C31.5875 15.8053 31.64 15.7881 31.694 15.788H33.2873C33.3412 15.7881 33.3937 15.7711 33.4374 15.7396C33.4811 15.708 33.5137 15.6634 33.5305 15.6123L34.0227 14.0963C34.0392 14.0449 34.0715 14 34.115 13.9681C34.1585 13.9361 34.211 13.9188 34.265 13.9185C34.319 13.9181 34.3717 13.9349 34.4155 13.9664C34.4594 13.9978 34.4922 14.0423 34.5093 14.0935Z" fill="white"/>
<path d="M25.4155 14.0939L25.9077 15.6099C25.9244 15.6612 25.957 15.7058 26.0007 15.7374C26.0444 15.769 26.0971 15.7859 26.151 15.7856H27.7443C27.7983 15.7857 27.8508 15.8029 27.8944 15.8346C27.9381 15.8664 27.9706 15.9111 27.9872 15.9624C28.0039 16.0137 28.004 16.069 27.9874 16.1204C27.9708 16.1717 27.9383 16.2165 27.8948 16.2483L26.6052 17.1849C26.5624 17.2162 26.5303 17.2602 26.5137 17.3106C26.4971 17.361 26.4966 17.4154 26.5124 17.4661L27.0004 18.9849C27.0161 19.0359 27.0154 19.0905 26.9984 19.1411C26.9813 19.1917 26.9488 19.2356 26.9054 19.2667C26.8621 19.2978 26.81 19.3144 26.7566 19.3143C26.7033 19.3142 26.6513 19.2974 26.608 19.2661L25.3185 18.3295C25.2747 18.298 25.2221 18.281 25.168 18.281C25.114 18.281 25.0614 18.298 25.0176 18.3295L23.7323 19.2661C23.689 19.2974 23.637 19.3142 23.5837 19.3143C23.5303 19.3144 23.4782 19.2978 23.4349 19.2667C23.3915 19.2356 23.359 19.1917 23.342 19.1411C23.3249 19.0905 23.3242 19.0359 23.3399 18.9849L23.8321 17.4689C23.8479 17.4182 23.8475 17.3638 23.8308 17.3134C23.8142 17.263 23.7822 17.219 23.7393 17.1877L22.4498 16.2511C22.4062 16.2193 22.3738 16.1745 22.3572 16.1232C22.3405 16.0718 22.3406 16.0165 22.3573 15.9652C22.374 15.9139 22.4064 15.8692 22.4501 15.8374C22.4937 15.8057 22.5463 15.7885 22.6002 15.7884H24.1879C24.2418 15.7887 24.2945 15.7718 24.3382 15.7402C24.3819 15.7086 24.4145 15.664 24.4312 15.6127L24.9234 14.0967C24.9383 14.0432 24.9703 13.9959 25.0146 13.9622C25.0588 13.9284 25.1128 13.91 25.1684 13.9097C25.224 13.9094 25.2782 13.9272 25.3228 13.9604C25.3674 13.9937 25.4 14.0405 25.4155 14.0939Z" fill="white"/>
<path d="M9.70313 16.2493L9.19266 16.6191L8.4136 17.1816C8.37088 17.2131 8.33901 17.2571 8.32238 17.3074C8.30575 17.3578 8.30519 17.4121 8.32079 17.4629L8.81719 18.9844C8.83142 19.0353 8.82962 19.0894 8.81204 19.1393C8.79446 19.1891 8.76194 19.2324 8.71892 19.2631C8.6759 19.2938 8.62446 19.3105 8.57159 19.311C8.51872 19.3115 8.46699 19.2956 8.42344 19.2657L7.13532 18.3277C7.0915 18.2961 7.03886 18.2791 6.98485 18.2791C6.93084 18.2791 6.87819 18.2961 6.83438 18.3277L5.54485 19.2657C5.5013 19.2956 5.44957 19.3115 5.3967 19.311C5.34383 19.3105 5.29239 19.2938 5.24937 19.2631C5.20634 19.2324 5.17383 19.1891 5.15625 19.1393C5.13867 19.0894 5.13687 19.0353 5.1511 18.9844L5.64469 17.4699C5.65966 17.4191 5.6588 17.365 5.64221 17.3148C5.62563 17.2645 5.59412 17.2205 5.55188 17.1886L5.38032 17.0635C5.47172 16.9229 5.56453 16.771 5.66157 16.6233C6.17485 15.8232 6.71907 15.0413 7.29282 14.2861L7.72032 15.6094C7.73695 15.6609 7.76945 15.7057 7.81316 15.7375C7.85687 15.7694 7.90953 15.7866 7.9636 15.7866H9.5625C9.61521 15.7895 9.66577 15.8085 9.7073 15.8411C9.74884 15.8737 9.77935 15.9182 9.7947 15.9687C9.81006 16.0192 9.8095 16.0732 9.79312 16.1234C9.77674 16.1736 9.74532 16.2175 9.70313 16.2493Z" fill="white"/>
<path d="M34.5095 26.1014L35.0017 27.6174C35.0186 27.6685 35.0512 27.7131 35.0949 27.7446C35.1386 27.7762 35.1911 27.7932 35.245 27.7931H36.8439C36.8979 27.7932 36.9504 27.8104 36.9941 27.8421C37.0377 27.8739 37.0702 27.9186 37.0869 27.9699C37.1036 28.0212 37.1036 28.0765 37.087 28.1279C37.0704 28.1792 37.038 28.224 36.9944 28.2558L35.7048 29.1924C35.6618 29.2235 35.6297 29.2675 35.613 29.318C35.5963 29.3685 35.596 29.4229 35.612 29.4736L36.1042 30.9895C36.1193 31.0406 36.1182 31.0951 36.1008 31.1455C36.0835 31.1958 36.0509 31.2395 36.0076 31.2705C35.9642 31.3015 35.9123 31.3181 35.8591 31.3182C35.8058 31.3182 35.7539 31.3017 35.7105 31.2708L34.4223 30.3342C34.3785 30.3026 34.3259 30.2857 34.2719 30.2857C34.2179 30.2857 34.1652 30.3026 34.1214 30.3342L32.8319 31.2708C32.7885 31.3017 32.7365 31.3182 32.6833 31.3182C32.63 31.3181 32.5781 31.3015 32.5348 31.2705C32.4914 31.2395 32.4588 31.1958 32.4415 31.1455C32.4242 31.0951 32.423 31.0406 32.4381 30.9895L32.9317 29.4736C32.9471 29.4229 32.9464 29.3686 32.9298 29.3183C32.9132 29.2679 32.8815 29.224 32.8389 29.1924L31.5494 28.2558C31.5058 28.224 31.4734 28.1792 31.4568 28.1279C31.4402 28.0765 31.4402 28.0212 31.4569 27.9699C31.4736 27.9186 31.5061 27.8739 31.5497 27.8421C31.5933 27.8104 31.6459 27.7932 31.6998 27.7931H33.2931C33.347 27.793 33.3994 27.7759 33.443 27.7444C33.4867 27.7128 33.5193 27.6684 33.5364 27.6174L34.0286 26.1014C34.0466 26.0521 34.0793 26.0095 34.1223 25.9794C34.1653 25.9493 34.2166 25.9331 34.2691 25.9331C34.3216 25.9331 34.3728 25.9493 34.4158 25.9794C34.4588 26.0095 34.4916 26.0521 34.5095 26.1014Z" fill="white"/>
<path d="M25.4154 26.1015L25.9076 27.6175C25.9244 27.6687 25.957 27.7132 26.0007 27.7448C26.0444 27.7763 26.0969 27.7933 26.1508 27.7933H27.7441C27.7981 27.7933 27.8506 27.8105 27.8943 27.8422C27.9379 27.874 27.9704 27.9187 27.9871 27.97C28.0038 28.0214 28.0038 28.0766 27.9872 28.128C27.9706 28.1793 27.9382 28.2241 27.8946 28.2559L26.6051 29.1925C26.5622 29.2238 26.5302 29.2678 26.5135 29.3182C26.4969 29.3686 26.4964 29.423 26.5122 29.4737L27.0002 30.9939C27.0159 31.0449 27.0152 31.0995 26.9982 31.1501C26.9811 31.2007 26.9486 31.2446 26.9053 31.2757C26.8619 31.3068 26.8098 31.3235 26.7565 31.3234C26.7031 31.3233 26.6511 31.3064 26.6079 31.2751L25.3183 30.3386C25.2745 30.307 25.2219 30.29 25.1679 30.29C25.1139 30.29 25.0612 30.307 25.0174 30.3386L23.7279 31.2751C23.6846 31.3064 23.6326 31.3233 23.5793 31.3234C23.5259 31.3235 23.4738 31.3068 23.4305 31.2757C23.3871 31.2446 23.3546 31.2007 23.3376 31.1501C23.3205 31.0995 23.3198 31.0449 23.3355 30.9939L23.8277 29.4779C23.8435 29.4272 23.8431 29.3729 23.8264 29.3224C23.8098 29.272 23.7778 29.228 23.7349 29.1967L22.4454 28.2601C22.4018 28.2283 22.3694 28.1835 22.3528 28.1322C22.3361 28.0808 22.3362 28.0256 22.3529 27.9743C22.3696 27.9229 22.4021 27.8782 22.4457 27.8465C22.4893 27.8147 22.5419 27.7976 22.5958 27.7975H24.1877C24.2416 27.7975 24.2941 27.7805 24.3378 27.749C24.3815 27.7174 24.4141 27.6729 24.431 27.6217L24.9232 26.1058C24.938 26.0521 24.9699 26.0048 25.014 25.9709C25.0581 25.937 25.1121 25.9185 25.1677 25.918C25.2233 25.9175 25.2776 25.9352 25.3223 25.9683C25.367 26.0014 25.3996 26.0482 25.4154 26.1015Z" fill="white"/>
<path d="M16.3208 26.1012L16.813 27.6171C16.83 27.6682 16.8627 27.7126 16.9063 27.7441C16.95 27.7757 17.0024 27.7927 17.0562 27.7929H18.6495C18.7035 27.793 18.756 27.8101 18.7997 27.8419C18.8433 27.8736 18.8758 27.9183 18.8925 27.9697C18.9092 28.021 18.9092 28.0763 18.8926 28.1276C18.876 28.1789 18.8436 28.2237 18.8 28.2555L17.5105 29.1921C17.4679 29.2237 17.4362 29.2677 17.4195 29.318C17.4029 29.3684 17.4023 29.4226 17.4176 29.4734L17.9112 30.9893C17.9264 31.0404 17.9252 31.0949 17.9079 31.1452C17.8905 31.1956 17.8579 31.2393 17.8146 31.2703C17.7713 31.3012 17.7194 31.3179 17.6661 31.3179C17.6128 31.318 17.5609 31.3014 17.5175 31.2705L16.228 30.334C16.1844 30.3025 16.132 30.2856 16.0782 30.2856C16.0244 30.2856 15.972 30.3025 15.9284 30.334L14.6389 31.2705C14.5955 31.3014 14.5436 31.318 14.4903 31.3179C14.437 31.3179 14.3851 31.3012 14.3418 31.2703C14.2984 31.2393 14.2658 31.1956 14.2485 31.1452C14.2312 31.0949 14.23 31.0404 14.2451 30.9893L14.7373 29.4734C14.7534 29.4227 14.753 29.3682 14.7364 29.3177C14.7197 29.2673 14.6876 29.2233 14.6445 29.1921L13.3592 28.2555C13.3162 28.2242 13.284 28.1803 13.2672 28.1299C13.2503 28.0795 13.2495 28.0251 13.265 27.9742C13.2804 27.9233 13.3114 27.8785 13.3534 27.846C13.3955 27.8135 13.4467 27.795 13.4998 27.7929H15.0931C15.147 27.7929 15.1995 27.776 15.2432 27.7444C15.2869 27.7128 15.3195 27.6683 15.3364 27.6171L15.8286 26.1012C15.8439 26.0477 15.8761 26.0006 15.9205 25.9671C15.965 25.9336 16.0191 25.9155 16.0747 25.9155C16.1303 25.9155 16.1844 25.9336 16.2288 25.9671C16.2732 26.0006 16.3055 26.0477 16.3208 26.1012Z" fill="white"/>
<path d="M7.22836 26.1022L7.72054 27.6182C7.73742 27.6694 7.77003 27.7139 7.81371 27.7455C7.8574 27.777 7.90993 27.794 7.96383 27.794H9.56273C9.61586 27.796 9.66703 27.8146 9.70912 27.8471C9.75121 27.8796 9.78214 27.9244 9.7976 27.9753C9.81306 28.0261 9.8123 28.0806 9.79541 28.131C9.77852 28.1814 9.74634 28.2253 9.70336 28.2566L8.41383 29.1932C8.37078 29.2244 8.33865 29.2683 8.32199 29.3188C8.30533 29.3693 8.30499 29.4237 8.32101 29.4744L8.8132 30.9904C8.82833 31.0414 8.82715 31.0959 8.80983 31.1463C8.7925 31.1967 8.7599 31.2404 8.71656 31.2713C8.67323 31.3023 8.62131 31.3189 8.56805 31.319C8.5148 31.319 8.46285 31.3025 8.41945 31.2716L7.13133 30.335C7.08751 30.3035 7.03487 30.2865 6.98086 30.2865C6.92685 30.2865 6.8742 30.3035 6.83039 30.335L5.54086 31.2716C5.49746 31.3025 5.44551 31.319 5.39225 31.319C5.339 31.3189 5.28708 31.3023 5.24374 31.2713C5.2004 31.2404 5.1678 31.1967 5.15048 31.1463C5.13316 31.0959 5.13198 31.0414 5.14711 30.9904L5.6407 29.4744C5.65608 29.4237 5.65542 29.3694 5.63881 29.3191C5.6222 29.2688 5.59044 29.2248 5.54789 29.1932L4.25836 28.2566C4.21477 28.2248 4.18236 28.18 4.16575 28.1287C4.14914 28.0773 4.14918 28.022 4.16587 27.9707C4.18256 27.9194 4.21504 27.8747 4.25868 27.8429C4.30231 27.8112 4.35486 27.794 4.40883 27.794H6.00633C6.06017 27.7938 6.1126 27.7767 6.15625 27.7452C6.19989 27.7137 6.23254 27.6692 6.24961 27.6182L6.74179 26.1022C6.75856 26.0509 6.79111 26.0062 6.83481 25.9745C6.8785 25.9428 6.9311 25.9258 6.98507 25.9258C7.03905 25.9258 7.09165 25.9428 7.13534 25.9745C7.17904 26.0062 7.21159 26.0509 7.22836 26.1022Z" fill="white"/>
<path d="M29.9619 7.8624L30.4541 9.37833C30.471 9.42952 30.5036 9.47407 30.5472 9.50563C30.5909 9.53719 30.6435 9.55416 30.6974 9.55412H32.2906C32.3446 9.55421 32.3972 9.57135 32.4408 9.6031C32.4844 9.63485 32.5169 9.67958 32.5336 9.7309C32.5503 9.78221 32.5503 9.83749 32.5337 9.88883C32.5171 9.94018 32.4847 9.98496 32.4411 10.0168L31.1516 10.9533C31.109 10.9849 31.0773 11.0289 31.0607 11.0793C31.044 11.1296 31.0434 11.1839 31.0588 11.2346L31.5524 12.7505C31.5675 12.8016 31.5663 12.8561 31.549 12.9065C31.5317 12.9568 31.4991 13.0005 31.4557 13.0315C31.4124 13.0624 31.3605 13.0791 31.3072 13.0792C31.254 13.0792 31.202 13.0626 31.1586 13.0318L29.8691 12.0952C29.8255 12.0637 29.7731 12.0468 29.7193 12.0468C29.6655 12.0468 29.6131 12.0637 29.5695 12.0952L28.28 13.0318C28.2366 13.0626 28.1847 13.0792 28.1314 13.0792C28.0781 13.0791 28.0262 13.0624 27.9829 13.0315C27.9396 13.0005 27.907 12.9568 27.8896 12.9065C27.8723 12.8561 27.8711 12.8016 27.8863 12.7505L28.3784 11.2346C28.3945 11.1839 28.3941 11.1295 28.3775 11.079C28.3608 11.0285 28.3287 10.9845 28.2856 10.9533L27.0003 10.0168C26.9573 9.98548 26.9252 9.94157 26.9083 9.89115C26.8914 9.84073 26.8906 9.7863 26.9061 9.73543C26.9215 9.68455 26.9525 9.63976 26.9946 9.60726C27.0367 9.57477 27.0878 9.55619 27.1409 9.55412H28.7342C28.7882 9.55438 28.8408 9.53749 28.8845 9.5059C28.9283 9.4743 28.9608 9.42963 28.9775 9.37833L29.4697 7.8624C29.485 7.80892 29.5173 7.76187 29.5617 7.72837C29.6061 7.69488 29.6602 7.67676 29.7158 7.67676C29.7714 7.67676 29.8255 7.69488 29.8699 7.72837C29.9143 7.76187 29.9466 7.80892 29.9619 7.8624Z" fill="white"/>
<path d="M12.8715 11.0832C12.8553 11.1344 12.8553 11.1894 12.8715 11.2407L13.3594 12.7552C13.3742 12.8061 13.3729 12.8602 13.3555 12.9103C13.3382 12.9603 13.3058 13.0038 13.2628 13.0347C13.2197 13.0655 13.1682 13.0823 13.1152 13.0826C13.0623 13.0829 13.0105 13.0668 12.9671 13.0364L11.6776 12.0985C11.6337 12.0669 11.5811 12.0499 11.5271 12.0499C11.4731 12.0499 11.4204 12.0669 11.3766 12.0985L10.0871 13.0364C10.0437 13.0668 9.99192 13.0829 9.93896 13.0826C9.886 13.0823 9.83444 13.0655 9.79139 13.0347C9.74835 13.0038 9.71594 12.9603 9.69863 12.9103C9.68132 12.8602 9.67996 12.8061 9.69474 12.7552L10.1869 11.2407C10.2031 11.1894 10.2031 11.1344 10.1869 11.0832C10.1775 11.0401 10.1561 11.0006 10.1251 10.9693C10.7813 10.2943 11.4587 9.64598 12.1571 9.02441L12.2696 9.37176C12.2854 9.42471 12.3179 9.47113 12.3622 9.50409C12.4066 9.53704 12.4604 9.55475 12.5157 9.55457H14.109C14.1629 9.55515 14.2152 9.57264 14.2586 9.60457C14.302 9.6365 14.3344 9.68126 14.351 9.73253C14.3676 9.78379 14.3677 9.83899 14.3513 9.89032C14.3349 9.94166 14.3027 9.98654 14.2594 10.0186L12.9699 10.9538C12.9238 10.9849 12.8892 11.0304 12.8715 11.0832Z" fill="white"/>
<path d="M5.65445 22.1571C5.65089 22.1922 5.63973 22.2261 5.62177 22.2564C5.6038 22.2868 5.57944 22.3129 5.55039 22.3329L4.26086 23.2708C4.21831 23.3025 4.18655 23.3464 4.16994 23.3968C4.15333 23.4471 4.15267 23.5014 4.16805 23.5521L4.66023 25.068C4.67595 25.119 4.67524 25.1737 4.6582 25.2243C4.64116 25.2748 4.60866 25.3188 4.56529 25.3499C4.52191 25.381 4.46986 25.3976 4.41649 25.3975C4.36313 25.3974 4.31114 25.3805 4.26789 25.3493L2.97836 24.4141C2.93507 24.3813 2.88223 24.3635 2.82789 24.3635C2.77355 24.3635 2.72071 24.3813 2.67742 24.4141L1.66211 25.1524C1.98367 24.1287 2.3493 23.1274 2.75898 22.1487C2.93336 21.7268 3.11617 21.3133 3.30883 20.8999L3.56336 21.686C3.57994 21.7376 3.61239 21.7826 3.65607 21.8147C3.69976 21.8468 3.75245 21.8642 3.80664 21.8646H5.39992C5.43673 21.8644 5.47313 21.8722 5.50666 21.8874C5.54019 21.9025 5.57005 21.9248 5.59421 21.9525C5.61837 21.9803 5.63626 22.0129 5.64666 22.0482C5.65705 22.0835 5.65971 22.1207 5.65445 22.1571Z" fill="white"/>
<path d="M29.9616 20.1795L30.4538 21.6955C30.4709 21.7465 30.5035 21.791 30.5472 21.8225C30.5908 21.854 30.6432 21.8711 30.6971 21.8713H32.2904C32.3443 21.8713 32.3969 21.8885 32.4405 21.9202C32.4842 21.952 32.5166 21.9967 32.5333 22.048C32.55 22.0994 32.5501 22.1546 32.5334 22.206C32.5168 22.2573 32.4844 22.3021 32.4408 22.3339L31.1513 23.2705C31.1088 23.3021 31.077 23.3461 31.0604 23.3964C31.0438 23.4468 31.0431 23.501 31.0585 23.5517L31.5521 25.0677C31.5672 25.1187 31.566 25.1732 31.5487 25.2236C31.5314 25.274 31.4988 25.3177 31.4555 25.3486C31.4121 25.3796 31.3602 25.3962 31.3069 25.3963C31.2537 25.3963 31.2017 25.3798 31.1583 25.3489L29.8688 24.4124C29.8252 24.3809 29.7728 24.364 29.719 24.364C29.6653 24.364 29.6129 24.3809 29.5693 24.4124L28.2797 25.3489C28.2363 25.3798 28.1844 25.3963 28.1311 25.3963C28.0779 25.3962 28.026 25.3796 27.9826 25.3486C27.9393 25.3177 27.9067 25.274 27.8894 25.2236C27.872 25.1732 27.8709 25.1187 27.886 25.0677L28.3782 23.5517C28.3942 23.501 28.3939 23.4466 28.3772 23.3961C28.3605 23.3456 28.3284 23.3017 28.2854 23.2705L27.0001 22.3339C26.9565 22.3021 26.9241 22.2573 26.9074 22.206C26.8908 22.1546 26.8909 22.0994 26.9076 22.048C26.9243 21.9967 26.9567 21.952 27.0004 21.9202C27.044 21.8885 27.0966 21.8713 27.1505 21.8713H28.7438C28.7977 21.8713 28.8502 21.8543 28.8939 21.8228C28.9376 21.7912 28.9702 21.7467 28.9871 21.6955L29.4793 20.1795C29.497 20.1297 29.5297 20.0866 29.5728 20.0561C29.616 20.0256 29.6676 20.0093 29.7204 20.0093C29.7733 20.0093 29.8249 20.0256 29.8681 20.0561C29.9112 20.0866 29.9439 20.1297 29.9616 20.1795Z" fill="white"/>
<path d="M20.8689 20.1795L21.3611 21.6955C21.378 21.7467 21.4106 21.7912 21.4543 21.8228C21.4979 21.8543 21.5505 21.8713 21.6044 21.8713H23.2033C23.2572 21.8713 23.3098 21.8885 23.3534 21.9202C23.3971 21.952 23.4295 21.9967 23.4462 22.048C23.4629 22.0994 23.463 22.1546 23.4464 22.206C23.4297 22.2573 23.3973 22.3021 23.3537 22.3339L22.0642 23.2705C22.0212 23.3017 21.989 23.3456 21.9724 23.3961C21.9557 23.4466 21.9554 23.501 21.9714 23.5517L22.4636 25.0677C22.4787 25.1187 22.4775 25.1732 22.4602 25.2236C22.4429 25.274 22.4103 25.3177 22.367 25.3486C22.3236 25.3796 22.2717 25.3962 22.2184 25.3963C22.1652 25.3963 22.1132 25.3798 22.0698 25.3489L20.7817 24.4124C20.7379 24.3808 20.6853 24.3638 20.6312 24.3638C20.5772 24.3638 20.5246 24.3808 20.4808 24.4124L19.1912 25.3489C19.1478 25.3798 19.0959 25.3963 19.0426 25.3963C18.9894 25.3962 18.9375 25.3796 18.8941 25.3486C18.8508 25.3177 18.8182 25.274 18.8009 25.2236C18.7836 25.1732 18.7824 25.1187 18.7975 25.0677L19.2911 23.5517C19.3065 23.501 19.3058 23.4468 19.2892 23.3964C19.2726 23.3461 19.2408 23.3021 19.1983 23.2705L17.9087 22.3339C17.8652 22.3021 17.8327 22.2573 17.8161 22.206C17.7995 22.1546 17.7996 22.0994 17.8163 22.048C17.8329 21.9967 17.8654 21.952 17.9091 21.9202C17.9527 21.8885 18.0053 21.8713 18.0592 21.8713H19.6525C19.7063 21.8711 19.7588 21.854 19.8024 21.8225C19.8461 21.791 19.8787 21.7465 19.8958 21.6955L20.388 20.1795C20.4059 20.1302 20.4387 20.0876 20.4817 20.0575C20.5247 20.0274 20.5759 20.0112 20.6284 20.0112C20.6809 20.0112 20.7322 20.0274 20.7752 20.0575C20.8182 20.0876 20.8509 20.1302 20.8689 20.1795Z" fill="white"/>
<path d="M4.26105 35.3494C4.21818 35.3807 4.18617 35.4247 4.16953 35.4751C4.15289 35.5255 4.15244 35.5799 4.16824 35.6306L4.66043 37.148C4.67615 37.199 4.67544 37.2536 4.6584 37.3042C4.64136 37.3548 4.60886 37.3987 4.56548 37.4298C4.52211 37.4609 4.47006 37.4776 4.41669 37.4774C4.36332 37.4773 4.31134 37.4605 4.26809 37.4292L2.97855 36.494C2.935 36.4618 2.88226 36.4445 2.82809 36.4445C2.77392 36.4445 2.72118 36.4618 2.67762 36.494L1.38949 37.4348C1.34627 37.4667 1.29409 37.484 1.24041 37.4844C1.18673 37.4848 1.13431 37.4682 1.09063 37.437C1.04695 37.4058 1.01425 37.3616 0.997209 37.3107C0.980167 37.2598 0.979654 37.2048 0.995742 37.1536L1.48793 35.6362C1.50417 35.5856 1.50394 35.531 1.48726 35.4805C1.47059 35.43 1.43833 35.386 1.39512 35.355L0.105586 34.4114C0.0785585 34.3922 0.0556144 34.3678 0.0380859 34.3397C0.0380859 34.2426 0.0465234 34.1456 0.0521484 34.05C0.07554 34.0181 0.106309 33.9924 0.14182 33.975C0.177332 33.9576 0.216529 33.9491 0.256055 33.9501H1.84934C1.90353 33.9498 1.95622 33.9323 1.9999 33.9002C2.04359 33.8682 2.07604 33.8231 2.09262 33.7715L2.2684 33.2315L2.5848 32.257C2.60157 32.2057 2.63412 32.161 2.67782 32.1293C2.72151 32.0976 2.77411 32.0806 2.82809 32.0806C2.88206 32.0806 2.93466 32.0976 2.97835 32.1293C3.02205 32.161 3.0546 32.2057 3.07137 32.257L3.38777 33.2315L3.56355 33.7715C3.58014 33.8231 3.61258 33.8682 3.65627 33.9002C3.69995 33.9323 3.75265 33.9498 3.80684 33.9501H5.40012C5.45415 33.9497 5.50692 33.9665 5.55078 33.9981C5.59464 34.0296 5.62731 34.0744 5.64407 34.1257C5.66083 34.1771 5.66081 34.2325 5.644 34.2838C5.62719 34.3352 5.59447 34.3799 5.55059 34.4114L4.26105 35.3494Z" fill="white"/>
<path d="M29.9616 32.2562L30.4538 33.7721C30.4707 33.8233 30.5033 33.8679 30.547 33.8994C30.5907 33.931 30.6432 33.948 30.6971 33.9479H32.2904C32.3443 33.948 32.3969 33.9652 32.4405 33.9969C32.4842 34.0287 32.5166 34.0734 32.5333 34.1247C32.55 34.176 32.5501 34.2313 32.5334 34.2826C32.5168 34.334 32.4844 34.3788 32.4408 34.4106L31.1513 35.3471C31.1091 35.379 31.0776 35.423 31.061 35.4733C31.0444 35.5235 31.0435 35.5776 31.0585 35.6284L31.5521 37.1429C31.5672 37.194 31.566 37.2485 31.5487 37.2989C31.5314 37.3492 31.4988 37.3929 31.4555 37.4239C31.4121 37.4548 31.3602 37.4715 31.3069 37.4716C31.2537 37.4716 31.2017 37.455 31.1583 37.4242L29.8688 36.4876C29.8252 36.4561 29.7728 36.4392 29.719 36.4392C29.6653 36.4392 29.6129 36.4561 29.5693 36.4876L28.2797 37.4242C28.2363 37.455 28.1844 37.4716 28.1311 37.4716C28.0779 37.4715 28.026 37.4548 27.9826 37.4239C27.9393 37.3929 27.9067 37.3492 27.8894 37.2989C27.872 37.2485 27.8709 37.194 27.886 37.1429L28.3782 35.6284C28.3938 35.5777 28.3932 35.5234 28.3766 35.473C28.36 35.4226 28.3281 35.3786 28.2854 35.3471L27.0001 34.4106C26.9565 34.3788 26.9241 34.334 26.9074 34.2826C26.8908 34.2313 26.8909 34.176 26.9076 34.1247C26.9243 34.0734 26.9567 34.0287 27.0004 33.9969C27.044 33.9652 27.0966 33.948 27.1505 33.9479H28.7438C28.7978 33.9482 28.8504 33.9313 28.8941 33.8997C28.9378 33.8681 28.9704 33.8234 28.9871 33.7721L29.4793 32.2562C29.497 32.2064 29.5297 32.1633 29.5728 32.1328C29.616 32.1023 29.6676 32.0859 29.7204 32.0859C29.7733 32.0859 29.8249 32.1023 29.8681 32.1328C29.9112 32.1633 29.9439 32.2064 29.9616 32.2562Z" fill="white"/>
<path d="M20.869 32.2565L21.3612 33.7724C21.3779 33.8237 21.4104 33.8684 21.4541 33.9C21.4979 33.9316 21.5505 33.9484 21.6045 33.9482H23.2034C23.2565 33.9503 23.3077 33.9688 23.3497 34.0013C23.3918 34.0338 23.4228 34.0786 23.4382 34.1295C23.4537 34.1804 23.4529 34.2348 23.436 34.2852C23.4191 34.3356 23.387 34.3795 23.344 34.4108L22.0545 35.3474C22.0117 35.3789 21.9799 35.4229 21.9632 35.4732C21.9466 35.5236 21.946 35.5779 21.9616 35.6287L22.4538 37.1432C22.469 37.1942 22.4678 37.2488 22.4504 37.2991C22.4331 37.3495 22.4005 37.3932 22.3572 37.4241C22.3139 37.4551 22.2619 37.4718 22.2087 37.4718C22.1554 37.4719 22.1035 37.4553 22.0601 37.4244L20.772 36.4879C20.7281 36.4563 20.6755 36.4393 20.6215 36.4393C20.5675 36.4393 20.5148 36.4563 20.471 36.4879L19.1815 37.4244C19.1381 37.4553 19.0861 37.4719 19.0329 37.4718C18.9796 37.4718 18.9277 37.4551 18.8844 37.4241C18.841 37.3932 18.8084 37.3495 18.7911 37.2991C18.7738 37.2488 18.7726 37.1942 18.7877 37.1432L19.2813 35.6287C19.2963 35.5779 19.2954 35.5238 19.2788 35.4735C19.2623 35.4233 19.2308 35.3793 19.1885 35.3474L17.899 34.4108C17.8554 34.379 17.823 34.3342 17.8064 34.2829C17.7898 34.2316 17.7898 34.1763 17.8065 34.125C17.8232 34.0736 17.8557 34.0289 17.8993 33.9972C17.9429 33.9654 17.9955 33.9483 18.0495 33.9482H19.6427C19.6966 33.9482 19.7492 33.9313 19.7928 33.8997C19.8365 33.8681 19.8691 33.8236 19.886 33.7724L20.3782 32.2565C20.3939 32.2035 20.4262 32.1571 20.4705 32.1241C20.5147 32.0911 20.5684 32.0732 20.6236 32.0732C20.6788 32.0732 20.7325 32.0911 20.7767 32.1241C20.8209 32.1571 20.8533 32.2035 20.869 32.2565Z" fill="white"/>
<path d="M11.7747 32.2571L12.2669 33.773C12.2839 33.8253 12.3173 33.8706 12.3622 33.9023C12.407 33.934 12.4609 33.9503 12.5158 33.9488H14.1091C14.1631 33.9489 14.2156 33.9661 14.2593 33.9978C14.3029 34.0296 14.3354 34.0743 14.3521 34.1256C14.3688 34.1769 14.3688 34.2322 14.3522 34.2835C14.3356 34.3349 14.3032 34.3797 14.2596 34.4115L12.9701 35.348C12.9275 35.3797 12.8957 35.4236 12.8791 35.474C12.8625 35.5243 12.8619 35.5786 12.8772 35.6293L13.3596 37.1495C13.3753 37.2005 13.3746 37.2551 13.3576 37.3057C13.3405 37.3563 13.308 37.4002 13.2646 37.4313C13.2213 37.4624 13.1692 37.479 13.1158 37.4789C13.0625 37.4788 13.0105 37.462 12.9672 37.4307L11.6777 36.4941C11.6339 36.4626 11.5813 36.4456 11.5272 36.4456C11.4732 36.4456 11.4206 36.4626 11.3768 36.4941L10.0872 37.4307C10.044 37.462 9.99201 37.4788 9.93864 37.4789C9.88527 37.479 9.83322 37.4624 9.78985 37.4313C9.74647 37.4002 9.71397 37.3563 9.69693 37.3057C9.67989 37.2551 9.67918 37.2005 9.6949 37.1495L10.1871 35.6349C10.2025 35.5842 10.2018 35.5299 10.1852 35.4796C10.1686 35.4293 10.1368 35.3853 10.0943 35.3537L8.80474 34.4171C8.76116 34.3853 8.72874 34.3405 8.71213 34.2892C8.69552 34.2378 8.69557 34.1825 8.71226 34.1312C8.72895 34.0799 8.76143 34.0352 8.80506 34.0034C8.8487 33.9717 8.90125 33.9545 8.95521 33.9544H10.5471C10.601 33.9547 10.6537 33.9378 10.6974 33.9062C10.7411 33.8746 10.7737 33.83 10.7904 33.7787L11.2826 32.2627C11.2972 32.2091 11.329 32.1616 11.373 32.1276C11.417 32.0936 11.4709 32.0749 11.5265 32.0742C11.5822 32.0736 11.6365 32.0911 11.6813 32.1241C11.726 32.1571 11.7589 32.2038 11.7747 32.2571Z" fill="white"/>
<path d="M40.3591 0.261367C39.7966 0.327461 39.2341 0.41043 38.6716 0.503242C34.9324 1.1331 31.3176 2.355 27.963 4.12293C27.8421 4.1848 27.7226 4.2509 27.603 4.31418C26.8868 4.70137 26.1865 5.11152 25.5021 5.54465H16.7988C17.4841 5.11152 18.1845 4.70137 18.8998 4.31418C23.9661 1.57236 29.6196 0.0946866 35.3796 0.00683594H36.6199C37.309 0.0166797 37.9924 0.0490234 38.6716 0.0982422C39.2341 0.139492 39.7966 0.193867 40.3591 0.261367Z" fill="#DB1B1B"/>
<path d="M25.5023 5.54469C24.7879 5.99281 24.0918 6.46719 23.414 6.96781C23.2551 7.08312 23.0976 7.20125 22.9401 7.32078C22.3312 7.78484 21.7392 8.26438 21.1626 8.765C21.0599 8.85078 20.9587 8.93937 20.8574 9.02938C20.2134 9.59891 19.5918 10.1937 18.9899 10.8069L19.1924 10.9475C19.2365 10.9795 19.269 11.0249 19.2853 11.0769H10.0181C10.0518 11.0403 10.087 11.0052 10.1221 10.9686C10.7784 10.2936 11.4557 9.64531 12.1542 9.02375C12.8263 8.43031 13.5206 7.86078 14.2368 7.31516C15.0637 6.68797 15.9243 6.09312 16.799 5.53906L25.5023 5.54469Z" fill="white"/>
<path d="M18.7213 11.082C17.8417 11.9992 17.0108 12.9619 16.2322 13.9663L15.9918 14.2812C15.861 14.4542 15.7316 14.6272 15.6036 14.803L15.3421 15.6088C15.3254 15.6602 15.2929 15.7051 15.2492 15.7369C15.2055 15.7687 15.1529 15.7859 15.0988 15.7859H14.9061C14.7177 16.0672 14.5349 16.34 14.3549 16.6198H5.65723C6.17051 15.8197 6.71473 15.0378 7.28848 14.2827C8.13537 13.1637 9.04676 12.095 10.018 11.082H18.7213Z" fill="#DB1B1B"/>
<path d="M14.3608 16.6191L14.2062 16.8652L14.0838 17.0592C13.316 18.2991 12.6243 19.5844 12.0124 20.9081C11.8197 21.3202 11.6369 21.7336 11.4626 22.1555H2.75928C2.93365 21.7336 3.11646 21.3202 3.30912 20.9067C3.921 19.583 4.61274 18.2977 5.38053 17.0578C5.47193 16.9172 5.56475 16.7653 5.66178 16.6177L14.3608 16.6191Z" fill="white"/>
<path d="M11.4625 22.1571C11.0528 23.1359 10.6872 24.1362 10.3656 25.158C10.1031 25.9896 9.86875 26.8334 9.6625 27.6893H0.964844C1.16547 26.8315 1.39984 25.9877 1.66797 25.158C1.98953 24.1343 2.35516 23.133 2.76484 22.1543L11.4625 22.1571Z" fill="#DB1B1B"/>
<path d="M9.70312 28.2557L9.50484 28.3964C9.16048 29.9891 8.92555 31.6035 8.80172 33.2282H0.105469C0.246401 31.3626 0.533691 29.511 0.964688 27.6904H9.66797C9.65953 27.7284 9.64969 27.7678 9.64125 27.8043C9.68571 27.8199 9.72502 27.8475 9.75483 27.8839C9.78464 27.9204 9.8038 27.9644 9.81019 28.0111C9.81659 28.0578 9.80998 28.1053 9.79109 28.1485C9.7722 28.1917 9.74176 28.2288 9.70312 28.2557Z" fill="white"/>
<path d="M8.70328 35.9994C8.70328 36.9303 8.73844 37.8533 8.80875 38.7683H0.105469C0.0351562 37.8542 0 36.9313 0 35.9994V34.2064C0.0001402 34.2531 0.0132872 34.2989 0.0379687 34.3386C0.0379687 34.2416 0.0464062 34.1445 0.0520312 34.0489C0.0660937 33.7747 0.084375 33.5033 0.105469 33.2305H8.80875C8.78765 33.5033 8.76937 33.7747 8.75531 34.0489C8.75531 34.1445 8.74547 34.2416 8.74125 34.3386C8.72847 34.3192 8.71897 34.2978 8.71312 34.2753C8.71312 34.2627 8.71312 34.2514 8.70609 34.2402C8.70534 34.2289 8.70534 34.2176 8.70609 34.2064L8.70328 35.9994Z" fill="#DB1B1B"/>
<path d="M9.66797 44.3064H0.964688C0.533572 42.4858 0.24628 40.6342 0.105469 38.7686H8.80875C8.94956 40.6342 9.23685 42.4858 9.66797 44.3064Z" fill="#DBDBDB"/>
<path d="M11.4625 49.843H2.75922C2.01016 48.05 1.41001 46.1982 0.964844 44.3066H9.66812C10.1133 46.1982 10.7134 48.05 11.4625 49.843Z" fill="#C11A1A"/>
<path d="M14.3608 55.3806H5.65756C4.5315 53.6229 3.5617 51.7699 2.75928 49.8428H11.4626C12.265 51.7699 13.2348 53.6229 14.3608 55.3806Z" fill="#DBDBDB"/>
<path d="M18.7213 60.9187H10.0181C8.3883 59.2189 6.92826 57.3642 5.65869 55.3809H14.362C15.6315 57.3642 17.0916 59.2189 18.7213 60.9187Z" fill="#C11A1A"/>
<path d="M25.5023 66.4563H16.799C14.3228 64.8918 12.0458 63.0322 10.0181 60.9185H18.7213C20.749 63.0322 23.026 64.8918 25.5023 66.4563Z" fill="#DBDBDB"/>
<path d="M40.3594 71.7377C39.1459 71.8877 37.9256 71.975 36.7031 71.9993H35.2969C28.7382 71.8848 22.3372 69.9696 16.7935 66.4629H25.4967C29.9963 69.306 35.0742 71.1082 40.3594 71.7377Z" fill="#C11A1A"/>
<path d="M38.6719 0.0982422V0.503242C34.9327 1.1331 31.3178 2.355 27.9633 4.12293C27.8423 4.1848 27.7228 4.2509 27.6033 4.31418C26.887 4.70137 26.1867 5.11152 25.5023 5.54465C24.788 5.99277 24.0919 6.46715 23.4141 6.96777C23.2552 7.08309 23.0977 7.20121 22.9402 7.32074C22.3313 7.7848 21.7392 8.26434 21.1627 8.76496C21.06 8.85074 20.9588 8.93934 20.8575 9.02934C20.2134 9.59887 19.5919 10.1937 18.99 10.8068L19.1925 10.9475C19.2365 10.9795 19.2691 11.0248 19.2853 11.0768H18.7228C17.8432 11.994 17.0123 12.9567 16.2337 13.9611L15.9933 14.2761C15.8625 14.449 15.7331 14.622 15.6052 14.7978L15.3422 15.6092C15.3256 15.6606 15.293 15.7055 15.2493 15.7373C15.2056 15.7691 15.153 15.7863 15.0989 15.7864H14.9062C14.7178 16.0676 14.535 16.3404 14.355 16.6203L14.2003 16.8664L14.078 17.0604C13.3102 18.3003 12.6184 19.5856 12.0066 20.9093C11.8139 21.3214 11.6311 21.7348 11.4567 22.1567C11.0508 23.1354 10.687 24.1357 10.3655 25.1576C10.103 25.9892 9.86859 26.8329 9.66234 27.6889C9.65391 27.7268 9.64406 27.7662 9.63562 27.8028C9.67972 27.8182 9.71876 27.8454 9.74851 27.8814C9.77825 27.9174 9.79758 27.9609 9.80439 28.0071C9.8112 28.0533 9.80523 28.1005 9.78713 28.1435C9.76903 28.1866 9.7395 28.2239 9.70172 28.2514L9.50344 28.392C9.15907 29.9847 8.92415 31.5991 8.80031 33.2239C8.77922 33.4967 8.76094 33.7681 8.74687 34.0423C8.74687 34.1379 8.73703 34.235 8.73281 34.332C8.72004 34.3126 8.71054 34.2912 8.70469 34.2687C8.70469 34.2561 8.70469 34.2448 8.69766 34.2336C8.6969 34.2223 8.6969 34.211 8.69766 34.1998V35.9998C8.69766 36.9307 8.73281 37.8537 8.80312 38.7687H0.105469C0.0351562 37.8547 0 36.9317 0 35.9998V34.2068C0.0001402 34.2536 0.0132872 34.2993 0.0379688 34.339C0.0379688 34.242 0.0464063 34.145 0.0520312 34.0493C0.0660938 33.7751 0.084375 33.5037 0.105469 33.2309C0.246401 31.3653 0.533691 29.5137 0.964688 27.6931C1.16531 26.8353 1.39969 25.9915 1.66781 25.1618C1.98937 24.1381 2.355 23.1368 2.76469 22.1581C2.93906 21.7362 3.12188 21.3228 3.31453 20.9093C3.92641 19.5856 4.61815 18.3003 5.38594 17.0604C5.47734 16.9198 5.57016 16.7679 5.66719 16.6203C6.18047 15.8201 6.72469 15.0382 7.29844 14.2831C8.14215 13.1644 9.05025 12.0957 10.0181 11.0825C10.0519 11.0459 10.087 11.0107 10.1222 10.9742C10.7784 10.2992 11.4558 9.6509 12.1542 9.02934C12.8264 8.4359 13.5206 7.86637 14.2369 7.32074C15.0637 6.69355 15.9244 6.09871 16.7991 5.54465C17.4844 5.11152 18.1847 4.70137 18.9 4.31418C23.9663 1.57236 29.6199 0.0946866 35.3798 0.00683594H36.6202C37.3092 0.0166797 37.9927 0.0490234 38.6719 0.0982422Z" fill="#32314B"/>
<path d="M17.4124 5.5448C17.3995 5.5908 17.3995 5.63943 17.4124 5.68543L17.906 7.19855C17.9211 7.24962 17.9199 7.30413 17.9026 7.35449C17.8853 7.40485 17.8527 7.44856 17.8093 7.47951C17.766 7.51047 17.7141 7.52713 17.6608 7.52719C17.6076 7.52724 17.5556 7.51067 17.5122 7.4798L16.2227 6.54465C16.1791 6.51319 16.1267 6.49625 16.0729 6.49625C16.0192 6.49625 15.9668 6.51319 15.9232 6.54465L14.6336 7.4798C14.5987 7.50564 14.5577 7.52209 14.5146 7.52761C14.4715 7.53312 14.4277 7.5275 14.3874 7.51128C14.347 7.49507 14.3115 7.4688 14.2843 7.43498C14.257 7.40117 14.2388 7.36092 14.2314 7.31809C15.0583 6.6909 15.9189 6.09605 16.7936 5.54199C17.4789 5.10887 18.1793 4.69871 18.8946 4.31152C18.8785 4.36849 18.8432 4.41815 18.7947 4.45215L17.5052 5.38871C17.4565 5.4279 17.4236 5.48331 17.4124 5.5448Z" fill="#DBDBDB"/>
<path d="M16.2321 13.9668L15.9916 14.2818C15.8609 14.4548 15.7315 14.6277 15.6035 14.8035L15.8341 14.1004C15.8457 14.0609 15.8667 14.0247 15.8953 13.995C15.9239 13.9653 15.9592 13.9429 15.9983 13.9298C16.0374 13.9167 16.079 13.9132 16.1197 13.9196C16.1604 13.9261 16.199 13.9423 16.2321 13.9668Z" fill="#DBDBDB"/>
<path d="M9.70313 16.2488L9.19266 16.6186L8.4136 17.1811C8.37088 17.2126 8.33901 17.2566 8.32238 17.307C8.30575 17.3573 8.30519 17.4116 8.32079 17.4624L8.81719 18.9839C8.83142 19.0348 8.82962 19.0889 8.81204 19.1388C8.79446 19.1886 8.76194 19.2319 8.71892 19.2626C8.6759 19.2933 8.62446 19.3101 8.57159 19.3105C8.51872 19.311 8.46699 19.2952 8.42344 19.2652L7.13532 18.3272C7.0915 18.2956 7.03886 18.2786 6.98485 18.2786C6.93084 18.2786 6.87819 18.2956 6.83438 18.3272L5.54485 19.2652C5.5013 19.2952 5.44957 19.311 5.3967 19.3105C5.34383 19.3101 5.29239 19.2933 5.24937 19.2626C5.20634 19.2319 5.17383 19.1886 5.15625 19.1388C5.13867 19.0889 5.13687 19.0348 5.1511 18.9839L5.64469 17.4694C5.65966 17.4186 5.6588 17.3645 5.64221 17.3143C5.62563 17.264 5.59412 17.22 5.55188 17.1881L5.38032 17.063C5.47172 16.9224 5.56453 16.7705 5.66157 16.6228C6.17485 15.8227 6.71907 15.0408 7.29282 14.2856L7.72032 15.6089C7.73695 15.6604 7.76945 15.7052 7.81316 15.7371C7.85687 15.7689 7.90953 15.7861 7.9636 15.7861H9.5625C9.61521 15.789 9.66577 15.808 9.7073 15.8406C9.74884 15.8732 9.77935 15.9177 9.7947 15.9682C9.81006 16.0187 9.8095 16.0728 9.79312 16.1229C9.77674 16.1731 9.74532 16.217 9.70313 16.2488Z" fill="#DBDBDB"/>
<path d="M9.70336 28.2555L9.50507 28.3961L8.41383 29.1907C8.37044 29.2216 8.33805 29.2655 8.32136 29.3161C8.30467 29.3667 8.30455 29.4213 8.32101 29.4719L8.8132 30.9865C8.82833 31.0375 8.82715 31.092 8.80983 31.1424C8.7925 31.1927 8.7599 31.2365 8.71656 31.2674C8.67323 31.2984 8.62131 31.315 8.56805 31.3151C8.5148 31.3151 8.46285 31.2986 8.41945 31.2677L7.13133 30.3311C7.08751 30.2996 7.03487 30.2826 6.98086 30.2826C6.92685 30.2826 6.8742 30.2996 6.83039 30.3311L5.54086 31.2677C5.49746 31.2986 5.44551 31.3151 5.39225 31.3151C5.339 31.315 5.28708 31.2984 5.24374 31.2674C5.2004 31.2365 5.1678 31.1927 5.15048 31.1424C5.13316 31.092 5.13198 31.0375 5.14711 30.9865L5.6407 29.4719C5.65651 29.4212 5.65606 29.3668 5.63941 29.3164C5.62277 29.266 5.59077 29.222 5.54789 29.1907L4.25836 28.2527C4.21477 28.2209 4.18236 28.1761 4.16575 28.1248C4.14914 28.0734 4.14918 28.0181 4.16587 27.9668C4.18256 27.9155 4.21504 27.8708 4.25868 27.839C4.30231 27.8073 4.35486 27.7901 4.40883 27.79H6.00633C6.04547 27.79 6.08407 27.781 6.11918 27.7637C6.15429 27.7463 6.18495 27.7212 6.20883 27.6902C6.22625 27.6666 6.24 27.6406 6.24961 27.6129L6.74179 26.0983C6.75856 26.047 6.79111 26.0023 6.83481 25.9706C6.8785 25.9389 6.9311 25.9219 6.98507 25.9219C7.03905 25.9219 7.09165 25.9389 7.13534 25.9706C7.17904 26.0023 7.21159 26.047 7.22836 26.0983L7.72054 27.6129C7.73015 27.6406 7.7439 27.6666 7.76132 27.6902C7.7852 27.7212 7.81586 27.7463 7.85097 27.7637C7.88608 27.781 7.92468 27.79 7.96383 27.79H9.56273C9.59143 27.7901 9.61993 27.7949 9.64711 27.8041C9.6912 27.8203 9.72998 27.8484 9.7592 27.8851C9.78842 27.9219 9.80695 27.9661 9.81276 28.0127C9.81856 28.0593 9.81143 28.1066 9.79213 28.1494C9.77284 28.1923 9.74212 28.229 9.70336 28.2555Z" fill="#DBDBDB"/>
<path d="M12.8715 11.0827C12.8553 11.1339 12.8553 11.1889 12.8715 11.2402L13.3594 12.7547C13.3742 12.8056 13.3729 12.8598 13.3555 12.9098C13.3382 12.9599 13.3058 13.0033 13.2628 13.0342C13.2197 13.065 13.1682 13.0818 13.1152 13.0821C13.0623 13.0824 13.0105 13.0663 12.9671 13.036L11.6776 12.098C11.6337 12.0664 11.5811 12.0494 11.5271 12.0494C11.4731 12.0494 11.4204 12.0664 11.3766 12.098L10.0871 13.036C10.0437 13.0663 9.99192 13.0824 9.93896 13.0821C9.886 13.0818 9.83444 13.065 9.79139 13.0342C9.74835 13.0033 9.71594 12.9599 9.69863 12.9098C9.68132 12.8598 9.67996 12.8056 9.69474 12.7547L10.1869 11.2402C10.2031 11.1889 10.2031 11.1339 10.1869 11.0827C10.1775 11.0396 10.1561 11.0001 10.1251 10.9688C10.7813 10.2938 11.4587 9.64549 12.1571 9.02393L12.2696 9.37127C12.2854 9.42422 12.3179 9.47065 12.3622 9.5036C12.4066 9.53655 12.4604 9.55426 12.5157 9.55408H14.109C14.1629 9.55467 14.2152 9.57216 14.2586 9.60408C14.302 9.63601 14.3344 9.68077 14.351 9.73204C14.3676 9.78331 14.3677 9.8385 14.3513 9.88983C14.3349 9.94117 14.3027 9.98605 14.2594 10.0181L12.9699 10.9533C12.9238 10.9844 12.8892 11.0299 12.8715 11.0827Z" fill="#DBDBDB"/>
<path d="M5.65445 22.1561C5.65089 22.1912 5.63973 22.2251 5.62177 22.2555C5.6038 22.2858 5.57944 22.3119 5.55039 22.3319L4.26086 23.2699C4.21831 23.3015 4.18655 23.3455 4.16994 23.3958C4.15333 23.4461 4.15267 23.5004 4.16805 23.5511L4.66023 25.0671C4.67595 25.1181 4.67524 25.1727 4.6582 25.2233C4.64116 25.2738 4.60866 25.3178 4.56529 25.3489C4.52191 25.38 4.46986 25.3966 4.41649 25.3965C4.36313 25.3964 4.31114 25.3796 4.26789 25.3483L2.97836 24.4131C2.93507 24.3803 2.88223 24.3625 2.82789 24.3625C2.77355 24.3625 2.72071 24.3803 2.67742 24.4131L1.66211 25.1514C1.98367 24.1277 2.3493 23.1264 2.75898 22.1477C2.93336 21.7258 3.11617 21.3124 3.30883 20.8989L3.56336 21.685C3.57994 21.7366 3.61239 21.7817 3.65607 21.8137C3.69976 21.8458 3.75245 21.8633 3.80664 21.8636H5.39992C5.43673 21.8634 5.47313 21.8712 5.50666 21.8864C5.54019 21.9015 5.57005 21.9238 5.59421 21.9515C5.61837 21.9793 5.63626 22.0119 5.64666 22.0473C5.65705 22.0826 5.65971 22.1197 5.65445 22.1561Z" fill="#DBDBDB"/>
<path d="M4.26105 35.3489C4.21818 35.3802 4.18617 35.4242 4.16953 35.4746C4.15289 35.525 4.15244 35.5794 4.16824 35.6301L4.66043 37.1475C4.67615 37.1985 4.67544 37.2531 4.6584 37.3037C4.64136 37.3543 4.60886 37.3982 4.56548 37.4293C4.52211 37.4604 4.47006 37.4771 4.41669 37.477C4.36332 37.4769 4.31134 37.46 4.26809 37.4287L2.97855 36.4936C2.935 36.4614 2.88226 36.444 2.82809 36.444C2.77392 36.444 2.72118 36.4614 2.67762 36.4936L1.38949 37.4343C1.34627 37.4662 1.29409 37.4835 1.24041 37.4839C1.18673 37.4843 1.13431 37.4677 1.09063 37.4365C1.04695 37.4053 1.01425 37.3611 0.997209 37.3102C0.980167 37.2593 0.979654 37.2043 0.995742 37.1531L1.48793 35.6357C1.50417 35.5851 1.50394 35.5306 1.48726 35.48C1.47059 35.4295 1.43833 35.3855 1.39512 35.3545L0.105586 34.4109C0.0785585 34.3917 0.0556144 34.3673 0.0380859 34.3392C0.0380859 34.2422 0.0465234 34.1451 0.0521484 34.0495C0.07554 34.0176 0.106309 33.9919 0.14182 33.9745C0.177332 33.9571 0.216529 33.9486 0.256055 33.9497H1.84934C1.90353 33.9493 1.95622 33.9318 1.9999 33.8998C2.04359 33.8677 2.07604 33.8227 2.09262 33.7711L2.2684 33.2311L2.5848 32.2565C2.60157 32.2052 2.63412 32.1605 2.67782 32.1288C2.72151 32.0971 2.77411 32.0801 2.82809 32.0801C2.88206 32.0801 2.93466 32.0971 2.97835 32.1288C3.02205 32.1605 3.0546 32.2052 3.07137 32.2565L3.38777 33.2311L3.56355 33.7711C3.58014 33.8227 3.61258 33.8677 3.65627 33.8998C3.69995 33.9318 3.75265 33.9493 3.80684 33.9497H5.40012C5.45415 33.9492 5.50692 33.966 5.55078 33.9976C5.59464 34.0292 5.62731 34.0739 5.64407 34.1252C5.66083 34.1766 5.66081 34.232 5.644 34.2833C5.62719 34.3347 5.59447 34.3794 5.55059 34.4109L4.26105 35.3489Z" fill="#DBDBDB"/>
<path d="M8.70312 34.2063C8.70332 34.1496 8.72154 34.0945 8.75516 34.0488C8.75516 34.1445 8.74531 34.2415 8.74109 34.3385C8.72832 34.3191 8.71882 34.2977 8.71297 34.2752C8.71297 34.2626 8.71297 34.2513 8.70594 34.2401C8.70424 34.2289 8.7033 34.2176 8.70312 34.2063Z" fill="white"/>
<path d="M11.7747 20.1797L12.2669 21.6956C12.2841 21.7477 12.3176 21.7929 12.3624 21.8246C12.4072 21.8562 12.461 21.8726 12.5158 21.8714H14.1091C14.1631 21.8715 14.2156 21.8886 14.2593 21.9204C14.3029 21.9521 14.3354 21.9968 14.3521 22.0482C14.3688 22.0995 14.3688 22.1548 14.3522 22.2061C14.3356 22.2574 14.3032 22.3022 14.2596 22.334L12.9701 23.2706C12.9272 23.3019 12.8952 23.3459 12.8785 23.3963C12.8619 23.4468 12.8614 23.5011 12.8772 23.5518L13.3596 25.072C13.3753 25.123 13.3746 25.1777 13.3576 25.2282C13.3405 25.2788 13.308 25.3227 13.2646 25.3538C13.2213 25.3849 13.1692 25.4016 13.1158 25.4015C13.0625 25.4014 13.0105 25.3845 12.9672 25.3533L11.6777 24.4167C11.6339 24.3851 11.5813 24.3681 11.5272 24.3681C11.4732 24.3681 11.4206 24.3851 11.3768 24.4167L10.0872 25.3533C10.044 25.3845 9.99201 25.4014 9.93864 25.4015C9.88527 25.4016 9.83322 25.3849 9.78985 25.3538C9.74647 25.3227 9.71397 25.2788 9.69693 25.2282C9.67989 25.1777 9.67918 25.123 9.6949 25.072L10.1871 23.5561C10.2029 23.5054 10.2024 23.451 10.1858 23.4006C10.1692 23.3501 10.1372 23.3062 10.0943 23.2748L8.80474 22.3383C8.76116 22.3064 8.72874 22.2617 8.71213 22.2103C8.69552 22.159 8.69557 22.1037 8.71226 22.0524C8.72895 22.0011 8.76143 21.9563 8.80506 21.9246C8.8487 21.8928 8.90125 21.8757 8.95521 21.8756H10.5471C10.601 21.8756 10.6535 21.8587 10.6972 21.8271C10.7409 21.7955 10.7735 21.751 10.7904 21.6998L11.2826 20.1839C11.2974 20.1303 11.3292 20.0829 11.3734 20.049C11.4175 20.0152 11.4714 19.9966 11.5271 19.9961C11.5827 19.9956 11.6369 20.0133 11.6816 20.0464C11.7263 20.0795 11.759 20.1263 11.7747 20.1797Z" fill="white"/>
<path d="M12.0124 20.9076C11.8197 21.3197 11.6369 21.7331 11.4625 22.155C11.0528 23.1347 10.6872 24.1354 10.3656 25.1573L10.0914 25.3542C10.0482 25.3854 9.99619 25.4023 9.94283 25.4024C9.88946 25.4025 9.83741 25.3859 9.79404 25.3548C9.75066 25.3237 9.71816 25.2797 9.70112 25.2292C9.68408 25.1786 9.68337 25.1239 9.69909 25.0729L10.1913 23.557C10.2071 23.5063 10.2066 23.4519 10.19 23.4015C10.1733 23.351 10.1413 23.3071 10.0985 23.2757L8.80893 22.3378C8.77988 22.3178 8.75552 22.2917 8.73756 22.2613C8.71959 22.231 8.70843 22.1971 8.70487 22.162C8.70133 22.1264 8.70528 22.0905 8.71647 22.0566C8.72765 22.0227 8.74581 21.9914 8.76979 21.9649C8.79376 21.9385 8.82302 21.9173 8.85568 21.9028C8.88834 21.8883 8.92367 21.8808 8.9594 21.8807H10.5471C10.6012 21.8804 10.6539 21.8629 10.6976 21.8309C10.7413 21.7988 10.7738 21.7537 10.7903 21.7022L11.2825 20.1862C11.2993 20.1349 11.3318 20.0902 11.3755 20.0585C11.4192 20.0268 11.4718 20.0098 11.5258 20.0098C11.5798 20.0098 11.6324 20.0268 11.6761 20.0585C11.7198 20.0902 11.7523 20.1349 11.7691 20.1862L12.0124 20.9076Z" fill="#DBDBDB"/>
<path d="M16.3208 14.093L16.813 15.6089C16.8298 15.6601 16.8624 15.7046 16.9061 15.7362C16.9498 15.7678 17.0023 15.7847 17.0562 15.7847H18.6495C18.7035 15.7848 18.756 15.8019 18.7997 15.8337C18.8433 15.8654 18.8758 15.9101 18.8925 15.9615C18.9092 16.0128 18.9092 16.068 18.8926 16.1194C18.876 16.1707 18.8436 16.2155 18.8 16.2473L17.5105 17.1839C17.4679 17.2155 17.4362 17.2595 17.4195 17.3098C17.4029 17.3602 17.4023 17.4144 17.4176 17.4651L17.9112 18.9839C17.9264 19.035 17.9252 19.0895 17.9079 19.1398C17.8905 19.1902 17.8579 19.2339 17.8146 19.2649C17.7713 19.2958 17.7194 19.3125 17.6661 19.3125C17.6128 19.3126 17.5609 19.296 17.5175 19.2651L16.228 18.3286C16.1844 18.2971 16.132 18.2802 16.0782 18.2802C16.0244 18.2802 15.972 18.2971 15.9284 18.3286L14.6389 19.2651C14.5955 19.296 14.5436 19.3126 14.4903 19.3125C14.437 19.3125 14.3851 19.2958 14.3418 19.2649C14.2984 19.2339 14.2658 19.1902 14.2485 19.1398C14.2312 19.0895 14.23 19.035 14.2451 18.9839L14.7373 17.468C14.7534 17.4173 14.753 17.3628 14.7364 17.3123C14.7197 17.2619 14.6876 17.2179 14.6445 17.1867L13.3592 16.2473C13.3162 16.216 13.284 16.1721 13.2672 16.1217C13.2503 16.0713 13.2495 16.0169 13.265 15.966C13.2804 15.9151 13.3114 15.8703 13.3534 15.8378C13.3955 15.8053 13.4467 15.7868 13.4998 15.7847H15.0931C15.148 15.7861 15.2019 15.7698 15.2468 15.7381C15.2916 15.7065 15.3251 15.6611 15.342 15.6089L15.8342 14.093C15.851 14.0416 15.8835 13.997 15.9272 13.9653C15.9709 13.9336 16.0235 13.9165 16.0775 13.9165C16.1315 13.9165 16.1841 13.9336 16.2278 13.9653C16.2715 13.997 16.304 14.0416 16.3208 14.093Z" fill="white"/>
<path d="M13.5 15.7852H14.9062C14.7178 16.0664 14.535 16.3392 14.355 16.6191L14.2003 16.8652L13.86 16.6191L13.3593 16.2492C13.3166 16.2177 13.2847 16.1736 13.268 16.1232C13.2512 16.0728 13.2505 16.0184 13.2659 15.9676C13.2813 15.9167 13.3121 15.8719 13.354 15.8392C13.3959 15.8066 13.4469 15.7877 13.5 15.7852Z" fill="#DBDBDB"/>
<path d="M20.869 7.86242L21.3612 9.37836C21.3779 9.42966 21.4104 9.47433 21.4541 9.50592C21.4979 9.53752 21.5505 9.5544 21.6045 9.55414H23.2034C23.2565 9.55622 23.3077 9.5748 23.3497 9.60729C23.3918 9.63978 23.4228 9.68458 23.4382 9.73545C23.4537 9.78633 23.4529 9.84075 23.436 9.89117C23.4191 9.94159 23.387 9.9855 23.344 10.0168L22.0545 10.9534C22.0114 10.9846 21.9793 11.0285 21.9626 11.079C21.946 11.1295 21.9456 11.1839 21.9616 11.2346L22.4538 12.7505C22.469 12.8016 22.4678 12.8561 22.4504 12.9065C22.4331 12.9568 22.4005 13.0006 22.3572 13.0315C22.3139 13.0625 22.2619 13.0791 22.2087 13.0792C22.1554 13.0792 22.1035 13.0627 22.0601 13.0318L20.772 12.0952C20.7281 12.0637 20.6755 12.0467 20.6215 12.0467C20.5675 12.0467 20.5148 12.0637 20.471 12.0952L19.1815 13.0318C19.1381 13.0627 19.0861 13.0792 19.0329 13.0792C18.9796 13.0791 18.9277 13.0625 18.8844 13.0315C18.841 13.0006 18.8084 12.9568 18.7911 12.9065C18.7738 12.8561 18.7726 12.8016 18.7877 12.7505L19.2813 11.2346C19.2967 11.1839 19.296 11.1296 19.2794 11.0793C19.2628 11.029 19.2311 10.985 19.1885 10.9534L17.899 10.0168C17.8554 9.98498 17.823 9.9402 17.8064 9.88886C17.7898 9.83752 17.7898 9.78224 17.8065 9.73092C17.8232 9.6796 17.8557 9.63488 17.8993 9.60313C17.9429 9.57138 17.9955 9.55423 18.0495 9.55414H19.6427C19.6966 9.55419 19.7492 9.53722 19.7928 9.50566C19.8365 9.47409 19.8691 9.42954 19.886 9.37836L20.3782 7.86242C20.3939 7.80951 20.4262 7.76308 20.4705 7.73006C20.5147 7.69704 20.5684 7.6792 20.6236 7.6792C20.6788 7.6792 20.7325 7.69704 20.7767 7.73006C20.8209 7.76308 20.8533 7.80951 20.869 7.86242Z" fill="white"/>
<path d="M21.1626 8.76536C21.0599 8.85114 20.9587 8.93973 20.8574 9.02973C20.2134 9.59926 19.5918 10.1941 18.9899 10.8072L17.9029 10.0183C17.8587 9.9867 17.8257 9.94184 17.8087 9.89023C17.7917 9.83862 17.7916 9.78294 17.8084 9.73126C17.8251 9.67957 17.8579 9.63456 17.902 9.60274C17.946 9.57092 17.999 9.55394 18.0534 9.55426H19.6466C19.7007 9.554 19.7532 9.53674 19.7969 9.50494C19.8405 9.47314 19.8731 9.42841 19.8899 9.37707L20.3821 7.86395C20.3989 7.81264 20.4314 7.76795 20.4751 7.73626C20.5188 7.70457 20.5714 7.6875 20.6254 7.6875C20.6794 7.6875 20.732 7.70457 20.7757 7.73626C20.8193 7.76795 20.8519 7.81264 20.8687 7.86395L21.1626 8.76536Z" fill="#DBDBDB"/>
<path d="M25.4154 2.30661L25.9076 3.82114C25.9245 3.87351 25.9578 3.91903 26.0027 3.95095C26.0475 3.98287 26.1014 3.99948 26.1565 3.99833H27.7497C27.8037 3.99842 27.8563 4.01557 27.8999 4.04732C27.9435 4.07906 27.976 4.12379 27.9927 4.17511C28.0094 4.22643 28.0094 4.28171 27.9928 4.33305C27.9762 4.38439 27.9438 4.42917 27.9002 4.46099L26.6107 5.39755C26.5678 5.42889 26.5358 5.47285 26.5192 5.52328C26.5025 5.57372 26.5021 5.6281 26.5179 5.6788L27.0002 7.19895C27.0159 7.24995 27.0152 7.30461 26.9982 7.35518C26.9811 7.40575 26.9486 7.44969 26.9053 7.48079C26.8619 7.51188 26.8098 7.52855 26.7565 7.52845C26.7031 7.52834 26.6511 7.51147 26.6079 7.4802L25.3183 6.54364C25.2745 6.51206 25.2219 6.49507 25.1679 6.49507C25.1139 6.49507 25.0612 6.51206 25.0174 6.54364L23.7279 7.4802C23.6846 7.51147 23.6326 7.52834 23.5793 7.52845C23.5259 7.52855 23.4738 7.51188 23.4305 7.48079C23.3871 7.44969 23.3546 7.40575 23.3376 7.35518C23.3205 7.30461 23.3198 7.24995 23.3355 7.19895L23.8277 5.68302C23.8435 5.63231 23.8431 5.57794 23.8264 5.5275C23.8098 5.47707 23.7778 5.4331 23.7349 5.40177L22.4454 4.4652C22.4018 4.43339 22.3694 4.38861 22.3528 4.33727C22.3361 4.28592 22.3362 4.23065 22.3529 4.17933C22.3696 4.12801 22.4021 4.08328 22.4457 4.05153C22.4893 4.01978 22.5419 4.00264 22.5958 4.00255H24.1877C24.2418 4.0025 24.2944 3.98532 24.3381 3.95349C24.3819 3.92166 24.4144 3.87681 24.431 3.82536L24.9232 2.31083C24.938 2.25721 24.9699 2.20988 25.014 2.176C25.0581 2.14212 25.1121 2.12353 25.1677 2.12306C25.2233 2.12258 25.2776 2.14024 25.3223 2.17336C25.367 2.20648 25.3996 2.25326 25.4154 2.30661Z" fill="white"/>
<path d="M27.9631 4.12309C27.8422 4.18497 27.7227 4.25106 27.6031 4.31434C26.8869 4.70153 26.1866 5.11168 25.5022 5.54481C24.7878 5.99293 24.0917 6.46731 23.4139 6.96793L23.8358 5.68403C23.8486 5.63803 23.8486 5.5894 23.8358 5.5434C23.822 5.48351 23.787 5.43059 23.7374 5.39434L22.4478 4.45778C22.4039 4.42625 22.3712 4.38158 22.3544 4.33022C22.3376 4.27886 22.3376 4.22349 22.3543 4.17211C22.3711 4.12074 22.4038 4.07603 22.4476 4.04447C22.4915 4.0129 22.5443 3.99611 22.5983 3.99653H24.1874C24.2413 3.99679 24.2939 3.97991 24.3377 3.94831C24.3814 3.91672 24.414 3.87205 24.4306 3.82075L24.9228 2.3034C24.9396 2.2521 24.9722 2.2074 25.0158 2.17571C25.0595 2.14402 25.1121 2.12695 25.1661 2.12695C25.2201 2.12695 25.2727 2.14402 25.3164 2.17571C25.3601 2.2074 25.3926 2.2521 25.4094 2.3034L25.9016 3.82075C25.9186 3.8742 25.9527 3.92054 25.9987 3.95258C26.0448 3.98462 26.1001 4.00057 26.1561 3.99793H27.7494C27.7929 3.99832 27.8354 4.01008 27.8729 4.03204C27.9104 4.05399 27.9415 4.08539 27.9631 4.12309Z" fill="#DBDBDB"/>
<path d="M67.6844 38.276C68.9488 38.276 69.9738 37.251 69.9738 35.9866C69.9738 34.7223 68.9488 33.6973 67.6844 33.6973C66.42 33.6973 65.395 34.7223 65.395 35.9866C65.395 37.251 66.42 38.276 67.6844 38.276Z" fill="#E54141"/>
<path d="M62.9158 37.608C63.8113 37.608 64.5372 36.8821 64.5372 35.9866C64.5372 35.0912 63.8113 34.3652 62.9158 34.3652C62.0204 34.3652 61.2944 35.0912 61.2944 35.9866C61.2944 36.8821 62.0204 37.608 62.9158 37.608Z" fill="#E54141"/>
</svg>
