<svg width="86" height="86" viewBox="0 0 86 86" fill="none" xmlns="http://www.w3.org/2000/svg">
<g clip-path="url(#clip0_845_5006)">
<path d="M40.4099 0H46.0604C47.038 0.233477 48.0458 0.246914 49.0351 0.401445C55.1458 1.2648 61.0734 3.44672 66.2519 6.80945C74.2506 11.9191 80.447 19.7649 83.5964 28.7159C82.7196 28.6303 81.8394 28.6588 80.9609 28.6622C55.7102 28.6639 30.4578 28.6521 5.20702 28.6571C4.27312 28.6605 3.33753 28.6185 2.40698 28.7143C5.47745 19.9933 11.4319 12.3171 19.1417 7.20754C25.1684 3.15445 32.2534 0.69707 39.4911 0.124297C39.7968 0.0856641 40.1025 0.0386328 40.4099 0Z" fill="#2B2B2B"/>
<path d="M0 45.6875C0.218359 45.8269 0.332578 46.1343 0.129336 46.3426L0 46.2939V45.6875Z" fill="#121212"/>
<path d="M2.09119 56.3203C2.09623 56.3354 2.10798 56.3673 2.11302 56.3825C2.10798 56.3673 2.09623 56.3354 2.09119 56.3203Z" fill="#121212"/>
<path d="M2.40699 28.7158C3.33754 28.62 4.27313 28.662 5.20703 28.6587C30.4578 28.6536 55.7102 28.6654 80.9609 28.6637C81.8394 28.6604 82.7196 28.6318 83.5964 28.7175C84.6025 31.6569 85.3449 34.6938 85.701 37.7827C85.8169 38.6041 85.8253 39.4406 86 40.2536V45.7461C85.8975 46.2853 85.832 46.8295 85.7951 47.3771C85.4692 50.6962 84.7386 53.9732 83.6417 57.121C74.2943 57.1411 64.9451 57.1395 55.5977 57.1176C37.8518 57.1227 20.1075 57.1075 2.36164 57.1243C2.27598 56.8791 2.19535 56.6322 2.11305 56.3853C2.10801 56.3701 2.09625 56.3382 2.09121 56.3231C1.04477 53.0914 0.347695 49.7371 0.129336 46.3441C0.332578 46.1358 0.218359 45.8284 0 45.689V40.2603C0.174687 39.4389 0.184766 38.5974 0.302344 37.7676C0.658437 34.6837 1.40254 31.6519 2.40699 28.7158Z" fill="#D92527"/>
<path d="M77.1631 69.1413C77.1715 69.1313 77.19 69.1077 77.1984 69.0977C77.19 69.1077 77.1715 69.1313 77.1631 69.1413Z" fill="#D92527"/>
<path d="M76.493 69.9884C76.5014 69.9767 76.5215 69.9532 76.5316 69.9414C76.5215 69.9532 76.5014 69.9767 76.493 69.9884Z" fill="#D92527"/>
<path d="M75.6531 70.9979C75.6632 70.9845 75.6834 70.961 75.6951 70.9492C75.6834 70.961 75.6632 70.9845 75.6531 70.9979Z" fill="#D92527"/>
<path d="M69.9405 76.533C69.9506 76.5246 69.9741 76.5062 69.9858 76.4961C69.9741 76.5062 69.9506 76.5246 69.9405 76.533Z" fill="#D92527"/>
<path d="M68.4187 77.7049C68.4321 77.6965 68.4573 77.678 68.4708 77.668C68.4573 77.678 68.4321 77.6965 68.4187 77.7049Z" fill="#D92527"/>
<path d="M57.3294 83.5687C57.3462 83.5636 57.3764 83.5519 57.3932 83.5469C57.3764 83.5519 57.3462 83.5636 57.3294 83.5687Z" fill="#D92527"/>
<path d="M54.6436 84.4152C54.6587 84.4119 54.6906 84.4018 54.7058 84.3984C54.6906 84.4018 54.6587 84.4119 54.6436 84.4152Z" fill="#D92527"/>
<path d="M45.6824 86.0017C45.8168 85.7833 46.1225 85.6607 46.3274 85.869L46.2804 86.0017H45.6824Z" fill="#D92527"/>
<path d="M2.36163 57.1215C20.1075 57.1047 37.8517 57.1198 55.5976 57.1147C64.9451 57.1366 74.2943 57.1383 83.6417 57.1181C82.1518 61.4198 79.9598 65.4762 77.1984 69.0943C77.19 69.1043 77.1716 69.1279 77.1632 69.1379C76.9532 69.405 76.7416 69.6704 76.5316 69.9375C76.5215 69.9492 76.5014 69.9727 76.493 69.9845C76.2343 70.3104 75.9672 70.6295 75.6951 70.9453C75.6833 70.957 75.6632 70.9806 75.6531 70.994C73.9466 73.0046 72.0368 74.8388 69.9859 76.4933C69.9741 76.5034 69.9506 76.5218 69.9405 76.5302C69.4601 76.9216 68.9713 77.3012 68.4708 77.664C68.4573 77.6741 68.4321 77.6926 68.4187 77.701C65.0543 80.1718 61.3271 82.1505 57.3932 83.5446C57.3764 83.5497 57.3462 83.5614 57.3294 83.5665C56.4644 83.8738 55.5926 84.1594 54.7057 84.3962C54.6906 84.3996 54.6587 84.4097 54.6436 84.413C51.9309 85.1739 49.1409 85.698 46.3275 85.8659C46.1225 85.6577 45.8168 85.7803 45.6825 85.9986H40.42C38.7957 85.7685 37.153 85.6879 35.5422 85.3721C29.6952 84.3542 24.0699 82.0934 19.14 78.7928C11.395 73.6429 5.39347 65.918 2.36163 57.1215Z" fill="#F7CE27"/>
</g>
<defs>
<clipPath id="clip0_845_5006">
<rect width="86" height="86" fill="white"/>
</clipPath>
</defs>
</svg>
