<svg width="56" height="36" viewBox="0 0 56 36" fill="none" xmlns="http://www.w3.org/2000/svg">
<path d="M18.0651 8.32092H3.63612C3.19215 8.32092 2.87305 7.96019 2.87305 7.55785V3.54827C2.87305 3.1043 3.23377 2.7852 3.63612 2.7852C9.10246 2.7852 14.5966 2.7852 20.0629 2.7852C20.604 2.7852 20.9786 2.67421 21.3393 2.20249C22.3244 0.856719 23.7395 0.0936493 25.4183 0.0520274C28.9561 -0.0173425 32.4801 -0.0173425 36.018 0.0520274C38.6818 0.0936493 40.9016 1.73078 41.304 4.20035C41.6647 6.42018 41.5537 8.72326 41.6647 11.0541H16.6777C17.1494 10.0968 17.5933 9.26435 18.0651 8.32092Z" fill="#E32929"/>
<path d="M0.90288 19.2814C1.99892 17.9356 3.30308 16.7286 4.6211 15.6048C6.0085 14.37 7.68725 13.815 9.61574 13.8567C15.6648 13.926 21.7138 13.8983 27.7213 13.8983C33.701 13.8983 39.639 13.9677 45.6048 13.8567C47.7553 13.815 49.545 14.3978 51.0989 15.7851C52.1533 16.7008 53.2078 17.6859 54.1234 18.6987C55.8299 20.5994 55.6912 23.8043 54.2344 25.4692C52.2366 27.7584 50.3359 30.1725 48.449 32.5727C46.5899 34.9035 44.2174 36.0273 41.2345 35.9995C38.21 35.9579 35.2271 35.9995 32.2026 35.9995C25.9315 35.9995 19.7021 35.9995 13.445 35.9579C10.8921 35.9163 8.7833 34.7925 7.17392 32.7946C5.20381 30.3528 3.27533 27.8833 1.23586 25.5108C-0.373526 23.6517 -0.331904 20.8075 0.90288 19.2814ZM6.14724 22.847C7.82599 24.8865 9.53249 26.8843 11.1419 28.9654C11.9743 30.0615 13.0426 30.4916 14.3884 30.4916C21.3809 30.4916 28.3733 30.4916 35.3658 30.4916C37.2666 30.4916 39.1534 30.4916 41.0542 30.4916C42.3306 30.4916 43.3434 30.0476 44.1481 29.0348C45.9378 26.7733 47.7969 24.5951 49.7254 22.2227H43.7457C44.5504 22.847 45.0637 23.7904 45.0637 24.8865C45.0637 26.7456 43.5654 28.244 41.7062 28.244C39.8471 28.244 38.3487 26.7456 38.3487 24.8865C38.3487 23.8321 38.8621 22.847 39.6251 22.2227H37.2943V22.1811H34.3114C35.1161 22.8054 35.6294 23.7488 35.6294 24.8449C35.6294 26.704 34.1311 28.2024 32.2719 28.2024C30.4128 28.2024 28.9144 26.704 28.9144 24.8449C28.9144 23.7488 29.4278 22.8054 30.2325 22.1811H25.5014C26.3061 22.8054 26.8195 23.7488 26.8195 24.8449C26.8195 26.704 25.3211 28.2024 23.462 28.2024C21.6029 28.2024 20.1045 26.704 20.1045 24.8449C20.1045 23.7488 20.6178 22.8054 21.4225 22.1811H16.4001C17.2048 22.8054 17.7181 23.7488 17.7181 24.8449C17.7181 26.704 16.2197 28.2024 14.3606 28.2024C12.5015 28.2024 11.0031 26.704 11.0031 24.8449C11.0031 23.7488 11.5165 22.8054 12.3212 22.1811H11.2667V22.2227H5.85589C5.89751 22.4863 6.0085 22.6666 6.14724 22.847Z" fill="#E32929"/>
</svg>
