<svg width="55" height="42" viewBox="0 0 55 42" fill="none" xmlns="http://www.w3.org/2000/svg">
<path d="M32.2098 22.7147C32.1642 21.9303 31.9273 20.6702 30.9866 19.4927C29.9915 18.2456 28.475 17.4221 26.4849 17.018C26.2589 16.753 25.9244 16.5835 25.5485 16.5835H24.2427C23.5584 16.5835 23 17.1397 23 17.8284C23 18.5171 23.5562 19.0712 24.2427 19.0712H25.5485C25.8527 19.0712 26.1264 18.9582 26.3415 18.7779C27.8037 19.1037 28.8965 19.7012 29.5983 20.5638C30.2327 21.3459 30.413 22.1845 30.4586 22.7168H30.4087C30.4087 28.1593 35.8012 32.5741 42.4559 32.5741C49.1085 32.5741 54.501 28.1615 54.501 22.7168C54.501 22.7168 32.2098 22.7168 32.2098 22.7147Z" fill="white"/>
<path d="M37.7087 33.0088C35.8163 33.0088 34.2781 34.547 34.2781 36.4394C34.2781 38.3317 35.8163 39.87 37.7087 39.87C39.601 39.87 41.1393 38.3317 41.1393 36.4394C41.1393 34.547 39.601 33.0088 37.7087 33.0088ZM37.7087 38.1188C36.7831 38.1188 36.0292 37.3649 36.0292 36.4415C36.0292 35.5182 36.7831 34.7621 37.7087 34.7621C38.6342 34.7621 39.3881 35.5182 39.3881 36.4415C39.3881 37.3649 38.6342 38.1188 37.7087 38.1188Z" fill="white"/>
<path d="M46.9625 33.0088C45.0702 33.0088 43.5298 34.547 43.5298 36.4394C43.5298 38.3317 45.0702 39.87 46.9625 39.87C48.8527 39.87 50.3931 38.3317 50.3931 36.4394C50.3931 34.547 48.8527 33.0088 46.9625 33.0088ZM46.9625 38.1188C46.0348 38.1188 45.2831 37.3649 45.2831 36.4415C45.2831 35.5182 46.037 34.7621 46.9625 34.7621C47.8881 34.7621 48.6398 35.5182 48.6398 36.4415C48.6398 37.3649 47.8881 38.1188 46.9625 38.1188Z" fill="white"/>
<path d="M54.4271 21.2939C54.4271 15.6082 49.934 11 44.3873 11C43.779 11 43.1815 11.0543 42.6036 11.1629C42.2625 11.226 41.9257 11.3129 41.5977 11.4106L44.3873 21.2961L54.4271 21.2939Z" fill="white"/>
<path d="M9.69665 10.7058C7.07293 10.7058 4.94897 8.58183 4.94897 5.95812C4.94897 3.33441 7.07293 1.21045 9.69665 1.21045C12.3204 1.21045 14.4443 3.33441 14.4443 5.95812C14.4443 8.6443 12.3204 10.7058 9.69665 10.7058Z" fill="white"/>
<path d="M7.26052 41.3783C6.19854 41.3783 5.32397 40.5037 5.32397 39.4417V27.1978H9.25954V39.3793C9.25954 40.5037 8.38497 41.3783 7.26052 41.3783Z" fill="white"/>
<path d="M12.1956 41.3783C11.1336 41.3783 10.259 40.5037 10.259 39.4417V27.1978H14.1321V39.3793C14.1321 40.5037 13.2576 41.3783 12.1956 41.3783Z" fill="white"/>
<path d="M19.442 23.0121L17.1307 15.6407C16.5684 13.3293 14.507 11.7676 12.1331 11.7676H7.38545C5.01161 11.7676 2.95012 13.3293 2.32543 15.6407L0.0765343 23.0121C-0.173343 23.8242 0.201473 24.6987 1.01357 25.0736C1.20098 25.136 1.38839 25.1985 1.5758 25.1985C2.32543 25.1985 2.95013 24.6987 3.13753 24.0116L5.38643 16.8901C5.4489 16.6402 5.63631 16.4528 5.88618 16.4528C6.13606 16.4528 6.32347 16.7651 6.13606 17.4523C5.69878 19.3264 3.57482 27.7597 3.26247 29.0091C3.2 29.1341 3.26247 29.3215 3.38741 29.4464C3.44988 29.5713 3.63729 29.6338 3.76223 29.6338H15.8813C16.0062 29.6338 16.1312 29.5713 16.2561 29.4464C16.381 29.3215 16.381 29.1965 16.381 29.0091C16.1312 27.7597 13.9447 19.3264 13.5074 17.4523C13.32 16.7651 13.5074 16.4528 13.7573 16.4528C14.0072 16.4528 14.1946 16.6402 14.2571 16.8901L16.4435 23.9491C16.6309 24.6363 17.2556 25.136 18.0052 25.136C18.1926 25.136 18.3801 25.0735 18.5675 25.0111C19.3171 24.6987 19.6919 23.8242 19.442 23.0121Z" fill="white"/>
<path d="M16.6309 0.773259C17.2556 1.46042 17.5679 2.39746 17.5679 3.3345C17.5679 4.95871 17.8803 5.70834 18.1302 5.95822C18.1926 6.02069 18.1302 6.08315 18.1302 6.14562H18.0677C15.0692 6.33303 14.0072 4.64636 13.5699 4.08414C12.6953 3.1471 12.6329 1.77277 13.3825 0.710791C14.2571 -0.226249 15.6939 -0.22625 16.5684 0.648322C16.5684 0.710791 16.5684 0.71079 16.6309 0.773259Z" fill="white"/>
<path d="M2.82537 0.773259C2.20068 1.46042 1.88833 2.39746 1.88833 3.3345C1.88833 4.95871 1.57598 5.70834 1.3261 5.95822C1.26363 6.02069 1.3261 6.08315 1.3261 6.14562H1.38857C4.3871 6.33303 5.44908 4.64636 5.88637 4.08414C6.82341 2.89722 6.76094 1.46042 6.07377 0.710791C5.1992 -0.226249 3.76241 -0.22625 2.88784 0.648322C2.88784 0.710791 2.82537 0.71079 2.82537 0.773259Z" fill="white"/>
</svg>
