<svg width="86" height="86" viewBox="0 0 86 86" fill="none" xmlns="http://www.w3.org/2000/svg">
<g clip-path="url(#clip0_29_446)">
<path d="M43 86C66.7482 86 86 66.7482 86 43C86 19.2518 66.7482 0 43 0C19.2518 0 0 19.2518 0 43C0 66.7482 19.2518 86 43 86Z" fill="#6FC2E5"/>
<path d="M86 42.9854V43.0005C86 66.7479 66.7474 86.0005 43 86.0005C31.5957 86.0005 20.6585 81.4701 12.5944 73.4061C4.53034 65.342 0 54.4048 0 43.0005V42.9854H86Z" fill="#F6C752"/>
<path d="M86 42.9849V43H0V42.9849C0.00400841 31.5832 4.53612 20.6499 12.5998 12.5891C20.6634 4.52827 31.5983 -7.04603e-07 43 0C66.7424 0 86 19.2425 86 42.9849Z" fill="#3586CB"/>
<path d="M48.3347 85.6645C42.2849 86.4209 36.1434 85.8821 30.3177 84.0839C24.492 82.2857 19.1153 79.2692 14.5443 75.2345C9.97339 71.1998 6.3127 66.2392 3.80515 60.6819C1.2976 55.1245 0.000529853 49.0974 0 43.0005L0 42.9854H10.6744V43.0005C10.6752 53.4795 14.5025 63.5975 21.4372 71.4537C28.3719 79.3098 37.9368 84.3632 48.3347 85.6645Z" fill="#F7BB38"/>
<path d="M48.3347 0.33615C37.9348 1.63258 28.367 6.6846 21.4313 14.5418C14.4956 22.399 10.6701 32.5198 10.6744 43.0002H0V42.9851C0.00617367 36.8905 1.30717 30.8668 3.81681 25.313C6.32646 19.7591 9.98747 14.8018 14.5574 10.7695C19.1273 6.73717 24.5018 3.72181 30.3249 1.92313C36.148 0.124453 42.2868 -0.416483 48.3347 0.33615Z" fill="#366FCA"/>
<path d="M74.3161 65.0042C75.8263 65.0042 77.0506 63.7799 77.0506 62.2697C77.0506 60.7594 75.8263 59.5352 74.3161 59.5352C72.8058 59.5352 71.5815 60.7594 71.5815 62.2697C71.5815 63.7799 72.8058 65.0042 74.3161 65.0042Z" fill="#F6D372"/>
<path d="M78.3439 60.178C79.4135 60.178 80.2806 59.311 80.2806 58.2414C80.2806 57.1718 79.4135 56.3047 78.3439 56.3047C77.2743 56.3047 76.4072 57.1718 76.4072 58.2414C76.4072 59.311 77.2743 60.178 78.3439 60.178Z" fill="#F6D372"/>
</g>
<defs>
<clipPath id="clip0_29_446">
<rect width="86" height="86" fill="white"/>
</clipPath>
</defs>
</svg>
