<svg width="56" height="36" viewBox="0 0 56 36" fill="none" xmlns="http://www.w3.org/2000/svg">
<path d="M37.3003 8.32092H51.7292C52.1732 8.32092 52.4923 7.96019 52.4923 7.55785V3.54827C52.4923 3.1043 52.1316 2.7852 51.7292 2.7852C46.2629 2.7852 40.7688 2.7852 35.3025 2.7852C34.7614 2.7852 34.3868 2.67421 34.0261 2.20249C33.041 0.856719 31.6259 0.0936493 29.9471 0.0520274C26.4092 -0.0173425 22.8853 -0.0173425 19.3474 0.0520274C16.6836 0.0936493 14.4638 1.73078 14.0614 4.20035C13.7007 6.42018 13.8117 8.72326 13.7007 11.0541H38.6877C38.216 10.0968 37.772 9.26435 37.3003 8.32092Z" fill="#3A75C5"/>
<path d="M54.4623 19.2814C53.3663 17.9356 52.0621 16.7286 50.7441 15.6048C49.3567 14.37 47.6779 13.815 45.7495 13.8567C39.7004 13.926 33.6513 13.8983 27.6439 13.8983C21.6642 13.8983 15.7262 13.9677 9.76036 13.8567C7.6099 13.815 5.82015 14.3978 4.26627 15.7851C3.21185 16.7008 2.15743 17.6859 1.24174 18.6987C-0.464755 20.5994 -0.326016 23.8043 1.13075 25.4692C3.1286 27.7584 5.02934 30.1725 6.9162 32.5727C8.77531 34.9035 11.1478 36.0273 14.1307 35.9995C17.1552 35.9579 20.1381 35.9995 23.1626 35.9995C29.4337 35.9995 35.6631 35.9995 41.9202 35.9579C44.4731 35.9163 46.5819 34.7925 48.1913 32.7946C50.1614 30.3528 52.0899 27.8833 54.1293 25.5108C55.7387 23.6517 55.6971 20.8075 54.4623 19.2814ZM49.218 22.847C47.5392 24.8865 45.8327 26.8843 44.2233 28.9654C43.3909 30.0615 42.3226 30.4916 40.9768 30.4916C33.9843 30.4916 26.9918 30.4916 19.9994 30.4916C18.0986 30.4916 16.2118 30.4916 14.311 30.4916C13.0346 30.4916 12.0218 30.0476 11.2171 29.0348C9.42739 26.7733 7.56828 24.5951 5.63979 22.2227H11.6195C10.8148 22.847 10.3014 23.7904 10.3014 24.8865C10.3014 26.7456 11.7998 28.244 13.659 28.244C15.5181 28.244 17.0165 26.7456 17.0165 24.8865C17.0165 23.8321 16.5031 22.847 15.74 22.2227H18.0709V22.1811H21.0538C20.2491 22.8054 19.7358 23.7488 19.7358 24.8449C19.7358 26.704 21.2341 28.2024 23.0933 28.2024C24.9524 28.2024 26.4508 26.704 26.4508 24.8449C26.4508 23.7488 25.9374 22.8054 25.1327 22.1811H29.8638C29.0591 22.8054 28.5457 23.7488 28.5457 24.8449C28.5457 26.704 30.0441 28.2024 31.9032 28.2024C33.7623 28.2024 35.2607 26.704 35.2607 24.8449C35.2607 23.7488 34.7474 22.8054 33.9427 22.1811H38.9651C38.1604 22.8054 37.6471 23.7488 37.6471 24.8449C37.6471 26.704 39.1454 28.2024 41.0046 28.2024C42.8637 28.2024 44.3621 26.704 44.3621 24.8449C44.3621 23.7488 43.8487 22.8054 43.044 22.1811H44.0985V22.2227H49.4954C49.4677 22.4863 49.3567 22.6666 49.218 22.847Z" fill="#F9DD18"/>
</svg>
