<svg width="86" height="86" viewBox="0 0 86 86" fill="none" xmlns="http://www.w3.org/2000/svg">
<path d="M43 86C66.7482 86 86 66.7482 86 43C86 19.2518 66.7482 0 43 0C19.2518 0 0 19.2518 0 43C0 66.7482 19.2518 86 43 86Z" fill="#6FC2E5"/>
<path d="M86 42.9844V42.9995C86 66.7469 66.7474 85.9995 43 85.9995C31.5957 85.9995 20.6585 81.4692 12.5944 73.4051C4.53034 65.341 0 54.4038 0 42.9995V42.9844H86Z" fill="#F6C752"/>
<path d="M86 42.9849V43H0V42.9849C0.00400841 31.5832 4.53612 20.6499 12.5998 12.5891C20.6634 4.52827 31.5983 -7.04603e-07 43 0C66.7424 0 86 19.2425 86 42.9849Z" fill="#3586CB"/>
<path d="M48.3347 85.6636C42.2849 86.4199 36.1434 85.8812 30.3177 84.083C24.492 82.2848 19.1153 79.2682 14.5443 75.2335C9.97339 71.1989 6.3127 66.2383 3.80515 60.6809C1.2976 55.1235 0.000529853 49.0964 0 42.9995L0 42.9844H10.6744V42.9995C10.6752 53.4785 14.5025 63.5966 21.4372 71.4527C28.3719 79.3088 37.9368 84.3623 48.3347 85.6636Z" fill="#F7BB38"/>
<path d="M48.3347 0.337126C37.9348 1.63356 28.367 6.68558 21.4313 14.5428C14.4956 22.4 10.6701 32.5208 10.6744 43.0012H0V42.9861C0.00617367 36.8915 1.30717 30.8678 3.81681 25.3139C6.32646 19.7601 9.98747 14.8028 14.5574 10.7705C19.1273 6.73815 24.5018 3.72278 30.3249 1.92411C36.148 0.125429 42.2868 -0.415506 48.3347 0.337126Z" fill="#366FCA"/>
<path d="M74.3166 65.0042C75.8268 65.0042 77.0511 63.7799 77.0511 62.2697C77.0511 60.7594 75.8268 59.5352 74.3166 59.5352C72.8063 59.5352 71.582 60.7594 71.582 62.2697C71.582 63.7799 72.8063 65.0042 74.3166 65.0042Z" fill="#F6D372"/>
<path d="M78.3449 60.178C79.4145 60.178 80.2816 59.311 80.2816 58.2414C80.2816 57.1718 79.4145 56.3047 78.3449 56.3047C77.2753 56.3047 76.4082 57.1718 76.4082 58.2414C76.4082 59.311 77.2753 60.178 78.3449 60.178Z" fill="#F6D372"/>
</svg>
