<svg width="186" height="186" viewBox="0 0 186 186" fill="none" xmlns="http://www.w3.org/2000/svg">
<g filter="url(#filter0_d_513_984)">
<rect x="33" y="23" width="120" height="120" rx="60" fill="white"/>
</g>
<path d="M136.621 55.8546C136.963 55.7695 137.31 55.6822 137.655 55.595C137.856 56.0067 138.073 56.4095 138.29 56.8123C137.968 56.64 137.644 56.4677 137.324 56.2954C137.116 56.5863 136.908 56.8772 136.699 57.1704C136.673 56.7318 136.65 56.2932 136.621 55.8546Z" fill="#FEFEFE"/>
<path d="M131.094 57.4118C131.425 57.32 131.758 57.2283 132.092 57.1343C132.298 57.4834 132.506 57.8325 132.714 58.1816C132.383 58.0182 132.054 57.8548 131.725 57.6892C131.51 57.9779 131.293 58.2644 131.078 58.5508C131.083 58.1704 131.087 57.7922 131.094 57.4118Z" fill="#FEFEFE"/>
<path d="M107.597 57.803C107.691 57.8231 107.882 57.8656 107.978 57.8858C107.94 57.9775 107.864 58.161 107.826 58.2528C107.539 58.5974 107.468 57.973 107.597 57.803Z" fill="#FEFEFE"/>
<path d="M134.633 57.4409C134.823 57.7609 135.009 58.0832 135.197 58.4054C135.533 58.3226 135.868 58.2398 136.206 58.1548C135.98 58.4434 135.757 58.7321 135.533 59.0185C135.732 59.3408 135.929 59.6653 136.121 59.9942C135.797 59.8488 135.479 59.6988 135.161 59.5489C134.933 59.8398 134.707 60.133 134.474 60.4194C134.503 60.0323 134.535 59.6474 134.568 59.2625C134.244 59.126 133.922 58.9895 133.602 58.8552C133.935 58.7455 134.268 58.6381 134.604 58.5307C134.611 58.166 134.62 57.8034 134.633 57.4409Z" fill="#FEFEFE"/>
<path d="M111.328 58.6631C111.684 58.7481 112.039 58.8399 112.393 58.9361C112.321 59.0346 112.176 59.2292 112.104 59.3277C112.301 59.6567 112.498 59.9834 112.697 60.3123C112.366 60.1579 112.037 60.0057 111.706 59.8536C111.491 60.14 111.279 60.4265 111.064 60.7129C111.086 60.3347 111.115 59.9588 111.142 59.5806C110.813 59.4262 110.482 59.274 110.148 59.1263C110.551 59.001 110.963 58.8869 111.328 58.6631Z" fill="#FEFEFE"/>
<path d="M125.659 58.9274C125.983 58.8535 126.308 58.7842 126.639 58.7305L126.811 58.7752C126.948 59.0236 127.082 59.272 127.218 59.5226C126.889 59.3615 126.565 59.2004 126.24 59.0348C126.026 59.3347 125.809 59.6345 125.594 59.9322C125.609 59.6815 125.643 59.178 125.659 58.9274Z" fill="#FEFEFE"/>
<path d="M82.9524 64.6784C90.5004 62.7695 98.0641 60.9167 105.608 58.9922C105.923 60.2565 106.236 61.5186 106.554 62.7807C97.2921 65.1326 88.012 67.4129 78.7454 69.7536C78.5306 68.2857 79.1393 66.6677 80.4528 65.9024C81.2674 65.4638 82.0909 65.0207 82.9524 64.6784Z" fill="#FEFEFE"/>
<path d="M129.077 58.8108C129.277 59.1353 129.469 59.4642 129.661 59.7909C129.914 59.7283 130.422 59.5985 130.675 59.5358C130.449 59.8267 130.232 60.1221 130.01 60.4153C130.21 60.7398 130.407 61.0665 130.601 61.3954C130.279 61.241 129.957 61.0866 129.637 60.9322C129.413 61.2186 129.191 61.5051 128.972 61.7915C128.997 61.42 129.026 61.0463 129.055 60.6726C128.722 60.5137 128.386 60.3571 128.055 60.1982C128.388 60.1132 128.726 60.0304 129.062 59.9453C129.064 59.5672 129.068 59.189 129.077 58.8108Z" fill="#FEFEFE"/>
<path d="M138.068 59.4932C138.285 59.8221 138.496 60.1533 138.708 60.4845C139.031 60.3995 139.353 60.3189 139.68 60.2406C139.463 60.5449 139.245 60.8493 139.037 61.1581C139.241 61.4602 139.445 61.7645 139.644 62.0711C139.292 61.9256 138.95 61.7779 138.601 61.637C138.413 61.9189 138.225 62.1986 138.033 62.4739C138.021 62.0845 138.021 61.6974 138.019 61.308C137.695 61.167 137.375 61.0238 137.055 60.8783C137.395 60.8023 137.739 60.7239 138.082 60.6411C138.075 60.2585 138.071 59.8758 138.068 59.4932Z" fill="#FEFEFE"/>
<path d="M114.536 59.7209C114.722 60.0298 114.899 60.343 115.075 60.6586C115.411 60.5825 115.747 60.5064 116.082 60.4303C115.861 60.7145 115.644 60.9987 115.429 61.2851C115.628 61.6052 115.823 61.9274 116.018 62.2519C115.691 62.1087 115.371 61.961 115.049 61.8155C114.832 62.0997 114.612 62.3817 114.388 62.6614C114.415 62.2832 114.444 61.9072 114.478 61.5291C114.147 61.3926 113.816 61.2583 113.484 61.1263C113.825 61.0099 114.167 60.898 114.509 60.7861C114.514 60.4303 114.523 60.0745 114.536 59.7209Z" fill="#FEFEFE"/>
<path d="M120.056 61.1737C119.843 60.4352 120.721 60.3524 121.222 60.198C121.349 60.4285 121.477 60.6567 121.605 60.8872C121.285 60.7373 120.965 60.5874 120.647 60.4374C120.452 60.6836 120.255 60.9297 120.056 61.1737Z" fill="#FEFEFE"/>
<path d="M123.528 60.2002C123.736 60.5224 123.938 60.8491 124.141 61.1759C124.473 61.0931 124.804 61.0147 125.137 60.9387C124.918 61.2184 124.696 61.4959 124.475 61.7733C124.672 62.1068 124.871 62.438 125.072 62.7714C124.73 62.617 124.394 62.4626 124.054 62.3149C123.866 62.5946 123.678 62.8766 123.484 63.1518C123.472 62.7736 123.47 62.3977 123.468 62.0195C123.139 61.8629 122.814 61.6973 122.492 61.5272C122.817 61.4824 123.143 61.4354 123.47 61.3907C123.495 60.9946 123.508 60.5985 123.528 60.2002Z" fill="#FEFEFE"/>
<path d="M109.016 61.0303C109.224 61.3548 109.423 61.6859 109.622 62.0149C109.954 61.9299 110.283 61.8471 110.614 61.7643C110.401 62.0574 110.182 62.3506 109.967 62.6459C110.162 62.9592 110.356 63.2725 110.551 63.588C110.204 63.4538 109.86 63.3128 109.513 63.1852C109.323 63.465 109.132 63.7447 108.94 64.0244C108.938 63.635 108.942 63.2457 108.951 62.8563C108.629 62.7176 108.307 62.5811 107.984 62.4468C108.325 62.3528 108.665 62.2566 109.003 62.1581C109.005 61.7822 109.009 61.4062 109.016 61.0303Z" fill="#FEFEFE"/>
<path d="M132.488 60.8853C132.698 61.2142 132.904 61.5476 133.114 61.8788C133.434 61.7826 133.756 61.6953 134.081 61.6148C133.868 61.9057 133.651 62.1944 133.439 62.4853C133.642 62.8209 133.844 63.1588 134.043 63.499C133.718 63.3244 133.394 63.1544 133.074 62.9776C132.857 63.264 132.642 63.5527 132.425 63.8369C132.42 63.4632 132.423 63.0895 132.425 62.7158C132.1 62.5524 131.78 62.3823 131.465 62.2078C131.767 62.1742 132.069 62.1295 132.371 62.0735C132.559 61.7155 132.434 61.2746 132.488 60.8853Z" fill="#FEFEFE"/>
<path d="M118.004 61.6321C118.259 61.9901 118.503 62.3638 118.826 62.6682L118.924 62.7689C119.034 63.2052 119.161 63.6349 119.28 64.069C119.049 63.9325 118.819 63.7982 118.586 63.6685C118.356 63.9683 118.125 64.2682 117.892 64.568C117.901 64.1787 117.917 63.7893 117.928 63.3999C117.606 63.2455 117.288 63.0866 116.973 62.9255C117.308 62.8673 117.644 62.8091 117.982 62.7532C117.991 62.3795 117.998 62.0058 118.004 61.6321Z" fill="#FEFEFE"/>
<path d="M127.059 62.2432C127.245 62.5721 127.428 62.9011 127.616 63.23C127.947 63.1383 128.279 63.0465 128.617 62.9637C128.397 63.2524 128.178 63.5411 127.954 63.8253C128.156 64.1497 128.352 64.4742 128.549 64.8009C128.218 64.6555 127.896 64.5056 127.571 64.3534C127.35 64.6421 127.133 64.933 126.916 65.2216C126.945 64.8591 126.965 64.4944 126.976 64.1318C126.67 63.9081 126.325 63.7492 125.996 63.5657C126.334 63.512 126.672 63.456 127.012 63.4001C127.03 63.0152 127.041 62.6281 127.059 62.2432Z" fill="#FEFEFE"/>
<path d="M135.929 62.6689C136.128 62.9957 136.318 63.3246 136.511 63.6558C136.833 63.5663 137.153 63.479 137.48 63.3962C137.283 63.6692 137.077 63.9355 136.905 64.2242C137.005 64.5934 137.249 64.9022 137.428 65.2379C137.104 65.088 136.782 64.938 136.462 64.7904C136.24 65.0768 136.018 65.3632 135.792 65.6474C135.806 65.2536 135.828 64.862 135.844 64.4704C135.515 64.3227 135.195 64.166 134.875 64.0049C135.217 63.9445 135.558 63.8818 135.902 63.8192C135.909 63.4365 135.918 63.0516 135.929 62.6689Z" fill="#FEFEFE"/>
<path d="M112.503 62.9482C112.686 63.2839 112.87 63.6196 113.053 63.9597C113.391 63.868 113.729 63.7717 114.071 63.6822C113.854 63.9731 113.635 64.2596 113.413 64.546C113.613 64.8862 113.814 65.2263 114.006 65.5709C113.684 65.4031 113.362 65.2352 113.042 65.0652C112.818 65.3606 112.592 65.6582 112.362 65.9491C112.391 65.5731 112.422 65.1972 112.456 64.8213C112.111 64.6601 111.766 64.5035 111.422 64.3446C111.775 64.2551 112.131 64.1701 112.489 64.085C112.494 63.7046 112.498 63.3264 112.503 62.9482Z" fill="#FEFEFE"/>
<path d="M121.403 64.5974C121.434 64.2662 121.45 63.9328 121.468 63.5994C121.647 63.9395 121.828 64.2774 122.009 64.6176C122.345 64.5191 122.681 64.4229 123.021 64.3311C122.801 64.622 122.582 64.9129 122.358 65.2016C122.56 65.5373 122.759 65.8729 122.954 66.2131C122.629 66.0453 122.305 65.8797 121.982 65.7096C121.877 65.8506 121.669 66.1303 121.564 66.2713C121.445 65.8528 121.324 65.4343 121.215 65.0136L121.248 64.942C121.286 64.857 121.363 64.6847 121.403 64.5974Z" fill="#FEFEFE"/>
<path d="M130.361 65.2089C130.384 64.8285 130.406 64.448 130.431 64.0676C130.61 64.3943 130.791 64.7211 130.97 65.05C131.306 64.9538 131.639 64.8576 131.979 64.7725C131.762 65.0634 131.543 65.3499 131.319 65.6363C131.518 65.9675 131.713 66.3009 131.908 66.6388C131.583 66.4777 131.263 66.3166 130.943 66.151C130.719 66.4464 130.496 66.744 130.267 67.0349C130.294 66.6634 130.328 66.292 130.361 65.9205C130.026 65.7482 129.692 65.5804 129.363 65.4013C129.694 65.3342 130.028 65.2693 130.361 65.2089Z" fill="#FEFEFE"/>
<path d="M139.384 64.7991C139.601 65.1213 139.8 65.4592 140.044 65.7636C140.371 65.7143 140.689 65.6159 141.009 65.5286C140.794 65.8217 140.581 66.1171 140.373 66.4125C140.566 66.7347 140.758 67.057 140.951 67.3815C140.615 67.2338 140.284 67.0816 139.95 66.9339C139.744 67.2226 139.543 67.5113 139.342 67.7999C139.351 67.415 139.36 67.0324 139.368 66.6497C139.046 66.4998 138.726 66.3543 138.406 66.2089C138.733 66.1149 139.064 66.0209 139.393 65.9291C139.391 65.551 139.386 65.175 139.384 64.7991Z" fill="#FEFEFE"/>
<path d="M115.86 65.001C116.043 65.3255 116.222 65.6544 116.401 65.9834C116.748 65.8938 117.09 65.7976 117.437 65.7036C117.216 65.9968 116.99 66.2877 116.761 66.5764C116.961 66.9076 117.158 67.2387 117.348 67.5767C117.023 67.4222 116.706 67.2656 116.386 67.1045C116.164 67.3999 115.94 67.693 115.71 67.9817C115.737 67.6035 115.77 67.2276 115.801 66.8494C115.486 66.6994 115.173 66.5495 114.859 66.3996C115.184 66.2922 115.511 66.1937 115.84 66.0975C115.844 65.7327 115.851 65.3657 115.86 65.001Z" fill="#FEFEFE"/>
<path d="M124.834 65.4143C125.038 65.7433 125.237 66.0767 125.431 66.4124C125.774 66.3251 126.112 66.2289 126.454 66.1349C126.235 66.4258 126.015 66.7167 125.796 67.0054C125.986 67.341 126.181 67.6745 126.374 68.0079C126.04 67.8557 125.711 67.6991 125.384 67.5447C125.183 67.8356 124.979 68.1243 124.774 68.4084C124.789 68.0392 124.807 67.67 124.827 67.3007C124.503 67.1374 124.174 66.9763 123.852 66.8084C124.172 66.7279 124.492 66.6496 124.814 66.5779C124.818 66.1886 124.823 65.8014 124.834 65.4143Z" fill="#FEFEFE"/>
<path d="M133.802 66.1772C134.019 66.5062 134.229 66.8374 134.442 67.1708C134.764 67.0835 135.088 66.9963 135.415 66.909C135.202 67.2066 134.985 67.502 134.775 67.7996C134.97 68.1152 135.162 68.4329 135.357 68.7507C135.015 68.6097 134.681 68.4642 134.341 68.3233C134.144 68.6075 133.947 68.8894 133.75 69.1714C133.759 68.7798 133.768 68.3904 133.779 67.9988C133.45 67.869 133.124 67.7414 132.797 67.6139C133.13 67.511 133.466 67.4125 133.802 67.3096C133.799 66.9314 133.799 66.5532 133.802 66.1772Z" fill="#FEFEFE"/>
<path d="M110.338 66.3501C110.544 66.6679 110.735 67.0013 110.972 67.3012C111.303 67.2497 111.621 67.1423 111.945 67.0528C111.728 67.3437 111.513 67.6346 111.298 67.9255C111.486 68.2589 111.679 68.5901 111.871 68.9191C111.545 68.7669 111.218 68.6125 110.893 68.4581C110.681 68.7445 110.468 69.0332 110.258 69.3196C110.265 68.9414 110.274 68.5655 110.285 68.1873C109.974 68.0351 109.66 67.8874 109.352 67.733C109.672 67.6413 109.992 67.5518 110.316 67.4645C110.321 67.093 110.327 66.7193 110.338 66.3501Z" fill="#FEFEFE"/>
<path d="M80.7578 73.278C89.6709 71.0313 98.5929 68.8226 107.506 66.5781C107.819 67.8447 108.135 69.1113 108.457 70.3756C105.651 71.0604 102.856 71.7809 100.052 72.4657C98.1677 71.3781 96.006 70.9172 93.9182 70.3846C93.3453 70.172 92.8284 70.5591 92.3674 70.8456C90.3042 72.1927 88.0373 73.2624 85.6362 73.8397C84.016 74.2246 82.1922 74.2291 80.7578 73.278Z" fill="#FEFEFE"/>
<path d="M119.303 67.9117C119.303 67.5469 119.303 67.1799 119.3 66.8152C119.58 67.2448 119.822 67.7752 120.404 67.8401C120.399 67.9497 120.39 68.1713 120.388 68.2809C120.334 68.6949 120.661 69.0261 120.8 69.3909C120.567 69.2745 120.102 69.044 119.869 68.9299C119.647 69.2208 119.43 69.5139 119.211 69.8071C119.222 69.42 119.236 69.0328 119.251 68.6457C118.94 68.5092 118.629 68.3727 118.32 68.2362C118.647 68.1288 118.974 68.0191 119.303 67.9117Z" fill="#FEFEFE"/>
<path d="M128.379 67.554C128.567 67.8717 128.75 68.194 128.938 68.5162C129.272 68.4334 129.605 68.3484 129.941 68.2656C129.715 68.5542 129.495 68.8474 129.276 69.1383C129.477 69.4583 129.677 69.7783 129.874 70.1028C129.547 69.9596 129.225 69.8141 128.902 69.6686C128.676 69.9551 128.448 70.2393 128.213 70.519C128.247 70.1431 128.285 69.7693 128.321 69.3956C127.992 69.239 127.663 69.0846 127.336 68.9302C127.674 68.8384 128.014 68.7512 128.354 68.6572C128.361 68.2879 128.368 67.9209 128.379 67.554Z" fill="#FEFEFE"/>
<path d="M137.229 67.9023C137.435 68.2291 137.636 68.5602 137.84 68.8914C138.164 68.7975 138.487 68.699 138.811 68.6005C138.61 68.8959 138.39 69.1824 138.216 69.4956C138.361 69.8425 138.565 70.158 138.749 70.4847C138.426 70.3303 138.109 70.1714 137.791 70.0148C137.565 70.3057 137.341 70.5966 137.117 70.8898C137.131 70.5071 137.149 70.1245 137.169 69.7418C136.853 69.5874 136.538 69.4375 136.227 69.283C136.551 69.1935 136.878 69.1085 137.204 69.0235C137.211 68.6498 137.218 68.2761 137.229 67.9023Z" fill="#FEFEFE"/>
<path d="M113.808 68.2024C114 68.5246 114.191 68.8513 114.381 69.1758C114.712 69.093 115.041 69.0102 115.372 68.9252C115.16 69.2072 114.933 69.4802 114.748 69.78C114.902 70.1179 115.11 70.429 115.298 70.7512C115.012 70.617 114.721 70.4916 114.43 70.3753C114.081 70.5073 113.915 70.9213 113.649 71.1719C113.683 70.7937 113.721 70.4178 113.756 70.0418C113.423 69.8964 113.087 69.7532 112.754 69.6122C113.099 69.5137 113.443 69.4153 113.788 69.3123C113.792 68.9431 113.799 68.5716 113.808 68.2024Z" fill="#FEFEFE"/>
<path d="M122.777 68.9075C122.961 69.2387 123.147 69.5676 123.33 69.8988C123.666 69.816 124.001 69.7332 124.337 69.6504C124.116 69.9413 123.896 70.2345 123.675 70.5231C123.878 70.832 124.084 71.1408 124.292 71.4496C123.883 71.2996 123.469 71.1206 123.024 71.1564C122.918 70.8141 122.8 70.4717 122.762 70.1136C122.764 69.8115 122.773 69.2096 122.777 68.9075Z" fill="#FEFEFE"/>
<path d="M131.718 69.2947C131.91 69.6147 132.098 69.9392 132.289 70.2614C132.622 70.1786 132.955 70.0936 133.289 70.0085C133.067 70.2972 132.846 70.5859 132.624 70.8745C132.821 71.1968 133.016 71.5235 133.206 71.8525C132.884 71.7048 132.568 71.5548 132.253 71.4027C132.022 71.6958 131.794 71.9867 131.559 72.2732C131.59 71.8927 131.626 71.5123 131.66 71.1319C131.338 70.9887 131.015 70.8477 130.695 70.7112C131.024 70.5971 131.358 70.4874 131.691 70.38C131.696 70.0175 131.705 69.655 131.718 69.2947Z" fill="#FEFEFE"/>
<path d="M140.727 70.1003C140.944 70.4338 141.153 70.7717 141.358 71.1141C141.685 71.0156 142.012 70.9171 142.343 70.8254C142.128 71.1118 141.913 71.3983 141.696 71.6847C141.891 72.0315 142.09 72.3762 142.294 72.7163C141.958 72.5507 141.627 72.3851 141.296 72.2195C141.092 72.5059 140.891 72.7924 140.685 73.0766C140.694 72.7051 140.703 72.3336 140.714 71.9644C140.387 71.8033 140.061 71.6466 139.738 71.4788C140.058 71.405 140.381 71.3356 140.705 71.2729C140.712 70.8813 140.716 70.4897 140.727 70.1003Z" fill="#FEFEFE"/>
<path d="M117.186 70.3042C117.371 70.6354 117.559 70.9666 117.747 71.2978C118.076 71.2015 118.405 71.1098 118.741 71.0248C118.526 71.3134 118.309 71.5999 118.088 71.8818C118.284 72.213 118.481 72.5442 118.672 72.8821C118.349 72.7255 118.032 72.5666 117.714 72.4077C117.488 72.6986 117.262 72.9895 117.034 73.2782C117.065 72.9179 117.087 72.5554 117.098 72.1951C116.794 71.9669 116.449 71.808 116.125 71.6178C116.458 71.5685 116.796 71.5171 117.132 71.4678C117.15 71.0807 117.168 70.6913 117.186 70.3042Z" fill="#FEFEFE"/>
<path d="M126.175 70.6641C126.361 70.9818 126.54 71.3018 126.719 71.6263C127.066 71.5547 127.413 71.4831 127.762 71.4092C127.536 71.6912 127.319 71.9754 127.097 72.2596C127.296 72.5863 127.493 72.9153 127.69 73.2465C127.366 73.0943 127.043 72.9399 126.723 72.7877C126.5 73.0719 126.28 73.3583 126.059 73.6448C126.086 73.2666 126.117 72.8884 126.148 72.5102C125.81 72.367 125.472 72.226 125.137 72.0873C125.472 71.9843 125.813 71.8859 126.15 71.7829C126.153 71.4115 126.162 71.0378 126.175 70.6641Z" fill="#FEFEFE"/>
<path d="M135.125 71.4702C135.335 71.7969 135.539 72.1281 135.738 72.4638C136.078 72.3832 136.414 72.2915 136.754 72.1975C136.537 72.4906 136.317 72.7815 136.1 73.0747C136.291 73.4037 136.483 73.7326 136.673 74.0638C136.344 73.9139 136.02 73.7617 135.695 73.6095C135.487 73.8982 135.279 74.1869 135.071 74.4755C135.089 74.1018 135.107 73.7259 135.125 73.3544C134.802 73.1978 134.478 73.0434 134.16 72.8867C134.476 72.795 134.796 72.7032 135.118 72.616C135.118 72.2333 135.118 71.8529 135.125 71.4702Z" fill="#FEFEFE"/>
<path d="M111.657 71.644C111.872 71.973 112.08 72.3064 112.29 72.6421C112.613 72.5459 112.935 72.4564 113.262 72.378C113.051 72.6555 112.836 72.9308 112.622 73.2082C112.816 73.5596 113.013 73.9109 113.212 74.2622C112.888 74.0877 112.561 73.9154 112.239 73.7386C112.029 74.0273 111.82 74.3182 111.608 74.6046C111.606 74.2287 111.608 73.855 111.608 73.4813C111.286 73.3179 110.966 73.1523 110.652 72.9755C110.979 72.924 111.306 72.8726 111.635 72.8256C111.641 72.4317 111.646 72.0379 111.657 71.644Z" fill="#FEFEFE"/>
<path d="M120.616 72.0403C120.822 72.3692 121.026 72.7004 121.232 73.0316C121.476 72.9757 121.722 72.9197 121.968 72.866C121.948 72.922 121.905 73.0316 121.885 73.0876C121.789 73.2934 121.691 73.4971 121.59 73.7007C121.782 74.0073 121.975 74.3139 122.169 74.6204C121.823 74.4705 121.48 74.3183 121.133 74.1706C120.941 74.4571 120.751 74.7435 120.558 75.0277C120.558 74.6428 120.561 74.2579 120.565 73.873C120.234 73.7186 119.905 73.562 119.578 73.4031C119.905 73.3494 120.232 73.2934 120.558 73.2397C120.581 72.8392 120.596 72.4386 120.616 72.0403Z" fill="#FEFEFE"/>
<path d="M129.708 72.8574C129.903 73.1774 130.091 73.5019 130.279 73.8264C130.612 73.7391 130.945 73.6496 131.279 73.5623C131.057 73.8532 130.838 74.1419 130.612 74.4283C130.811 74.7551 131.004 75.084 131.189 75.4197C130.869 75.2697 130.554 75.1131 130.238 74.9565C130.01 75.2518 129.784 75.5472 129.551 75.8404C129.58 75.4532 129.612 75.0683 129.645 74.6834C129.33 74.5447 129.016 74.406 128.703 74.2672C129.028 74.1553 129.352 74.0412 129.681 73.9383C129.688 73.578 129.697 73.2177 129.708 72.8574Z" fill="#FEFEFE"/>
<path d="M115.123 73.4392C115.32 73.7704 115.513 74.1061 115.705 74.4395C116.023 74.3388 116.338 74.2426 116.658 74.1508C116.455 74.4552 116.251 74.7595 116.052 75.0638C116.247 75.3816 116.439 75.7038 116.625 76.0283C116.305 75.8672 115.985 75.7038 115.667 75.5382C115.441 75.8336 115.213 76.1268 114.982 76.4177C114.991 76.0261 115.007 75.6367 115.016 75.2473C114.691 75.0952 114.376 74.9363 114.062 74.7707C114.311 74.7326 114.808 74.6566 115.056 74.6208C115.081 74.2269 115.101 73.8331 115.123 73.4392Z" fill="#FEFEFE"/>
<path d="M125.227 78.2745C131.347 76.7126 137.476 75.1931 143.605 73.6692C143.916 74.9313 144.236 76.1889 144.565 77.4465C138.506 78.9459 132.455 80.481 126.395 81.9803C126.012 80.7428 125.62 79.5075 125.227 78.2745Z" fill="#FEFEFE"/>
<path d="M103.531 75.6011C105.5 75.1804 107.441 74.6209 109.403 74.1711C109.719 75.4332 110.032 76.6953 110.352 77.9575C109.195 78.226 108.049 78.5326 106.892 78.8011C105.8 77.7046 104.648 76.6707 103.531 75.6011Z" fill="#FEFEFE"/>
<path d="M124.062 74.2961C124.275 74.5938 124.49 74.8914 124.705 75.189C125.029 75.1107 125.354 75.0346 125.68 74.9563C125.457 75.2405 125.235 75.5247 125.011 75.8066C125.21 76.1311 125.407 76.4578 125.602 76.7845C125.273 76.6369 124.946 76.4869 124.62 76.337C124.407 75.6634 124.199 74.9899 124.062 74.2961Z" fill="#FEFEFE"/>
<path d="M118.211 75.7008C118.732 75.5464 118.824 76.2782 119.083 76.5803C119.332 76.5176 119.824 76.3945 120.07 76.3319C119.851 76.6206 119.634 76.9115 119.417 77.2046C119.616 77.5201 119.815 77.8357 120.014 78.1534C119.676 78.0594 119.37 77.773 119.009 77.8088C118.768 78.0483 118.56 78.319 118.336 78.5764C118.374 78.2004 118.412 77.8245 118.452 77.4485C118.121 77.2941 117.792 77.1442 117.461 76.9965C117.799 76.9182 118.132 76.8197 118.461 76.7056C118.477 76.4841 118.508 76.041 118.524 75.8172L118.211 75.7008Z" fill="#FEFEFE"/>
<path d="M112.97 76.9365C113.189 77.2655 113.404 77.5967 113.619 77.9301C113.946 77.8451 114.275 77.76 114.604 77.6772C114.387 77.9748 114.165 78.268 113.95 78.5656C114.149 78.8811 114.346 79.1989 114.546 79.5189C114.203 79.3712 113.865 79.2235 113.523 79.0803C113.324 79.3645 113.127 79.6509 112.93 79.9351C112.941 79.548 112.954 79.1631 112.963 78.776C112.632 78.6283 112.303 78.4761 111.977 78.3217C112.31 78.2479 112.646 78.174 112.981 78.0979C112.975 77.7108 112.972 77.3237 112.97 76.9365Z" fill="#FEFEFE"/>
<path d="M111.291 81.7429C115.39 80.7113 119.494 79.7065 123.59 78.657C123.941 79.9191 124.33 81.1722 124.675 82.4366C120.922 83.3272 117.189 84.2984 113.446 85.2271C112.365 84.153 111.293 83.0699 110.188 82.0181C110.554 81.9241 110.921 81.8346 111.291 81.7429Z" fill="#FEFEFE"/>
<path d="M128.285 85.5276C133.526 84.2521 138.751 82.9206 143.983 81.6138C143.451 82.1777 142.721 82.4753 141.983 82.6588C138.113 83.677 134.269 84.7869 130.413 85.8499C129.69 86.1027 128.959 85.7738 128.285 85.5276Z" fill="#FEFEFE"/>
<path d="M116.656 88.4365C119.718 87.7226 122.747 86.87 125.82 86.2009C125.457 86.6798 124.902 86.9327 124.401 87.237C122.862 88.15 121.34 89.0944 119.807 90.0208C119.413 90.267 118.892 90.493 118.458 90.2021C117.766 89.7165 117.243 89.0362 116.656 88.4365Z" fill="#FEFEFE"/>
<path d="M66.236 88.1394C66.932 87.8664 67.666 88.1506 68.2948 88.4639C67.0953 88.7749 65.8802 89.039 64.6875 89.3836C65.1776 88.9405 65.6453 88.4505 66.236 88.1394Z" fill="#FEFEFE"/>
<path d="M72.5184 92.1804C73.0398 91.6344 73.9215 91.3524 74.6174 91.7261C75.6289 92.337 76.4144 93.2791 76.8888 94.3555C73.8141 95.1611 70.717 95.8794 67.6445 96.6962C69.2311 95.1499 70.9094 93.7021 72.5184 92.1804Z" fill="#FEFEFE"/>
<path d="M61.6758 94.1632C64.4909 93.4225 67.3217 92.7466 70.1435 92.0283C68.586 93.5343 66.9793 94.9911 65.4464 96.5218C65.1264 96.8037 64.7393 97.305 64.2626 97.0141C63.0901 96.4076 62.2397 95.3335 61.6758 94.1632Z" fill="#FEFEFE"/>
<path d="M76.8755 98.4265C77.7683 98.1467 78.6903 97.9744 79.5787 97.6835C80.1896 97.65 80.6573 98.14 80.9974 98.5876C81.4853 99.3686 81.8366 100.308 81.6509 101.239C78.1443 102.103 74.6377 102.962 71.1445 103.875C73.0019 102.005 74.9532 100.228 76.8755 98.4265Z" fill="#FEFEFE"/>
<path d="M64.5625 101.473C67.5566 100.721 70.5597 99.9961 73.5494 99.2129C72.0255 100.766 70.4277 102.241 68.8657 103.753C68.5994 103.975 68.3555 104.272 68.0064 104.353C66.487 104.011 65.2047 102.881 64.5625 101.473Z" fill="#FEFEFE"/>
<path d="M79.7185 105.777C81.6855 105.193 83.6972 104.781 85.6777 104.242C86.0715 105.497 86.2617 106.806 86.3244 108.12C83.4913 108.809 80.6628 109.521 77.8387 110.243C77.465 109.756 77.0936 109.27 76.7266 108.78C77.7425 107.798 78.6846 106.737 79.7185 105.777Z" fill="#FEFEFE"/>
<path d="M70.9375 107.936C72.7859 107.455 74.65 107.037 76.4894 106.526C75.7465 107.332 74.961 108.095 74.2136 108.894C73.9652 109.115 73.7146 109.474 73.3319 109.391C72.4055 109.174 71.6245 108.569 70.9375 107.936Z" fill="#FEFEFE"/>
<path d="M137.656 55.595C138.348 55.8501 139.207 56.179 139.359 57.0025C140.787 62.5544 142.192 68.1131 143.607 73.6695C137.477 75.1934 131.348 76.7128 125.228 78.2748C125.024 77.6281 124.823 76.9814 124.619 76.3369C124.946 76.4868 125.273 76.6367 125.602 76.7844C125.407 76.4577 125.21 76.131 125.011 75.8065C125.235 75.5246 125.456 75.2404 125.68 74.9562C125.353 75.0345 125.029 75.1106 124.704 75.1889C124.489 74.8913 124.275 74.5937 124.062 74.296C123.588 73.3002 123.404 72.1903 123.026 71.1564C123.471 71.1206 123.885 71.2997 124.295 71.4496C124.087 71.1408 123.881 70.832 123.677 70.5231C123.899 70.2345 124.118 69.9413 124.339 69.6504C124.004 69.7332 123.668 69.816 123.332 69.8988C123.149 69.5676 122.963 69.2387 122.78 68.9075C122.775 69.2096 122.766 69.8115 122.764 70.1136C122.278 68.8605 121.974 67.5492 121.565 66.2714C121.67 66.1304 121.878 65.8507 121.983 65.7097C122.305 65.8798 122.63 66.0454 122.954 66.2132C122.76 65.8731 122.56 65.5374 122.359 65.2017C122.583 64.9131 122.802 64.6221 123.021 64.3312C122.681 64.423 122.346 64.5192 122.01 64.6177C121.829 64.2775 121.647 63.9396 121.468 63.5995C121.45 63.9329 121.435 64.2663 121.403 64.5975C121.363 64.6848 121.287 64.8571 121.249 64.9421C120.716 63.7337 120.522 62.409 120.059 61.1737C120.258 60.9298 120.455 60.6837 120.649 60.4375C120.967 60.5874 121.287 60.7374 121.607 60.8873C121.48 60.6568 121.352 60.4286 121.224 60.1981C122.706 59.7908 124.19 59.3835 125.657 58.927C125.642 59.1776 125.608 59.6811 125.593 59.9318C125.807 59.6341 126.024 59.3343 126.239 59.0344C126.564 59.2 126.888 59.3611 127.217 59.5223C127.081 59.2716 126.946 59.0232 126.81 58.7748L126.823 58.6406C128.231 58.1818 129.674 57.835 131.095 57.412C131.089 57.7925 131.084 58.1706 131.08 58.5511C131.294 58.2646 131.512 57.9782 131.726 57.6895C132.055 57.8551 132.384 58.0185 132.715 58.1818C132.507 57.8327 132.299 57.4837 132.093 57.1346C133.602 56.7027 135.114 56.2842 136.623 55.8546C136.652 56.2932 136.674 56.7318 136.701 57.1704C136.909 56.8772 137.117 56.5863 137.325 56.2954C137.645 56.4677 137.97 56.64 138.292 56.8123C138.075 56.4095 137.858 56.0067 137.656 55.595ZM134.635 57.4411C134.622 57.8037 134.613 58.1662 134.606 58.5309C134.271 58.6383 133.937 58.7458 133.604 58.8554C133.924 58.9897 134.246 59.1262 134.571 59.2627C134.537 59.6476 134.506 60.0325 134.477 60.4196C134.709 60.1332 134.935 59.84 135.164 59.5491C135.481 59.699 135.799 59.849 136.124 59.9944C135.931 59.6655 135.734 59.341 135.535 59.0188C135.759 58.7323 135.983 58.4437 136.209 58.155C135.871 58.24 135.535 58.3228 135.199 58.4056C135.011 58.0834 134.826 57.7611 134.635 57.4411ZM129.079 58.8107C129.07 59.1888 129.066 59.567 129.063 59.9452C128.728 60.0302 128.39 60.113 128.056 60.1981C128.388 60.357 128.723 60.5136 129.057 60.6725C129.028 61.0462 128.998 61.4199 128.974 61.7914C129.193 61.5049 129.415 61.2185 129.638 60.9321C129.958 61.0865 130.281 61.2409 130.603 61.3953C130.408 61.0663 130.211 60.7396 130.012 60.4151C130.234 60.122 130.451 59.8266 130.677 59.5357C130.424 59.5983 129.916 59.7281 129.663 59.7908C129.471 59.4641 129.278 59.1351 129.079 58.8107ZM138.068 59.4932C138.07 59.8758 138.075 60.2585 138.082 60.6411C137.739 60.7239 137.395 60.8023 137.054 60.8784C137.374 61.0238 137.694 61.167 138.019 61.308C138.021 61.6974 138.021 62.0845 138.032 62.4739C138.225 62.1986 138.413 61.9189 138.601 61.637C138.95 61.7779 139.292 61.9256 139.644 62.0711C139.444 61.7645 139.241 61.4602 139.037 61.1581C139.245 60.8493 139.462 60.5449 139.679 60.2406C139.353 60.3189 139.03 60.3995 138.708 60.4845C138.496 60.1533 138.285 59.8221 138.068 59.4932ZM123.532 60.2003C123.511 60.5986 123.498 60.9947 123.473 61.3908C123.147 61.4356 122.82 61.4826 122.496 61.5273C122.818 61.6974 123.142 61.863 123.471 62.0196C123.473 62.3978 123.476 62.7737 123.487 63.1519C123.682 62.8767 123.87 62.5947 124.057 62.315C124.398 62.4627 124.733 62.6171 125.076 62.7715C124.874 62.4381 124.675 62.1069 124.478 61.7735C124.7 61.496 124.921 61.2185 125.141 60.9388C124.807 61.0149 124.476 61.0932 124.145 61.176C123.941 60.8493 123.74 60.5225 123.532 60.2003ZM132.489 60.8851C132.436 61.2744 132.561 61.7153 132.373 62.0733C132.071 62.1293 131.769 62.174 131.467 62.2076C131.782 62.3821 132.102 62.5522 132.427 62.7156C132.425 63.0893 132.422 63.463 132.427 63.8367C132.644 63.5525 132.859 63.2638 133.076 62.9774C133.396 63.1542 133.72 63.3242 134.045 63.4988C133.846 63.1586 133.644 62.8207 133.44 62.4851C133.653 62.1942 133.87 61.9055 134.083 61.6146C133.758 61.6951 133.436 61.7824 133.116 61.8786C132.906 61.5474 132.7 61.214 132.489 60.8851ZM127.061 62.2434C127.043 62.6283 127.031 63.0154 127.014 63.4003C126.673 63.4563 126.336 63.5122 125.998 63.5659C126.327 63.7494 126.671 63.9083 126.978 64.1321C126.967 64.4946 126.946 64.8593 126.917 65.2219C127.134 64.9332 127.351 64.6423 127.573 64.3536C127.898 64.5058 128.22 64.6557 128.551 64.8012C128.354 64.4745 128.157 64.15 127.956 63.8255C128.179 63.5413 128.399 63.2526 128.618 62.964C128.28 63.0468 127.949 63.1385 127.618 63.2303C127.43 62.9013 127.246 62.5723 127.061 62.2434ZM135.931 62.6686C135.92 63.0512 135.911 63.4361 135.904 63.8188C135.56 63.8814 135.22 63.9441 134.877 64.0045C135.197 64.1656 135.517 64.3223 135.846 64.47C135.83 64.8616 135.808 65.2532 135.795 65.647C136.021 65.3628 136.242 65.0764 136.464 64.79C136.784 64.9377 137.106 65.0876 137.43 65.2375C137.251 64.9019 137.007 64.5931 136.907 64.2238C137.079 63.9351 137.285 63.6689 137.482 63.3958C137.155 63.4786 136.835 63.5659 136.513 63.6554C136.32 63.3242 136.13 62.9953 135.931 62.6686ZM130.364 65.2084C130.03 65.2689 129.697 65.3338 129.365 65.4009C129.694 65.5799 130.028 65.7477 130.364 65.9201C130.33 66.2915 130.296 66.663 130.27 67.0345C130.498 66.7436 130.722 66.4459 130.945 66.1505C131.265 66.3161 131.585 66.4773 131.91 66.6384C131.715 66.3005 131.52 65.967 131.321 65.6359C131.545 65.3494 131.764 65.063 131.981 64.7721C131.641 64.8571 131.308 64.9533 130.972 65.0496C130.793 64.7206 130.612 64.3939 130.433 64.0672C130.408 64.4476 130.386 64.828 130.364 65.2084ZM139.388 64.7989C139.391 65.1749 139.395 65.5508 139.397 65.929C139.068 66.0208 138.737 66.1147 138.411 66.2087C138.731 66.3542 139.051 66.4996 139.373 66.6496C139.364 67.0322 139.355 67.4149 139.346 67.7998C139.547 67.5111 139.749 67.2224 139.955 66.9338C140.288 67.0815 140.619 67.2336 140.955 67.3813C140.762 67.0568 140.57 66.7346 140.378 66.4124C140.586 66.117 140.798 65.8216 141.013 65.5284C140.693 65.6157 140.375 65.7142 140.049 65.7634C139.805 65.4591 139.606 65.1212 139.388 64.7989ZM124.836 65.4143C124.825 65.8014 124.821 66.1886 124.816 66.578C124.494 66.6496 124.174 66.7279 123.854 66.8084C124.176 66.9763 124.505 67.1374 124.83 67.3008C124.809 67.67 124.791 68.0392 124.776 68.4085C124.982 68.1243 125.185 67.8356 125.387 67.5447C125.713 67.6991 126.042 67.8557 126.376 68.0079C126.183 67.6745 125.989 67.341 125.798 67.0054C126.018 66.7167 126.237 66.4258 126.456 66.1349C126.114 66.2289 125.776 66.3251 125.434 66.4124C125.239 66.0767 125.04 65.7433 124.836 65.4143ZM133.801 66.1774C133.799 66.5533 133.799 66.9315 133.801 67.3097C133.465 67.4126 133.129 67.5111 132.796 67.614C133.123 67.7416 133.449 67.8692 133.778 67.9989C133.767 68.3906 133.758 68.7799 133.749 69.1715C133.946 68.8896 134.143 68.6076 134.34 68.3234C134.68 68.4644 135.014 68.6099 135.356 68.7508C135.161 68.4331 134.969 68.1153 134.774 67.7998C134.985 67.5022 135.202 67.2068 135.414 66.9091C135.087 66.9964 134.763 67.0837 134.441 67.171C134.228 66.8375 134.018 66.5063 133.801 66.1774ZM128.383 67.5536C128.372 67.9206 128.365 68.2876 128.358 68.6568C128.018 68.7508 127.678 68.8381 127.34 68.9299C127.667 69.0843 127.996 69.2387 128.325 69.3953C128.289 69.769 128.251 70.1427 128.218 70.5187C128.452 70.239 128.681 69.9548 128.907 69.6683C129.229 69.8138 129.551 69.9592 129.878 70.1024C129.681 69.778 129.482 69.458 129.28 69.138C129.5 68.8471 129.719 68.5539 129.945 68.2652C129.609 68.348 129.276 68.4331 128.943 68.5159C128.755 68.1936 128.571 67.8714 128.383 67.5536ZM137.227 67.9027C137.216 68.2764 137.209 68.6501 137.202 69.0238C136.875 69.1089 136.549 69.1939 136.224 69.2834C136.535 69.4378 136.851 69.5878 137.166 69.7422C137.146 70.1248 137.128 70.5075 137.115 70.8901C137.339 70.597 137.562 70.3061 137.788 70.0152C138.106 70.1718 138.424 70.3307 138.746 70.4851C138.563 70.1584 138.359 69.8429 138.214 69.496C138.388 69.1827 138.607 68.8963 138.809 68.6009C138.484 68.6994 138.162 68.7978 137.838 68.8918C137.634 68.5606 137.433 68.2294 137.227 67.9027ZM131.722 69.2946C131.708 69.6549 131.699 70.0174 131.695 70.3799C131.362 70.4873 131.028 70.597 130.699 70.7111C131.019 70.8476 131.341 70.9886 131.664 71.1318C131.63 71.5122 131.594 71.8927 131.563 72.2731C131.798 71.9867 132.026 71.6957 132.257 71.4026C132.572 71.5548 132.888 71.7047 133.21 71.8524C133.02 71.5234 132.825 71.1967 132.628 70.8745C132.85 70.5858 133.071 70.2971 133.293 70.0085C132.959 70.0935 132.626 70.1785 132.292 70.2613C132.102 69.9391 131.914 69.6146 131.722 69.2946ZM140.729 70.1002C140.718 70.4896 140.713 70.8812 140.707 71.2728C140.382 71.3355 140.06 71.4048 139.74 71.4787C140.062 71.6465 140.389 71.8032 140.715 71.9643C140.704 72.3335 140.695 72.705 140.686 73.0764C140.892 72.7922 141.094 72.5058 141.297 72.2194C141.628 72.385 141.96 72.5506 142.295 72.7162C142.092 72.376 141.893 72.0314 141.698 71.6846C141.915 71.3981 142.13 71.1117 142.345 70.8252C142.013 70.917 141.687 71.0155 141.36 71.1139C141.154 70.7715 140.946 70.4336 140.729 70.1002ZM126.177 70.6641C126.163 71.0378 126.154 71.4115 126.152 71.783C125.814 71.886 125.474 71.9844 125.138 72.0874C125.474 72.2261 125.812 72.3671 126.15 72.5103C126.118 72.8885 126.087 73.2667 126.06 73.6448C126.282 73.3584 126.501 73.072 126.725 72.7878C127.045 72.9399 127.367 73.0944 127.692 73.2465C127.495 72.9153 127.298 72.5864 127.099 72.2597C127.32 71.9755 127.537 71.6913 127.763 71.4093C127.414 71.4832 127.067 71.5548 126.72 71.6264C126.541 71.3019 126.362 70.9819 126.177 70.6641ZM135.126 71.4697C135.119 71.8524 135.119 72.2328 135.119 72.6155C134.797 72.7027 134.477 72.7945 134.161 72.8862C134.479 73.0429 134.803 73.1973 135.126 73.3539C135.108 73.7254 135.09 74.1013 135.072 74.4751C135.28 74.1864 135.488 73.8977 135.696 73.609C136.021 73.7612 136.345 73.9134 136.674 74.0633C136.484 73.7321 136.291 73.4032 136.101 73.0742C136.318 72.7811 136.538 72.4902 136.755 72.197C136.414 72.291 136.079 72.3827 135.739 72.4633C135.54 72.1276 135.336 71.7964 135.126 71.4697ZM129.708 72.8571C129.697 73.2174 129.688 73.5777 129.681 73.938C129.352 74.0409 129.028 74.1551 128.703 74.2669C129.016 74.4057 129.33 74.5444 129.645 74.6832C129.612 75.0681 129.58 75.453 129.551 75.8401C129.784 75.5469 130.01 75.2516 130.238 74.9562C130.554 75.1128 130.869 75.2695 131.189 75.4194C131.004 75.0837 130.811 74.7548 130.612 74.4281C130.838 74.1416 131.057 73.853 131.279 73.562C130.945 73.6493 130.612 73.7388 130.278 73.8261C130.091 73.5016 129.903 73.1771 129.708 72.8571Z" fill="#0101FD"/>
<path d="M105.227 57.4482C106.019 57.5691 106.813 57.6608 107.601 57.804C107.471 57.9741 107.543 58.5985 107.829 58.2538C107.867 58.1621 107.943 57.9786 107.981 57.8868C109.118 58.0435 110.226 58.3613 111.333 58.6634C110.969 58.8871 110.557 59.0013 110.154 59.1266C110.488 59.2743 110.819 59.4264 111.148 59.5808C111.121 59.959 111.092 60.335 111.069 60.7132C111.284 60.4267 111.497 60.1403 111.712 59.8538C112.043 60.006 112.372 60.1582 112.703 60.3126C112.504 59.9836 112.307 59.6569 112.11 59.328C112.182 59.2295 112.327 59.0348 112.399 58.9364C114.464 59.5585 116.478 60.3708 118.34 61.465C118.754 61.7134 118.779 62.2416 118.83 62.669C118.508 62.3646 118.264 61.9909 118.009 61.6329C118.002 62.0066 117.995 62.3803 117.986 62.754C117.648 62.8099 117.313 62.8681 116.977 62.9263C117.293 63.0874 117.61 63.2463 117.933 63.4007C117.921 63.7901 117.906 64.1795 117.897 64.5688C118.13 64.269 118.36 63.9691 118.591 63.6693C118.823 63.799 119.054 63.9333 119.284 64.0698C119.743 65.2916 120.036 66.5851 120.408 67.8405C119.826 67.7756 119.584 67.2452 119.304 66.8156C119.307 67.1803 119.307 67.5473 119.307 67.9121C118.978 68.0195 118.651 68.1291 118.324 68.2365C118.633 68.373 118.944 68.5096 119.255 68.6461C119.239 69.0332 119.226 69.4203 119.215 69.8075C119.434 69.5143 119.651 69.2212 119.873 68.9303C120.106 69.0444 120.571 69.2749 120.804 69.3912C120.665 69.0265 120.338 68.6953 120.392 68.2813L120.448 68.0486C121.054 69.6217 121.298 71.318 121.974 72.8665C121.728 72.9202 121.482 72.9761 121.238 73.0321C121.032 72.7009 120.828 72.3697 120.622 72.0408C120.602 72.4391 120.587 72.8396 120.564 73.2402C120.238 73.2939 119.911 73.3499 119.584 73.4036C119.911 73.5624 120.24 73.7191 120.571 73.8735C120.566 74.2584 120.564 74.6433 120.564 75.0282C120.757 74.744 120.947 74.4576 121.139 74.1711C121.486 74.3188 121.829 74.471 122.175 74.6209C121.981 74.3143 121.788 74.0078 121.596 73.7012C121.697 73.4975 121.795 73.2939 121.891 73.088C122.569 74.9073 122.992 76.8117 123.592 78.6579C119.497 79.7074 115.393 80.7121 111.293 81.7437C110.991 80.4794 110.669 79.2195 110.356 77.9574C110.036 76.6953 109.722 75.4332 109.407 74.1711C109.087 72.9068 108.771 71.6424 108.46 70.3759C108.138 69.1115 107.822 67.8449 107.509 66.5784C107.191 65.314 106.869 64.0474 106.556 62.7809C106.238 61.5188 105.925 60.2566 105.609 58.9923C105.482 58.4776 105.352 57.9629 105.227 57.4482ZM114.54 59.7218C114.527 60.0754 114.518 60.4312 114.513 60.787C114.171 60.8989 113.829 61.0108 113.488 61.1271C113.82 61.2592 114.151 61.3934 114.482 61.5299C114.448 61.9081 114.419 62.2841 114.392 62.6623C114.616 62.3825 114.836 62.1006 115.053 61.8164C115.375 61.9618 115.695 62.1095 116.022 62.2527C115.827 61.9283 115.632 61.606 115.433 61.286C115.648 60.9996 115.865 60.7154 116.086 60.4312C115.751 60.5073 115.415 60.5834 115.079 60.6594C114.903 60.3439 114.726 60.0306 114.54 59.7218ZM109.017 61.0309C109.011 61.4069 109.006 61.7828 109.004 62.1588C108.666 62.2572 108.326 62.3534 107.986 62.4474C108.308 62.5817 108.63 62.7182 108.952 62.8569C108.944 63.2463 108.939 63.6357 108.941 64.0251C109.134 63.7453 109.324 63.4656 109.514 63.1859C109.861 63.3134 110.206 63.4544 110.552 63.5887C110.358 63.2732 110.163 62.9599 109.968 62.6466C110.183 62.3512 110.403 62.0581 110.615 61.7649C110.284 61.8477 109.955 61.9305 109.624 62.0155C109.425 61.6866 109.225 61.3554 109.017 61.0309ZM112.504 62.9487C112.499 63.3269 112.495 63.7051 112.49 64.0855C112.132 64.1705 111.777 64.2555 111.423 64.3451C111.768 64.5039 112.112 64.6606 112.457 64.8217C112.423 65.1976 112.392 65.5736 112.363 65.9495C112.593 65.6586 112.819 65.361 113.043 65.0656C113.363 65.2357 113.685 65.4035 114.008 65.5714C113.815 65.2267 113.614 64.8866 113.415 64.5465C113.636 64.26 113.855 63.9736 114.072 63.6827C113.73 63.7722 113.392 63.8684 113.054 63.9602C112.871 63.62 112.687 63.2844 112.504 62.9487ZM115.86 65.0007C115.852 65.3655 115.845 65.7325 115.84 66.0972C115.511 66.1935 115.185 66.2919 114.86 66.3993C115.173 66.5493 115.487 66.6992 115.802 66.8491C115.771 67.2273 115.737 67.6033 115.711 67.9814C115.941 67.6928 116.165 67.3996 116.386 67.1042C116.706 67.2654 117.024 67.422 117.349 67.5764C117.158 67.2385 116.961 66.9073 116.762 66.5761C116.991 66.2874 117.217 65.9965 117.438 65.7034C117.091 65.7974 116.749 65.8936 116.402 65.9831C116.223 65.6542 116.044 65.3252 115.86 65.0007ZM110.344 66.3501C110.333 66.7193 110.326 67.093 110.322 67.4645C109.997 67.5518 109.677 67.6413 109.357 67.733C109.666 67.8875 109.98 68.0351 110.291 68.1873C110.279 68.5655 110.271 68.9414 110.264 69.3196C110.474 69.0332 110.687 68.7445 110.899 68.4581C111.224 68.6125 111.551 68.7669 111.877 68.9191C111.685 68.5901 111.492 68.2589 111.304 67.9255C111.519 67.6346 111.734 67.3437 111.951 67.0528C111.627 67.1423 111.309 67.2497 110.978 67.3012C110.74 67.0013 110.55 66.6679 110.344 66.3501ZM113.811 68.203C113.802 68.5722 113.795 68.9437 113.791 69.3129C113.446 69.4159 113.101 69.5143 112.757 69.6128C113.09 69.7538 113.426 69.897 113.759 70.0424C113.723 70.4184 113.685 70.7943 113.652 71.1725C113.918 70.9219 114.084 70.5079 114.433 70.3759C114.724 70.4922 115.015 70.6175 115.301 70.7518C115.113 70.4296 114.905 70.1185 114.751 69.7806C114.936 69.4807 115.162 69.2077 115.375 68.9258C115.044 69.0108 114.715 69.0936 114.384 69.1764C114.193 68.8519 114.003 68.5252 113.811 68.203ZM117.192 70.3042C117.174 70.6914 117.156 71.0808 117.138 71.4679C116.803 71.5171 116.465 71.5686 116.131 71.6178C116.456 71.808 116.8 71.9669 117.105 72.1952C117.093 72.5554 117.071 72.918 117.04 73.2782C117.268 72.9896 117.494 72.6987 117.72 72.4078C118.038 72.5666 118.356 72.7255 118.678 72.8822C118.488 72.5443 118.291 72.2131 118.094 71.8819C118.315 71.5999 118.532 71.3135 118.747 71.0248C118.412 71.1098 118.083 71.2016 117.754 71.2978C117.566 70.9666 117.378 70.6354 117.192 70.3042ZM111.662 71.6447C111.651 72.0385 111.647 72.4324 111.64 72.8262C111.311 72.8732 110.984 72.9247 110.658 72.9761C110.971 73.1529 111.291 73.3185 111.613 73.4819C111.613 73.8556 111.611 74.2293 111.613 74.6052C111.826 74.3188 112.034 74.0279 112.244 73.7392C112.566 73.916 112.893 74.0883 113.218 74.2629C113.018 73.9115 112.822 73.5602 112.627 73.2089C112.842 72.9314 113.057 72.6561 113.267 72.3787C112.94 72.457 112.618 72.5465 112.296 72.6427C112.085 72.3071 111.877 71.9736 111.662 71.6447ZM115.126 73.4394C115.104 73.8332 115.084 74.2271 115.059 74.6209C114.811 74.6567 114.314 74.7328 114.066 74.7708C114.379 74.9364 114.695 75.0953 115.019 75.2475C115.01 75.6369 114.994 76.0262 114.985 76.4178C115.216 76.1269 115.444 75.8338 115.67 75.5384C115.988 75.704 116.308 75.8673 116.628 76.0285C116.442 75.704 116.25 75.3818 116.055 75.064C116.254 74.7597 116.458 74.4553 116.662 74.151C116.342 74.2427 116.026 74.339 115.708 74.4397C115.516 74.1062 115.323 73.7706 115.126 73.4394ZM118.212 75.7018L118.526 75.8181C118.51 76.0419 118.479 76.485 118.463 76.7065C118.134 76.8206 117.801 76.9191 117.463 76.9974C117.794 77.1451 118.123 77.295 118.454 77.4495C118.414 77.8254 118.376 78.2013 118.338 78.5773C118.561 78.3199 118.77 78.0492 119.011 77.8097C119.372 77.7739 119.678 78.0604 120.016 78.1544C119.817 77.8366 119.618 77.5211 119.419 77.2055C119.636 76.9124 119.853 76.6215 120.072 76.3328C119.826 76.3955 119.333 76.5185 119.085 76.5812C118.826 76.2791 118.734 75.5473 118.212 75.7018ZM112.971 76.937C112.974 77.3241 112.976 77.7113 112.983 78.0984C112.647 78.1745 112.311 78.2483 111.978 78.3222C112.305 78.4766 112.634 78.6288 112.965 78.7765C112.956 79.1636 112.942 79.5485 112.931 79.9356C113.128 79.6514 113.325 79.365 113.524 79.0808C113.867 79.224 114.205 79.3717 114.547 79.5194C114.348 79.1994 114.151 78.8816 113.952 78.5661C114.166 78.2685 114.388 77.9753 114.605 77.6777C114.276 77.7605 113.947 77.8455 113.62 77.9306C113.406 77.5971 113.191 77.266 112.971 76.937Z" fill="#0101FD"/>
<path d="M48.2433 56.7066C48.937 56.5096 49.6486 56.7513 50.3311 56.8901C52.9985 57.4831 55.6727 58.038 58.349 58.5863C58.7541 58.6736 59.1412 58.8168 59.5284 58.9622C58.5549 64.7446 57.5099 70.5159 56.5141 76.296C52.3541 75.6113 48.1963 74.9287 44.043 74.2127C44.8687 68.9226 45.7951 63.6526 46.6209 58.3648C46.6835 57.4943 47.4533 56.9102 48.2433 56.7066Z" fill="#1DA1F2"/>
<path d="M61.9006 59.6454C62.5093 59.2112 63.2769 59.4261 63.946 59.5514C69.3211 60.6613 74.7029 61.7354 80.0691 62.8857C80.5659 62.9013 81.0067 63.5749 80.4741 63.8882C79.4895 64.4543 78.3662 64.7251 77.3614 65.2577C76.9966 68.0706 77.3905 71.1184 78.986 73.5196C80.1698 75.35 82.3807 76.3615 84.5357 76.2631C88.1385 76.187 91.4683 74.5333 94.4871 72.7028C95.7425 72.9981 97.0135 73.2622 98.213 73.75C99.5176 74.2804 100.576 75.2404 101.594 76.1847C104.826 79.2751 108.077 82.3408 111.297 85.4402C93.6546 82.4975 76.0143 79.5414 58.3672 76.6256C59.2802 71.4295 60.2201 66.2401 61.1286 61.044C61.2203 60.5114 61.4106 59.9407 61.9006 59.6454Z" fill="#1DA1F2"/>
<path d="M92.8133 58.9986C96.848 57.92 101.037 57.2711 105.222 57.4478C105.347 57.9625 105.477 58.4772 105.604 58.9919C98.0609 60.9164 90.4972 62.7693 82.9492 64.6781C85.3034 63.3891 87.6955 62.1404 89.8416 60.5091C90.7143 59.8042 91.7123 59.2515 92.8133 58.9986Z" fill="#FF1E26"/>
<path d="M78.7461 69.7532C88.0127 67.4125 97.2928 65.1322 106.555 62.7803C106.868 64.0469 107.19 65.3134 107.508 66.5778C98.5951 68.8223 89.6731 71.0309 80.7601 73.2777C79.6904 72.3691 79.169 71.0511 78.7461 69.7532Z" fill="#FF1E26"/>
<path d="M100.051 72.4656C102.855 71.7808 105.65 71.0602 108.456 70.3755C108.767 71.6421 109.082 72.9064 109.402 74.1707C107.44 74.6205 105.5 75.18 103.531 75.6007C102.358 74.5713 101.259 73.4547 100.051 72.4656Z" fill="#FF1E26"/>
<path d="M126.395 81.9803C132.454 80.481 138.505 78.9458 144.565 77.4465C144.738 78.1581 144.988 78.8653 144.997 79.6037C144.856 80.3377 144.357 80.9352 144.037 81.5976L143.979 81.6133C138.747 82.9201 133.522 84.2516 128.281 85.5271C126.943 84.8715 126.907 83.1998 126.395 81.9803Z" fill="#FF1E26"/>
<path d="M106.895 78.8007C108.051 78.5321 109.197 78.2256 110.354 77.957C110.667 79.2191 110.99 80.479 111.292 81.7433C110.923 81.8351 110.556 81.9246 110.189 82.0186C109.099 80.9377 107.996 79.8703 106.895 78.8007Z" fill="#FF1E26"/>
<path d="M113.441 85.2278C117.185 84.2991 120.918 83.3279 124.671 82.4373C125.105 83.6747 125.369 84.9659 125.814 86.2012C122.742 86.8703 119.712 87.7229 116.65 88.4367L116.606 88.4479C115.587 87.3402 114.498 86.2997 113.441 85.2278Z" fill="#FF1E26"/>
<path d="M64.6882 89.3833C65.8809 89.0387 67.096 88.7747 68.2955 88.4636C69.2107 89.1887 70.0723 90.0278 70.5735 91.0997C70.8376 91.4712 70.4393 91.8382 70.1439 92.0284C67.322 92.7467 64.4913 93.4225 61.6761 94.1632C61.4994 93.5635 61.2152 92.9638 61.2733 92.3238C62.3564 91.2899 63.5044 90.3008 64.6882 89.3833Z" fill="#FF1E26"/>
<path d="M67.6443 96.6964C70.7168 95.8796 73.8139 95.1613 76.8886 94.3557C76.9624 94.716 77.043 95.074 77.128 95.4321C76.7185 96.3876 75.8502 97.0008 75.1431 97.7213C74.6038 98.2092 74.1339 98.7776 73.5498 99.2139C70.5601 99.9971 67.557 100.722 64.5629 101.474L64.5226 101.485C64.366 100.886 63.8043 100.055 64.4712 99.572C65.5363 98.6231 66.5456 97.6027 67.6443 96.6964Z" fill="#FF1E26"/>
<path d="M76.8789 98.4266C77.6151 97.5516 78.8168 97.3211 79.8954 97.5695L79.5821 97.6836C78.6937 97.9745 77.7718 98.1468 76.8789 98.4266Z" fill="#FF1E26"/>
<path d="M71.1453 103.875C74.6385 102.962 78.145 102.103 81.6516 101.239C80.0002 103.065 78.2278 104.79 76.4891 106.527C74.6496 107.037 72.7856 107.456 70.9372 107.937L70.9059 107.946C70.2972 107.221 69.8519 106.381 69.5117 105.502C70.0175 104.927 70.521 104.327 71.1453 103.875Z" fill="#FF1E26"/>
<path d="M82.0891 103.309C82.4494 102.951 82.8388 102.483 83.4116 102.586C84.441 102.588 85.2198 103.391 85.674 104.242C83.6936 104.781 81.6818 105.193 79.7148 105.777C80.4645 104.915 81.2992 104.134 82.0891 103.309Z" fill="#FF1E26"/>
<path d="M77.8398 110.244C80.6639 109.521 83.4925 108.81 86.3255 108.12C86.2807 108.776 86.3613 109.459 86.1711 110.096C84.862 111.835 82.4094 112.753 80.3126 112.019C79.3257 111.694 78.5515 110.969 77.8398 110.244Z" fill="#FF1E26"/>
<path d="M44.0376 74.2131C48.1909 74.9292 52.3487 75.6117 56.5087 76.2965C55.5868 81.5374 54.676 86.7805 53.7563 92.0236C53.6981 92.3257 53.584 92.809 53.1812 92.762C50.8046 92.5562 48.4281 92.31 46.0471 92.1355C45.0782 92.0706 43.9504 92.1511 43.2164 91.3903C42.4645 90.6406 41.4619 89.7567 41.7327 88.5707C42.5025 83.7841 43.3171 79.0064 44.0376 74.2131Z" fill="#FED501"/>
<path d="M58.3589 76.6255C76.006 79.5413 93.6464 82.4974 111.289 85.4401C113.831 87.924 116.378 90.4035 118.918 92.8896C119.714 93.6617 120.079 94.8857 119.696 95.9487C119.217 97.5666 117.172 98.4326 115.666 97.7008C115.057 97.4412 114.673 96.8796 114.182 96.4656C110.846 93.8519 107.543 91.1912 104.215 88.564C103.766 88.1567 103.045 87.9643 102.559 88.4297C102.103 88.7632 102.222 89.3629 102.183 89.8507C104.585 91.9721 107.189 93.8541 109.669 95.8815C110.573 96.6804 111.902 97.0564 112.403 98.2513C113.381 100.066 112.278 102.572 110.289 103.087C108.989 103.512 107.552 103 106.648 102.017C103.654 99.5448 100.566 97.1839 97.5356 94.7537C97.1037 94.4382 96.5913 93.9593 96.0162 94.2099C95.1479 94.5098 94.9644 95.8345 95.7454 96.338C97.7348 97.947 99.7645 99.5067 101.763 101.104C102.698 101.812 103.562 102.626 104.605 103.177C105.498 103.635 106.194 104.533 106.241 105.555C106.25 106.598 105.542 107.513 104.674 108.026C103.278 108.827 101.488 108.879 100.051 108.147C99.2677 107.775 98.7776 107.026 98.0996 106.518C95.591 104.551 93.0981 102.564 90.5963 100.59C90.1264 100.203 89.3006 99.9341 88.8217 100.438C88.2757 100.981 88.4257 101.973 89.0813 102.364C91.6078 104.372 94.1297 106.39 96.6763 108.373C95.5597 109.959 93.5748 110.534 91.7465 110.792C90.5426 110.991 89.323 110.832 88.1348 110.619C88.0788 108.547 88.2645 106.437 87.6872 104.414C87.2978 102.774 86.3177 101.082 84.6125 100.563C84.1045 100.308 83.2273 100.326 83.1378 99.6208C82.9364 98.2894 82.3389 96.9176 81.1507 96.1903C80.3204 95.6309 79.2911 95.6063 78.3266 95.5705C78.1834 93.8989 77.1674 92.4398 75.9322 91.3702C74.905 90.493 73.4818 90.5243 72.2152 90.6228C71.1769 89.3539 70.2549 87.8569 68.7064 87.1564C67.3145 86.5164 65.5668 86.6261 64.3472 87.5861C62.6846 88.8974 61.089 90.2893 59.4689 91.6521C59.1981 91.8312 58.9497 92.131 58.5962 92.1221C57.6071 92.1355 56.6292 91.952 55.6445 91.8826C56.562 86.7984 57.4504 81.7097 58.3589 76.6255Z" fill="#FED501"/>
<defs>
<filter id="filter0_d_513_984" x="0" y="0" width="186" height="186" filterUnits="userSpaceOnUse" color-interpolation-filters="sRGB">
<feFlood flood-opacity="0" result="BackgroundImageFix"/>
<feColorMatrix in="SourceAlpha" type="matrix" values="0 0 0 0 0 0 0 0 0 0 0 0 0 0 0 0 0 0 127 0" result="hardAlpha"/>
<feOffset dy="10"/>
<feGaussianBlur stdDeviation="16.5"/>
<feComposite in2="hardAlpha" operator="out"/>
<feColorMatrix type="matrix" values="0 0 0 0 0 0 0 0 0 0 0 0 0 0 0 0 0 0 0.03 0"/>
<feBlend mode="normal" in2="BackgroundImageFix" result="effect1_dropShadow_513_984"/>
<feBlend mode="normal" in="SourceGraphic" in2="effect1_dropShadow_513_984" result="shape"/>
</filter>
</defs>
</svg>
