<svg width="86" height="86" viewBox="0 0 86 86" fill="none" xmlns="http://www.w3.org/2000/svg">
<g clip-path="url(#clip0_29_377)">
<path d="M43 86C66.7482 86 86 66.7482 86 43C86 19.2518 66.7482 0 43 0C19.2518 0 0 19.2518 0 43C0 66.7482 19.2518 86 43 86Z" fill="#FC4581"/>
<path d="M65.9341 6.6234H20.0652C20.8838 6.10605 21.7202 5.61615 22.5746 5.15367C28.6261 1.87872 35.3789 0.113722 42.2589 0.00878906H43.7404C44.5634 0.0205469 45.3798 0.0591797 46.191 0.117969C53.2072 0.628271 59.9889 2.86286 65.9341 6.6234Z" fill="#DB1B1B"/>
<path d="M74.0339 13.2386H11.9661C12.0064 13.195 12.0484 13.153 12.0904 13.1093C12.8742 12.303 13.6833 11.5287 14.5175 10.7863C15.3204 10.0775 16.1496 9.39719 17.0051 8.74547C17.9928 7.99633 19.0208 7.28582 20.0655 6.62402H65.9344C68.8933 8.49117 71.6132 10.7125 74.0339 13.2386Z" fill="white"/>
<path d="M79.2426 19.8502H6.75732C7.37041 18.8945 8.02045 17.9606 8.70576 17.0586C9.71738 15.7226 10.806 14.4467 11.966 13.2373H74.0338C75.9807 15.2673 77.7251 17.482 79.2426 19.8502Z" fill="#DB1B1B"/>
<path d="M82.7048 26.4662H3.2959C3.50418 25.9623 3.72254 25.4684 3.95266 24.9746C4.68351 23.3935 5.50975 21.8582 6.42684 20.3773C6.53602 20.2093 6.64687 20.0279 6.76277 19.8516H79.243C80.587 21.9516 81.7453 24.1649 82.7048 26.4662Z" fill="white"/>
<path d="M84.8478 33.079H1.15234C1.39198 32.0544 1.67193 31.0466 1.99219 30.0556C2.37628 28.8328 2.81299 27.6368 3.30234 26.4678H82.7045C83.5982 28.6094 84.315 30.8205 84.8478 33.079Z" fill="#DB1B1B"/>
<path d="M85.874 39.6937H0.125977C0.294312 37.4654 0.637464 35.2537 1.15227 33.0791H84.8477C85.3625 35.2537 85.7057 37.4654 85.874 39.6937Z" fill="white"/>
<path d="M86 42.9997C86 44.1116 85.958 45.2141 85.874 46.307H0.125977C0.0419922 45.2152 0 44.1128 0 42.9997V40.8581C0.000167461 40.9139 0.0158708 40.9686 0.0453516 41.016C0.0453516 40.9001 0.0554297 40.7842 0.0621484 40.67C0.0789453 40.3424 0.100781 40.0182 0.125977 39.6924H85.874C85.958 40.7842 86 41.8866 86 42.9997Z" fill="#DB1B1B"/>
<path d="M85.874 46.3076C85.7058 48.536 85.3627 50.7477 84.8477 52.9222H1.15227C0.637322 50.7477 0.294168 48.536 0.125977 46.3076H85.874Z" fill="white"/>
<path d="M84.8478 52.9229C84.3161 55.1822 83.5992 57.394 82.7045 59.5358H3.29563C2.40092 57.394 1.68407 55.1822 1.15234 52.9229H84.8478Z" fill="#DB1B1B"/>
<path d="M82.7048 59.5352C81.7464 61.8369 80.588 64.0503 79.243 66.1498H6.75773C5.41272 64.0503 4.25434 61.8369 3.2959 59.5352H82.7048Z" fill="white"/>
<path d="M79.2426 66.1504C77.7262 68.5194 75.9822 70.7347 74.0356 72.765H11.9661C10.0194 70.7347 8.27547 68.5194 6.75903 66.1504H79.2426Z" fill="#DB1B1B"/>
<path d="M74.0339 72.7637C71.6119 75.2884 68.8922 77.5096 65.9344 79.3783H20.0655C17.1078 77.5096 14.388 75.2884 11.9661 72.7637H74.0339Z" fill="white"/>
<path d="M65.9345 79.3789C59.3156 83.5693 51.6724 85.8598 43.8399 86.0002H42.1602C34.3262 85.8635 26.6805 83.5759 20.0588 79.3873L65.9345 79.3789Z" fill="#DB1B1B"/>
<path d="M46.1914 0.117969V46.3094H0.125977C0.0419922 45.2165 0 44.1135 0 43.0004V40.8588C0.000167461 40.9146 0.0158708 40.9693 0.0453516 41.0167C0.0453516 40.9008 0.0554297 40.7849 0.0621484 40.6707C0.0789453 40.3431 0.100781 40.0189 0.125977 39.6931C0.294312 37.4647 0.637464 35.2531 1.15227 33.0785C1.3919 32.0539 1.67185 31.0461 1.99211 30.055C2.3762 28.8322 2.81292 27.6363 3.30227 26.4672C3.51055 25.9633 3.72891 25.4695 3.95902 24.9757C4.68987 23.3945 5.51612 21.8593 6.4332 20.3784C6.54238 20.2104 6.65324 20.029 6.76914 19.8526C7.38223 18.8969 8.03227 17.963 8.71758 17.061C9.72535 15.7247 10.81 14.4482 11.9661 13.238C12.0064 13.1943 12.0484 13.1523 12.0904 13.1087C12.8742 12.3024 13.6833 11.5281 14.5175 10.7857C15.3204 10.0768 16.1496 9.39656 17.0052 8.74484C17.9928 7.9957 19.0208 7.28519 20.0655 6.6234C20.8841 6.10605 21.7206 5.61615 22.575 5.15367C28.6264 1.87872 35.3793 0.113722 42.2593 0.00878906H43.7407C44.5638 0.0205469 45.3801 0.0591797 46.1914 0.117969Z" fill="#3E436D"/>
<path d="M41.2201 2.75498L41.808 4.56401C41.8278 4.62545 41.8667 4.67903 41.9189 4.71705C41.9711 4.75507 42.034 4.77559 42.0986 4.77565H44.0084C44.0718 4.77813 44.1329 4.80032 44.1832 4.83913C44.2335 4.87794 44.2704 4.93145 44.2889 4.99221C44.3074 5.05298 44.3064 5.11799 44.2863 5.17821C44.2661 5.23844 44.2277 5.29088 44.1763 5.32826L42.6361 6.44693C42.5846 6.4842 42.5463 6.5367 42.5264 6.597C42.5065 6.6573 42.5061 6.72233 42.5252 6.78287L43.1131 8.59358C43.1312 8.65457 43.1297 8.71968 43.1091 8.77983C43.0884 8.83999 43.0494 8.89219 42.9977 8.92917C42.9459 8.96614 42.8839 8.98605 42.8203 8.98611C42.7567 8.98617 42.6946 8.96639 42.6428 8.92951L41.1042 7.81084C41.0518 7.77312 40.989 7.75282 40.9245 7.75282C40.8599 7.75282 40.7971 7.77312 40.7447 7.81084L39.2045 8.92951C39.1526 8.96639 39.0906 8.98617 39.027 8.98611C38.9633 8.98605 38.9013 8.96614 38.8496 8.92917C38.7978 8.89219 38.7589 8.83999 38.7382 8.77983C38.7175 8.71968 38.7161 8.65457 38.7341 8.59358L39.3237 6.78287C39.3421 6.72228 39.3413 6.65749 39.3215 6.59736C39.3016 6.53723 39.2637 6.48469 39.2129 6.44693L37.6726 5.32826C37.6205 5.29026 37.5818 5.23677 37.562 5.17545C37.5421 5.11412 37.5422 5.0481 37.5621 4.9868C37.582 4.9255 37.6208 4.87208 37.673 4.83416C37.7251 4.79623 37.7879 4.77575 37.8523 4.77565H39.7554C39.8199 4.77533 39.8827 4.75472 39.9348 4.71673C39.987 4.67875 40.0259 4.62532 40.046 4.56401L40.6339 2.75498C40.6526 2.69178 40.6913 2.63632 40.7441 2.59688C40.7969 2.55744 40.8611 2.53613 40.927 2.53613C40.9929 2.53613 41.057 2.55744 41.1099 2.59688C41.1627 2.63632 41.2013 2.69178 41.2201 2.75498Z" fill="white"/>
<path d="M20.7982 6.62445C20.7829 6.67939 20.7829 6.73748 20.7982 6.79242L21.3878 8.59977C21.4059 8.66076 21.4045 8.72587 21.3838 8.78602C21.3631 8.84618 21.3241 8.89838 21.2724 8.93536C21.2206 8.97233 21.1586 8.99224 21.095 8.9923C21.0314 8.99236 20.9693 8.97258 20.9175 8.9357L19.3772 7.81871C19.3251 7.78113 19.2626 7.76091 19.1983 7.76091C19.1341 7.76091 19.0715 7.78113 19.0194 7.81871L17.4792 8.9357C17.4374 8.96656 17.3885 8.98622 17.337 8.9928C17.2855 8.99938 17.2332 8.99267 17.185 8.9733C17.1369 8.95394 17.0945 8.92256 17.0619 8.88217C17.0293 8.84177 17.0075 8.7937 16.9988 8.74254C17.9864 7.9934 19.0144 7.28289 20.0592 6.62109C20.8777 6.10375 21.7142 5.61384 22.5686 5.15137C22.5494 5.21941 22.5073 5.27873 22.4494 5.31934L20.9091 6.43801C20.8509 6.48482 20.8116 6.55101 20.7982 6.62445Z" fill="white"/>
<path d="M41.2197 16.8341L41.8076 18.6448C41.8275 18.7061 41.8664 18.7594 41.9186 18.7972C41.9709 18.8349 42.0337 18.8551 42.0982 18.8548H44.008C44.0724 18.8549 44.1352 18.8753 44.1873 18.9133C44.2394 18.9512 44.2782 19.0046 44.2982 19.0659C44.3181 19.1272 44.3181 19.1932 44.2983 19.2546C44.2785 19.3159 44.2397 19.3694 44.1877 19.4074L42.6474 20.526C42.596 20.5633 42.5576 20.6158 42.5377 20.6761C42.5178 20.7364 42.5174 20.8014 42.5366 20.862L43.1177 22.6761C43.1358 22.737 43.1344 22.8022 43.1137 22.8623C43.093 22.9225 43.0541 22.9747 43.0023 23.0116C42.9505 23.0486 42.8885 23.0685 42.8249 23.0686C42.7613 23.0686 42.6992 23.0489 42.6474 23.012L41.1088 21.8933C41.0565 21.8556 40.9936 21.8353 40.9291 21.8353C40.8646 21.8353 40.8017 21.8556 40.7494 21.8933L39.2091 23.012C39.1573 23.0489 39.0952 23.0686 39.0316 23.0686C38.968 23.0685 38.906 23.0486 38.8542 23.0116C38.8024 22.9747 38.7635 22.9225 38.7428 22.8623C38.7221 22.8022 38.7207 22.737 38.7388 22.6761L39.3284 20.8653C39.3467 20.8048 39.3459 20.74 39.3261 20.6798C39.3062 20.6197 39.2683 20.5672 39.2175 20.5294L37.6772 19.4107C37.6252 19.3727 37.5864 19.3192 37.5666 19.2579C37.5468 19.1966 37.5468 19.1306 37.5667 19.0693C37.5867 19.008 37.6255 18.9546 37.6776 18.9166C37.7297 18.8787 37.7925 18.8582 37.8569 18.8581H39.76C39.8244 18.8582 39.8872 18.8379 39.9393 18.8002C39.9915 18.7625 40.0305 18.7093 40.0506 18.6482L40.6385 16.8375C40.6582 16.7761 40.6967 16.7224 40.7487 16.6843C40.8007 16.6461 40.8634 16.6254 40.9279 16.625C40.9923 16.6246 41.0553 16.6447 41.1077 16.6822C41.1601 16.7198 41.1993 16.7729 41.2197 16.8341Z" fill="white"/>
<path d="M30.3576 16.8353L30.9455 18.646C30.9654 18.7073 31.0043 18.7606 31.0566 18.7984C31.1088 18.8361 31.1717 18.8563 31.2361 18.856H33.1392C33.2036 18.8561 33.2664 18.8766 33.3185 18.9145C33.3706 18.9524 33.4094 19.0058 33.4294 19.0671C33.4493 19.1284 33.4494 19.1944 33.4295 19.2558C33.4097 19.3171 33.371 19.3706 33.3189 19.4086L31.7786 20.5273C31.7274 20.5647 31.6892 20.6172 31.6693 20.6774C31.6494 20.7377 31.6489 20.8026 31.6678 20.8632L32.2506 22.6773C32.2694 22.7382 32.2685 22.8035 32.2482 22.8639C32.2278 22.9243 32.189 22.9768 32.1372 23.0139C32.0854 23.051 32.0232 23.0709 31.9595 23.0708C31.8957 23.0707 31.8337 23.0505 31.782 23.0132L30.2417 21.8945C30.1894 21.8568 30.1265 21.8365 30.062 21.8365C29.9975 21.8365 29.9346 21.8568 29.8823 21.8945L28.347 23.0132C28.2954 23.0505 28.2333 23.0707 28.1695 23.0708C28.1058 23.0709 28.0436 23.051 27.9918 23.0139C27.94 22.9768 27.9012 22.9243 27.8808 22.8639C27.8605 22.8035 27.8596 22.7382 27.8784 22.6773L28.4663 20.8666C28.4852 20.806 28.4846 20.741 28.4648 20.6808C28.4449 20.6206 28.4066 20.5681 28.3554 20.5306L26.8152 19.4119C26.7631 19.3739 26.7244 19.3205 26.7045 19.2591C26.6847 19.1978 26.6848 19.1318 26.7047 19.0705C26.7246 19.0092 26.7634 18.9558 26.8155 18.9178C26.8677 18.8799 26.9304 18.8594 26.9949 18.8593H28.8913C28.9557 18.8596 29.0186 18.8395 29.0708 18.8017C29.123 18.764 29.1619 18.7106 29.1818 18.6494L29.7697 16.8387C29.7876 16.7747 29.8258 16.7183 29.8787 16.6779C29.9315 16.6376 29.996 16.6156 30.0624 16.6152C30.1288 16.6149 30.1936 16.6361 30.2469 16.6758C30.3001 16.7155 30.339 16.7715 30.3576 16.8353Z" fill="white"/>
<path d="M11.5901 19.4093L10.9804 19.8511L10.0498 20.5229C9.9988 20.5605 9.96072 20.6131 9.94086 20.6732C9.921 20.7334 9.92034 20.7983 9.93896 20.8589L10.5319 22.6763C10.5489 22.7371 10.5467 22.8017 10.5257 22.8612C10.5047 22.9208 10.4659 22.9724 10.4145 23.0091C10.3631 23.0459 10.3017 23.0658 10.2385 23.0664C10.1754 23.0669 10.1136 23.048 10.0616 23.0122L8.52298 21.8919C8.47065 21.8542 8.40777 21.8339 8.34326 21.8339C8.27874 21.8339 8.21587 21.8542 8.16353 21.8919L6.62326 23.0122C6.57124 23.048 6.50945 23.0669 6.4463 23.0664C6.38316 23.0658 6.32171 23.0459 6.27032 23.0091C6.21893 22.9724 6.1801 22.9208 6.1591 22.8612C6.1381 22.8017 6.13595 22.7371 6.15294 22.6763L6.74251 20.8673C6.76039 20.8066 6.75936 20.742 6.73955 20.682C6.71975 20.622 6.68211 20.5694 6.63166 20.5313L6.42673 20.3818C6.53591 20.2139 6.64677 20.0325 6.76267 19.8561C7.37576 18.9004 8.0258 17.9664 8.71111 17.0645L9.22173 18.645C9.2416 18.7065 9.28043 18.7601 9.33263 18.7981C9.38483 18.8361 9.44774 18.8566 9.51232 18.8567H11.4221C11.4851 18.8601 11.5455 18.8828 11.5951 18.9217C11.6447 18.9607 11.6811 19.0139 11.6995 19.0742C11.7178 19.1345 11.7172 19.1991 11.6976 19.259C11.678 19.3189 11.6405 19.3714 11.5901 19.4093Z" fill="white"/>
<path d="M41.2198 31.1776L41.8077 32.9883C41.8278 33.0494 41.8668 33.1026 41.919 33.1403C41.9712 33.1781 42.0339 33.1983 42.0983 33.1983H44.0081C44.0725 33.1984 44.1353 33.2189 44.1874 33.2568C44.2395 33.2947 44.2783 33.3481 44.2983 33.4094C44.3182 33.4707 44.3183 33.5367 44.2984 33.5981C44.2786 33.6594 44.2399 33.7129 44.1878 33.7509L42.6475 34.8696C42.5961 34.9068 42.5577 34.9593 42.5378 35.0196C42.5179 35.0799 42.5175 35.1449 42.5367 35.2055L43.1246 37.0162C43.1426 37.0772 43.1412 37.1423 43.1205 37.2025C43.0998 37.2626 43.0609 37.3148 43.0091 37.3518C42.9574 37.3888 42.8954 37.4087 42.8317 37.4087C42.7681 37.4088 42.7061 37.389 42.6543 37.3521L41.1157 36.2335C41.0633 36.1957 41.0004 36.1754 40.9359 36.1754C40.8714 36.1754 40.8085 36.1957 40.7562 36.2335L39.2159 37.3521C39.1641 37.389 39.102 37.4088 39.0384 37.4087C38.9748 37.4087 38.9128 37.3888 38.861 37.3518C38.8093 37.3148 38.7703 37.2626 38.7496 37.2025C38.729 37.1423 38.7275 37.0772 38.7456 37.0162L39.3352 35.2055C39.3536 35.1449 39.3528 35.0801 39.3329 35.02C39.3131 34.9598 39.2752 34.9073 39.2243 34.8696L37.6841 33.7509C37.632 33.7129 37.5933 33.6594 37.5734 33.5981C37.5536 33.5367 37.5536 33.4707 37.5736 33.4094C37.5935 33.3481 37.6323 33.2947 37.6844 33.2568C37.7366 33.2189 37.7993 33.1984 37.8638 33.1983H39.7669C39.8312 33.1981 39.8938 33.1777 39.9459 33.14C39.9981 33.1024 40.0371 33.0493 40.0575 32.9883L40.6453 31.1776C40.6668 31.1187 40.7059 31.0678 40.7573 31.0318C40.8087 30.9959 40.8699 30.9766 40.9326 30.9766C40.9953 30.9766 41.0565 30.9959 41.1079 31.0318C41.1592 31.0678 41.1983 31.1187 41.2198 31.1776Z" fill="white"/>
<path d="M30.3575 31.1773L30.9454 32.988C30.9656 33.0491 31.0045 33.1023 31.0567 33.14C31.1089 33.1777 31.1716 33.198 31.236 33.1979H33.1391C33.2035 33.198 33.2663 33.2185 33.3184 33.2564C33.3706 33.2944 33.4094 33.3478 33.4293 33.4091C33.4492 33.4704 33.4493 33.5364 33.4294 33.5977C33.4096 33.6591 33.3709 33.7125 33.3188 33.7505L31.7785 34.8692C31.7273 34.9066 31.6891 34.9592 31.6692 35.0194C31.6493 35.0796 31.6488 35.1446 31.6677 35.2052L32.2505 37.0209C32.2693 37.0818 32.2685 37.1471 32.2481 37.2075C32.2278 37.2679 32.1889 37.3204 32.1371 37.3575C32.0853 37.3947 32.0231 37.4146 31.9594 37.4145C31.8957 37.4143 31.8336 37.3942 31.7819 37.3568L30.2416 36.2382C30.1893 36.2004 30.1264 36.1801 30.0619 36.1801C29.9974 36.1801 29.9345 36.2004 29.8822 36.2382L28.3419 37.3568C28.2902 37.3942 28.2281 37.4143 28.1644 37.4145C28.1007 37.4146 28.0385 37.3947 27.9867 37.3575C27.9349 37.3204 27.8961 37.2679 27.8757 37.2075C27.8553 37.1471 27.8545 37.0818 27.8733 37.0209L28.4612 35.2102C28.48 35.1496 28.4795 35.0847 28.4596 35.0244C28.4397 34.9642 28.4015 34.9117 28.3503 34.8743L26.81 33.7556C26.758 33.7176 26.7193 33.6641 26.6994 33.6028C26.6796 33.5414 26.6796 33.4754 26.6996 33.4141C26.7195 33.3528 26.7583 33.2994 26.8104 33.2615C26.8625 33.2236 26.9253 33.2031 26.9898 33.203H28.8912C28.9555 33.203 29.0183 33.1828 29.0705 33.1451C29.1226 33.1074 29.1616 33.0541 29.1817 32.993L29.7696 31.1823C29.7873 31.1183 29.8254 31.0617 29.8781 31.0213C29.9308 30.9808 29.9952 30.9586 30.0617 30.958C30.1281 30.9574 30.1929 30.9785 30.2463 31.0181C30.2997 31.0577 30.3387 31.1135 30.3575 31.1773Z" fill="white"/>
<path d="M19.4945 31.1768L20.0824 32.9875C20.1028 33.0485 20.1418 33.1016 20.1939 33.1392C20.246 33.1769 20.3087 33.1973 20.373 33.1975H22.2761C22.3405 33.1976 22.4033 33.2181 22.4554 33.256C22.5075 33.2939 22.5463 33.3473 22.5663 33.4086C22.5862 33.4699 22.5862 33.536 22.5664 33.5973C22.5466 33.6586 22.5079 33.7121 22.4558 33.7501L20.9155 34.8688C20.8647 34.9065 20.8268 34.9591 20.8069 35.0192C20.7871 35.0793 20.7863 35.1441 20.8047 35.2047L21.3942 37.0154C21.4123 37.0764 21.4109 37.1415 21.3902 37.2017C21.3695 37.2618 21.3306 37.314 21.2788 37.351C21.227 37.388 21.165 37.4079 21.1014 37.4079C21.0378 37.408 20.9758 37.3882 20.9239 37.3513L19.3836 36.2327C19.3316 36.1951 19.269 36.1749 19.2048 36.1749C19.1405 36.1749 19.0779 36.1951 19.0259 36.2327L17.4856 37.3513C17.4338 37.3882 17.3717 37.408 17.3081 37.4079C17.2445 37.4079 17.1825 37.388 17.1307 37.351C17.0789 37.314 17.04 37.2618 17.0193 37.2017C16.9986 37.1415 16.9972 37.0764 17.0153 37.0154L17.6032 35.2047C17.6223 35.1442 17.6219 35.0791 17.602 35.0188C17.5821 34.9585 17.5437 34.906 17.4923 34.8688L15.9571 33.7501C15.9057 33.7127 15.8673 33.6603 15.8471 33.6C15.827 33.5398 15.826 33.4748 15.8445 33.414C15.863 33.3533 15.8999 33.2998 15.9502 33.261C16.0005 33.2221 16.0616 33.2 16.125 33.1975H18.0281C18.0925 33.1975 18.1553 33.1773 18.2074 33.1396C18.2596 33.1019 18.2986 33.0487 18.3187 32.9875L18.9066 31.1768C18.9249 31.1129 18.9634 31.0567 19.0165 31.0167C19.0695 30.9767 19.1341 30.9551 19.2006 30.9551C19.267 30.9551 19.3316 30.9767 19.3847 31.0167C19.4377 31.0567 19.4763 31.1129 19.4945 31.1768Z" fill="white"/>
<path d="M8.63414 31.1776L9.22203 32.9883C9.24219 33.0494 9.28114 33.1026 9.33332 33.1403C9.3855 33.178 9.44824 33.1983 9.51262 33.1982H11.4224C11.4859 33.2007 11.547 33.2229 11.5973 33.2617C11.6476 33.3005 11.6845 33.354 11.703 33.4148C11.7214 33.4756 11.7205 33.5406 11.7003 33.6008C11.6802 33.661 11.6417 33.7135 11.5904 33.7508L10.0501 34.8695C9.9987 34.9068 9.96033 34.9593 9.94043 35.0196C9.92053 35.0799 9.92012 35.1449 9.93926 35.2054L10.5271 37.0162C10.5452 37.0771 10.5438 37.1423 10.5231 37.2024C10.5024 37.2626 10.4635 37.3148 10.4117 37.3517C10.36 37.3887 10.2979 37.4086 10.2343 37.4087C10.1707 37.4087 10.1087 37.389 10.0568 37.3521L8.51824 36.2334C8.46591 36.1957 8.40303 36.1754 8.33852 36.1754C8.274 36.1754 8.21113 36.1957 8.15879 36.2334L6.61852 37.3521C6.56668 37.389 6.50463 37.4087 6.44102 37.4087C6.3774 37.4086 6.31539 37.3887 6.26363 37.3517C6.21187 37.3148 6.17292 37.2626 6.15223 37.2024C6.13154 37.1423 6.13014 37.0771 6.1482 37.0162L6.73777 35.2054C6.75615 35.1449 6.75536 35.0801 6.73551 35.0199C6.71567 34.9598 6.67774 34.9073 6.62692 34.8695L5.08664 33.7508C5.03458 33.7128 4.99587 33.6593 4.97602 33.598C4.95618 33.5367 4.95624 33.4707 4.97617 33.4094C4.99611 33.3481 5.0349 33.2947 5.08702 33.2567C5.13914 33.2188 5.20191 33.1983 5.26637 33.1982H7.17449C7.23881 33.198 7.30144 33.1777 7.35357 33.14C7.40569 33.1023 7.4447 33.0493 7.46508 32.9883L8.05297 31.1776C8.07299 31.1163 8.11188 31.0629 8.16407 31.025C8.21626 30.9872 8.27908 30.9668 8.34355 30.9668C8.40803 30.9668 8.47085 30.9872 8.52304 31.025C8.57523 31.0629 8.61412 31.1163 8.63414 31.1776Z" fill="white"/>
<path d="M35.788 9.39166L36.3758 11.2024C36.396 11.2635 36.435 11.3167 36.4871 11.3544C36.5393 11.3921 36.6021 11.4124 36.6664 11.4123H38.5695C38.634 11.4124 38.6967 11.4329 38.7489 11.4708C38.801 11.5088 38.8398 11.5622 38.8597 11.6235C38.8797 11.6848 38.8797 11.7508 38.8599 11.8121C38.84 11.8734 38.8013 11.9269 38.7492 11.9649L37.209 13.0836C37.1581 13.1214 37.1202 13.1739 37.1004 13.234C37.0805 13.2942 37.0797 13.359 37.0981 13.4195L37.6877 15.2303C37.7058 15.2912 37.7043 15.3564 37.6837 15.4165C37.663 15.4767 37.624 15.5289 37.5723 15.5658C37.5205 15.6028 37.4585 15.6227 37.3949 15.6228C37.3313 15.6228 37.2692 15.6031 37.2174 15.5662L35.6771 14.4475C35.625 14.4099 35.5624 14.3897 35.4982 14.3897C35.434 14.3897 35.3714 14.4099 35.3193 14.4475L33.7791 15.5662C33.7272 15.6031 33.6652 15.6228 33.6016 15.6228C33.5379 15.6227 33.4759 15.6028 33.4242 15.5658C33.3724 15.5289 33.3335 15.4767 33.3128 15.4165C33.2921 15.3564 33.2907 15.2912 33.3087 15.2303L33.8966 13.4195C33.9158 13.359 33.9154 13.294 33.8955 13.2337C33.8756 13.1734 33.8372 13.1209 33.7858 13.0836L32.2505 11.9649C32.1992 11.9276 32.1608 11.8751 32.1406 11.8149C32.1204 11.7547 32.1195 11.6897 32.138 11.6289C32.1564 11.5681 32.1934 11.5146 32.2437 11.4758C32.2939 11.437 32.355 11.4148 32.4185 11.4123H34.3216C34.386 11.4126 34.4489 11.3925 34.5011 11.3547C34.5534 11.317 34.5922 11.2636 34.6122 11.2024L35.2001 9.39166C35.2183 9.32778 35.2569 9.27158 35.3099 9.23157C35.3629 9.19156 35.4276 9.16992 35.494 9.16992C35.5604 9.16992 35.6251 9.19156 35.6781 9.23157C35.7311 9.27158 35.7697 9.32778 35.788 9.39166Z" fill="white"/>
<path d="M15.3744 13.2384C15.3551 13.2996 15.3551 13.3653 15.3744 13.4265L15.9573 15.2355C15.9749 15.2963 15.9733 15.361 15.9527 15.4208C15.932 15.4806 15.8933 15.5324 15.8418 15.5693C15.7904 15.6062 15.7289 15.6262 15.6656 15.6265C15.6023 15.6269 15.5405 15.6077 15.4887 15.5714L13.9484 14.4511C13.896 14.4134 13.8332 14.3931 13.7687 14.3931C13.7041 14.3931 13.6413 14.4134 13.5889 14.4511L12.0487 15.5714C11.9968 15.6077 11.935 15.6269 11.8717 15.6265C11.8085 15.6262 11.7469 15.6062 11.6955 15.5693C11.6441 15.5324 11.6053 15.4806 11.5847 15.4208C11.564 15.361 11.5624 15.2963 11.58 15.2355L12.1679 13.4265C12.1872 13.3653 12.1872 13.2996 12.1679 13.2384C12.1567 13.1869 12.1311 13.1397 12.094 13.1023C12.8779 12.2961 13.6869 11.5217 14.5212 10.7793L14.6555 11.1942C14.6744 11.2574 14.7132 11.3129 14.7662 11.3522C14.8192 11.3916 14.8835 11.4128 14.9495 11.4125H16.8526C16.9169 11.4132 16.9795 11.4341 17.0313 11.4723C17.0832 11.5104 17.1218 11.5639 17.1416 11.6251C17.1615 11.6863 17.1616 11.7523 17.142 11.8136C17.1224 11.8749 17.084 11.9285 17.0323 11.9668L15.492 13.0838C15.4369 13.121 15.3956 13.1753 15.3744 13.2384Z" fill="white"/>
<path d="M6.75398 26.4665C6.74973 26.5084 6.7364 26.5489 6.71494 26.5851C6.69348 26.6214 6.66439 26.6526 6.62969 26.6764L5.08941 27.7968C5.03859 27.8346 5.00066 27.8871 4.98081 27.9472C4.96097 28.0073 4.96018 28.0721 4.97855 28.1327L5.56645 29.9434C5.58522 30.0044 5.58437 30.0696 5.56402 30.13C5.54367 30.1904 5.50484 30.2429 5.45303 30.2801C5.40123 30.3172 5.33906 30.3371 5.27531 30.337C5.21157 30.3369 5.14948 30.3167 5.09781 30.2794L3.55754 29.1624C3.50584 29.1231 3.44272 29.1019 3.37781 29.1019C3.31291 29.1019 3.24979 29.1231 3.19809 29.1624L1.98535 30.0442C2.36944 28.8214 2.80616 27.6255 3.29551 26.4564C3.50379 25.9525 3.72215 25.4587 3.95227 24.9648L4.25629 25.9038C4.2761 25.9654 4.31485 26.0192 4.36703 26.0575C4.41921 26.0958 4.48215 26.1167 4.54688 26.1171H6.44996C6.49392 26.1169 6.53741 26.1262 6.57746 26.1443C6.61751 26.1624 6.65317 26.189 6.68203 26.2221C6.71089 26.2553 6.73225 26.2943 6.74467 26.3365C6.75709 26.3786 6.76026 26.423 6.75398 26.4665Z" fill="white"/>
<path d="M35.7876 24.1038L36.3755 25.9145C36.3959 25.9755 36.4349 26.0285 36.487 26.0662C36.5392 26.1039 36.6018 26.1242 36.6661 26.1244H38.5692C38.6337 26.1245 38.6964 26.145 38.7485 26.1829C38.8007 26.2209 38.8395 26.2743 38.8594 26.3356C38.8793 26.3969 38.8794 26.4629 38.8595 26.5242C38.8397 26.5856 38.801 26.639 38.7489 26.677L37.2087 27.7957C37.1578 27.8335 37.1199 27.886 37.1001 27.9461C37.0802 28.0063 37.0794 28.0711 37.0978 28.1316L37.6874 29.9424C37.7054 30.0033 37.704 30.0685 37.6833 30.1286C37.6626 30.1888 37.6237 30.241 37.5719 30.2779C37.5202 30.3149 37.4582 30.3348 37.3946 30.3349C37.3309 30.3349 37.2689 30.3152 37.2171 30.2783L35.6768 29.1596C35.6247 29.122 35.5621 29.1018 35.4979 29.1018C35.4337 29.1018 35.3711 29.122 35.319 29.1596L33.7787 30.2783C33.7269 30.3152 33.6648 30.3349 33.6012 30.3349C33.5376 30.3348 33.4756 30.3149 33.4238 30.2779C33.3721 30.241 33.3331 30.1888 33.3125 30.1286C33.2918 30.0685 33.2904 30.0033 33.3084 29.9424L33.8963 28.1316C33.9154 28.0711 33.915 28.0061 33.8951 27.9458C33.8752 27.8855 33.8369 27.833 33.7854 27.7957L32.2502 26.677C32.1982 26.639 32.1594 26.5856 32.1396 26.5242C32.1198 26.4629 32.1198 26.3969 32.1397 26.3356C32.1597 26.2743 32.1985 26.2209 32.2506 26.1829C32.3027 26.145 32.3655 26.1245 32.4299 26.1244H34.333C34.3974 26.1245 34.4602 26.1042 34.5123 26.0665C34.5645 26.0288 34.6035 25.9756 34.6236 25.9145L35.2115 24.1038C35.2326 24.0443 35.2717 23.9928 35.3233 23.9564C35.3748 23.9199 35.4364 23.9004 35.4996 23.9004C35.5627 23.9004 35.6243 23.9199 35.6759 23.9564C35.7275 23.9928 35.7665 24.0443 35.7876 24.1038Z" fill="white"/>
<path d="M24.9268 24.1044L25.5147 25.9151C25.5349 25.9762 25.5738 26.0294 25.626 26.0671C25.6782 26.1048 25.7409 26.1251 25.8053 26.125H27.7151C27.7796 26.1251 27.8423 26.1456 27.8945 26.1835C27.9466 26.2215 27.9854 26.2749 28.0053 26.3362C28.0252 26.3975 28.0253 26.4635 28.0055 26.5248C27.9856 26.5861 27.9469 26.6396 27.8948 26.6776L26.3546 27.7963C26.3031 27.8336 26.2648 27.8861 26.2449 27.9464C26.225 28.0067 26.2246 28.0717 26.2437 28.1322L26.8316 29.9429C26.8497 30.0039 26.8483 30.0691 26.8276 30.1292C26.8069 30.1894 26.7679 30.2416 26.7162 30.2785C26.6644 30.3155 26.6024 30.3354 26.5388 30.3355C26.4752 30.3355 26.4131 30.3158 26.3613 30.2789L24.8227 29.1602C24.7704 29.1225 24.7075 29.1022 24.643 29.1022C24.5784 29.1022 24.5156 29.1225 24.4632 29.1602L22.923 30.2789C22.8711 30.3158 22.8091 30.3355 22.7455 30.3355C22.6818 30.3354 22.6198 30.3155 22.5681 30.2785C22.5163 30.2416 22.4774 30.1894 22.4567 30.1292C22.436 30.0691 22.4346 30.0039 22.4526 29.9429L23.0422 28.1322C23.0606 28.0717 23.0598 28.0069 23.04 27.9467C23.0201 27.8866 22.9822 27.8341 22.9314 27.7963L21.3911 26.6776C21.339 26.6396 21.3003 26.5861 21.2805 26.5248C21.2606 26.4635 21.2607 26.3975 21.2806 26.3362C21.3005 26.2749 21.3393 26.2215 21.3915 26.1835C21.4436 26.1456 21.5064 26.1251 21.5708 26.125H23.4739C23.5382 26.1248 23.6008 26.1045 23.653 26.0668C23.7051 26.0291 23.7441 25.9761 23.7645 25.9151L24.3524 24.1044C24.3738 24.0454 24.4129 23.9945 24.4643 23.9586C24.5157 23.9226 24.5769 23.9033 24.6396 23.9033C24.7023 23.9033 24.7635 23.9226 24.8149 23.9586C24.8663 23.9945 24.9054 24.0454 24.9268 24.1044Z" fill="white"/>
<path d="M5.08976 42.2237C5.03854 42.2612 5.00031 42.3137 4.98043 42.3739C4.96056 42.4342 4.96002 42.4991 4.9789 42.5597L5.56679 44.372C5.58556 44.433 5.58471 44.4982 5.56436 44.5587C5.54401 44.6191 5.50518 44.6715 5.45338 44.7087C5.40157 44.7458 5.3394 44.7657 5.27565 44.7656C5.21191 44.7655 5.14982 44.7453 5.09815 44.708L3.55788 43.591C3.50585 43.5525 3.44286 43.5318 3.37815 43.5318C3.31345 43.5318 3.25046 43.5525 3.19843 43.591L1.65983 44.7147C1.6082 44.7527 1.54588 44.7734 1.48176 44.7739C1.41765 44.7744 1.35503 44.7546 1.30286 44.7173C1.25068 44.68 1.21163 44.6272 1.19127 44.5664C1.17092 44.5056 1.1703 44.4399 1.18952 44.3788L1.77741 42.5664C1.79681 42.5059 1.79653 42.4407 1.77662 42.3804C1.7567 42.32 1.71817 42.2675 1.66655 42.2304L0.126279 41.1034C0.0939965 41.0804 0.0665911 41.0513 0.0456543 41.0177C0.0456543 40.9018 0.0557324 40.7859 0.0624512 40.6717C0.0903911 40.6336 0.127143 40.6029 0.169559 40.5821C0.211976 40.5613 0.258794 40.5512 0.306006 40.5524H2.20909C2.27382 40.552 2.33676 40.5312 2.38894 40.4928C2.44112 40.4545 2.47987 40.4007 2.49968 40.3391L2.70964 39.6941L3.08757 38.5301C3.10759 38.4688 3.14648 38.4154 3.19867 38.3776C3.25086 38.3397 3.31368 38.3193 3.37815 38.3193C3.44263 38.3193 3.50545 38.3397 3.55764 38.3776C3.60983 38.4154 3.64872 38.4688 3.66874 38.5301L4.04667 39.6941L4.25663 40.3391C4.27644 40.4007 4.31519 40.4545 4.36737 40.4928C4.41955 40.5312 4.48249 40.552 4.54722 40.5524H6.4503C6.51485 40.5519 6.57787 40.572 6.63026 40.6097C6.68265 40.6474 6.72168 40.7008 6.74169 40.7622C6.76171 40.8235 6.76168 40.8897 6.74161 40.951C6.72153 41.0124 6.68245 41.0657 6.63003 41.1034L5.08976 42.2237Z" fill="white"/>
<path d="M35.7876 38.5286L36.3755 40.3393C36.3957 40.4004 36.4346 40.4536 36.4868 40.4913C36.539 40.529 36.6017 40.5493 36.6661 40.5492H38.5692C38.6337 40.5493 38.6964 40.5698 38.7485 40.6077C38.8007 40.6457 38.8395 40.6991 38.8594 40.7604C38.8793 40.8217 38.8794 40.8877 38.8595 40.949C38.8397 41.0104 38.801 41.0638 38.7489 41.1018L37.2087 42.2205C37.1582 42.2586 37.1206 42.3111 37.1008 42.3712C37.0809 42.4312 37.0799 42.4958 37.0978 42.5565L37.6874 44.3655C37.7054 44.4265 37.704 44.4916 37.6833 44.5517C37.6626 44.6119 37.6237 44.6641 37.5719 44.7011C37.5202 44.738 37.4582 44.758 37.3946 44.758C37.3309 44.7581 37.2689 44.7383 37.2171 44.7014L35.6768 43.5827C35.6247 43.5452 35.5621 43.5249 35.4979 43.5249C35.4337 43.5249 35.3711 43.5452 35.319 43.5827L33.7787 44.7014C33.7269 44.7383 33.6648 44.7581 33.6012 44.758C33.5376 44.758 33.4756 44.738 33.4238 44.7011C33.3721 44.6641 33.3331 44.6119 33.3125 44.5517C33.2918 44.4916 33.2904 44.4265 33.3084 44.3655L33.8963 42.5565C33.9149 42.4959 33.9143 42.431 33.8944 42.3708C33.8745 42.3106 33.8365 42.2581 33.7854 42.2205L32.2502 41.1018C32.1982 41.0638 32.1594 41.0104 32.1396 40.949C32.1198 40.8877 32.1198 40.8217 32.1397 40.7604C32.1597 40.6991 32.1985 40.6457 32.2506 40.6077C32.3027 40.5698 32.3655 40.5493 32.4299 40.5492H34.333C34.3975 40.5495 34.4603 40.5294 34.5126 40.4916C34.5648 40.4539 34.6037 40.4005 34.6236 40.3393L35.2115 38.5286C35.2326 38.4691 35.2717 38.4176 35.3233 38.3812C35.3748 38.3447 35.4364 38.3252 35.4996 38.3252C35.5627 38.3252 35.6243 38.3447 35.6759 38.3812C35.7275 38.4176 35.7665 38.4691 35.7876 38.5286Z" fill="white"/>
<path d="M24.9271 38.5284L25.515 40.3391C25.5349 40.4004 25.5738 40.4538 25.6261 40.4915C25.6783 40.5292 25.7412 40.5494 25.8056 40.5491H27.7154C27.7789 40.5516 27.84 40.5738 27.8902 40.6126C27.9405 40.6514 27.9775 40.7049 27.9959 40.7656C28.0144 40.8264 28.0135 40.8914 27.9933 40.9517C27.9731 41.0119 27.9347 41.0643 27.8834 41.1017L26.3431 42.2204C26.2921 42.258 26.254 42.3105 26.2341 42.3707C26.2143 42.4309 26.2136 42.4957 26.2322 42.5563L26.8201 44.3653C26.8382 44.4263 26.8368 44.4914 26.8161 44.5516C26.7954 44.6117 26.7565 44.6639 26.7047 44.7009C26.6529 44.7379 26.5909 44.7578 26.5273 44.7579C26.4637 44.7579 26.4016 44.7381 26.3498 44.7013L24.8112 43.5826C24.7589 43.5449 24.696 43.5246 24.6315 43.5246C24.567 43.5246 24.5041 43.5449 24.4518 43.5826L22.9115 44.7013C22.8596 44.7381 22.7976 44.7579 22.734 44.7579C22.6704 44.7578 22.6084 44.7379 22.5566 44.7009C22.5048 44.6639 22.4659 44.6117 22.4452 44.5516C22.4245 44.4914 22.4231 44.4263 22.4412 44.3653L23.0307 42.5563C23.0486 42.4957 23.0476 42.431 23.0278 42.371C23.008 42.311 22.9703 42.2584 22.9199 42.2204L21.3796 41.1017C21.3276 41.0637 21.2888 41.0102 21.269 40.9489C21.2492 40.8876 21.2492 40.8215 21.2691 40.7602C21.2891 40.6989 21.3279 40.6455 21.38 40.6076C21.4321 40.5697 21.4949 40.5492 21.5593 40.5491H23.4624C23.5268 40.5491 23.5895 40.5289 23.6417 40.4912C23.6939 40.4535 23.7328 40.4003 23.753 40.3391L24.3409 38.5284C24.3596 38.4652 24.3983 38.4098 24.4511 38.3703C24.5039 38.3309 24.5681 38.3096 24.634 38.3096C24.6999 38.3096 24.7641 38.3309 24.8169 38.3703C24.8697 38.4098 24.9084 38.4652 24.9271 38.5284Z" fill="white"/>
<path d="M14.0646 38.53L14.6525 40.3407C14.6727 40.4031 14.7126 40.4572 14.7662 40.4951C14.8198 40.5329 14.8842 40.5524 14.9498 40.5506H16.8528C16.9173 40.5507 16.9801 40.5712 17.0322 40.6091C17.0843 40.6471 17.1231 40.7005 17.143 40.7618C17.163 40.8231 17.163 40.8891 17.1432 40.9504C17.1233 41.0118 17.0846 41.0652 17.0326 41.1033L15.4923 42.2219C15.4415 42.2597 15.4035 42.3122 15.3837 42.3723C15.3639 42.4325 15.3631 42.4973 15.3814 42.5579L15.9576 44.3736C15.9763 44.4345 15.9755 44.4998 15.9551 44.5602C15.9348 44.6206 15.896 44.6731 15.8442 44.7102C15.7923 44.7474 15.7302 44.7673 15.6664 44.7672C15.6027 44.767 15.5406 44.7469 15.4889 44.7095L13.9487 43.5909C13.8963 43.5532 13.8334 43.5329 13.7689 43.5329C13.7044 43.5329 13.6415 43.5532 13.5892 43.5909L12.0489 44.7095C11.9973 44.7469 11.9352 44.767 11.8714 44.7672C11.8077 44.7673 11.7455 44.7474 11.6937 44.7102C11.6419 44.6731 11.6031 44.6206 11.5827 44.5602C11.5624 44.4998 11.5615 44.4345 11.5803 44.3736L12.1682 42.5646C12.1866 42.504 12.1858 42.4392 12.1659 42.3791C12.1461 42.3189 12.1082 42.2664 12.0573 42.2286L10.5171 41.11C10.465 41.072 10.4263 41.0185 10.4064 40.9572C10.3866 40.8958 10.3867 40.8298 10.4066 40.7685C10.4265 40.7072 10.4653 40.6538 10.5174 40.6159C10.5696 40.5779 10.6323 40.5575 10.6968 40.5574H12.5982C12.6626 40.5577 12.7255 40.5375 12.7777 40.4998C12.83 40.462 12.8688 40.4087 12.8888 40.3474L13.4767 38.5367C13.4942 38.4726 13.5321 38.4159 13.5847 38.3753C13.6373 38.3347 13.7016 38.3123 13.7681 38.3115C13.8345 38.3108 13.8994 38.3317 13.9529 38.3711C14.0064 38.4105 14.0456 38.4663 14.0646 38.53Z" fill="white"/>
<path d="M48.2067 0.312813C47.5348 0.391758 46.8629 0.490859 46.191 0.601719C41.7248 1.35405 37.407 2.81354 33.4002 4.92523C33.2558 4.99914 33.113 5.07809 32.9702 5.15367C32.1147 5.61615 31.2782 6.10605 30.4608 6.6234H20.0652C20.8838 6.10605 21.7202 5.61615 22.5746 5.15367C28.6261 1.87872 35.3789 0.113722 42.2589 0.00878906H43.7404C44.5634 0.0205469 45.3798 0.0591797 46.191 0.117969C46.8629 0.16724 47.5348 0.232188 48.2067 0.312813Z" fill="#DB1B1B"/>
<path d="M30.4611 6.62391C29.6078 7.15917 28.7764 7.72578 27.9668 8.32375C27.777 8.46148 27.5888 8.60258 27.4007 8.74535C26.6734 9.29965 25.9663 9.87242 25.2776 10.4704C25.155 10.5729 25.034 10.6787 24.9131 10.7862C24.1438 11.4664 23.4014 12.177 22.6825 12.9093L22.9243 13.0773C22.977 13.1155 23.0158 13.1697 23.0352 13.2318H11.9661C12.0064 13.1881 12.0484 13.1461 12.0904 13.1025C12.8742 12.2962 13.6833 11.5219 14.5175 10.7795C15.3204 10.0706 16.1496 9.39035 17.0051 8.73863C17.9928 7.98949 19.0208 7.27898 20.0655 6.61719L30.4611 6.62391Z" fill="white"/>
<path d="M22.3616 13.2373C21.3109 14.3328 20.3186 15.4827 19.3886 16.6823L19.1013 17.0586C18.9451 17.2652 18.7906 17.4718 18.6378 17.6818L18.3253 18.6442C18.3055 18.7057 18.2666 18.7592 18.2144 18.7973C18.1622 18.8353 18.0993 18.8558 18.0347 18.8559H17.8046C17.5796 19.1918 17.3612 19.5177 17.1462 19.8519H6.75732C7.37041 18.8962 8.02045 17.9623 8.70576 17.0603C9.71733 15.7237 10.8059 14.4472 11.966 13.2373H22.3616Z" fill="#DB1B1B"/>
<path d="M17.1533 19.8503L16.9686 20.1443L16.8224 20.3761C15.9053 21.857 15.0791 23.3922 14.3482 24.9734C14.1181 25.4655 13.8998 25.9593 13.6915 26.4632H3.2959C3.50418 25.9593 3.72254 25.4655 3.95266 24.9717C4.68351 23.3905 5.50975 21.8553 6.42684 20.3744C6.53602 20.2064 6.64687 20.025 6.76277 19.8486L17.1533 19.8503Z" fill="white"/>
<path d="M13.6912 26.4663C13.2019 27.6353 12.7651 28.8301 12.3811 30.0507C12.0675 31.044 11.7876 32.0518 11.5412 33.0741H1.15234C1.39198 32.0495 1.67193 31.0417 1.99219 30.0507C2.37628 28.8279 2.81299 27.632 3.30234 26.4629L13.6912 26.4663Z" fill="#DB1B1B"/>
<path d="M11.5898 33.7504L11.353 33.9184C10.9417 35.8208 10.6611 37.7491 10.5132 39.6898H0.125977C0.294312 37.4615 0.637464 35.2498 1.15227 33.0752H11.5479C11.5378 33.1205 11.526 33.1676 11.5159 33.2112C11.569 33.2299 11.616 33.2628 11.6516 33.3063C11.6872 33.3499 11.7101 33.4025 11.7177 33.4582C11.7254 33.514 11.7175 33.5708 11.6949 33.6223C11.6723 33.6739 11.636 33.7182 11.5898 33.7504Z" fill="white"/>
<path d="M10.3956 42.9997C10.3956 44.1116 10.4376 45.2141 10.5216 46.307H0.125977C0.0419922 45.2152 0 44.1128 0 42.9997V40.8581C0.000167461 40.9139 0.0158708 40.9686 0.0453516 41.016C0.0453516 40.9001 0.0554297 40.7842 0.0621484 40.67C0.0789453 40.3424 0.100781 40.0182 0.125977 39.6924H10.5216C10.4964 40.0182 10.4745 40.3424 10.4577 40.67C10.4577 40.7842 10.446 40.9001 10.4409 41.016C10.4257 40.9928 10.4143 40.9673 10.4073 40.9404C10.4073 40.9253 10.4073 40.9118 10.3989 40.8984C10.398 40.885 10.398 40.8715 10.3989 40.8581L10.3956 42.9997Z" fill="#DB1B1B"/>
<path d="M11.5479 52.9222H1.15227C0.637322 50.7477 0.294168 48.536 0.125977 46.3076H10.5216C10.6898 48.536 11.0329 50.7477 11.5479 52.9222Z" fill="#DBDBDB"/>
<path d="M13.6912 59.5358H3.29562C2.40092 57.394 1.68407 55.1822 1.15234 52.9229H11.5479C12.0797 55.1822 12.7965 57.394 13.6912 59.5358Z" fill="#C11A1A"/>
<path d="M17.1533 66.1498H6.75773C5.41272 64.0503 4.25434 61.8369 3.2959 59.5352H13.6915C14.6499 61.8369 15.8083 64.0503 17.1533 66.1498Z" fill="#DBDBDB"/>
<path d="M22.3617 72.765H11.9661C10.0194 70.7347 8.27547 68.5194 6.75903 66.1504H17.1546C18.6711 68.5194 20.415 70.7347 22.3617 72.765Z" fill="#C11A1A"/>
<path d="M30.4611 79.3783H20.0655C17.1078 77.5096 14.388 75.2884 11.9661 72.7637H22.3617C24.7836 75.2884 27.5034 77.5096 30.4611 79.3783Z" fill="#DBDBDB"/>
<path d="M48.207 85.6872C46.7576 85.8663 45.3 85.9706 43.8399 85.9996H42.1602C34.3262 85.8629 26.6805 83.5753 20.0588 79.3867H30.4544C35.8289 82.7827 41.8941 84.9353 48.207 85.6872Z" fill="#C11A1A"/>
<path d="M46.1914 0.117969V0.601719C41.7251 1.35405 37.4074 2.81354 33.4006 4.92523C33.2561 4.99914 33.1134 5.07809 32.9706 5.15367C32.1151 5.61615 31.2786 6.10606 30.4611 6.6234C29.6079 7.15866 28.7764 7.72527 27.9668 8.32324C27.777 8.46098 27.5889 8.60207 27.4007 8.74484C26.6734 9.29914 25.9663 9.87192 25.2776 10.4699C25.155 10.5723 25.0341 10.6782 24.9131 10.7857C24.1438 11.4659 23.4014 12.1764 22.6825 12.9088L22.9244 13.0768C22.977 13.115 23.0159 13.1692 23.0352 13.2313H22.3634C21.3127 14.3268 20.3203 15.4767 19.3903 16.6763L19.1031 17.0526C18.9469 17.2592 18.7923 17.4658 18.6395 17.6757L18.3254 18.6449C18.3055 18.7064 18.2667 18.7599 18.2145 18.798C18.1623 18.836 18.0994 18.8565 18.0348 18.8566H17.8047C17.5796 19.1925 17.3612 19.5184 17.1462 19.8526L16.9615 20.1466L16.8154 20.3784C15.8983 21.8593 15.072 23.3945 14.3412 24.9757C14.1111 25.4678 13.8927 25.9616 13.6844 26.4655C13.1995 27.6346 12.7651 28.8294 12.381 30.05C12.0674 31.0433 11.7875 32.0511 11.5411 33.0734C11.5311 33.1188 11.5193 33.1658 11.5092 33.2095C11.5619 33.2279 11.6085 33.2604 11.644 33.3034C11.6796 33.3464 11.7027 33.3983 11.7108 33.4535C11.7189 33.5087 11.7118 33.5651 11.6902 33.6165C11.6686 33.668 11.6333 33.7125 11.5882 33.7453L11.3513 33.9133C10.94 35.8157 10.6594 37.744 10.5115 39.6847C10.4863 40.0105 10.4645 40.3347 10.4477 40.6623C10.4477 40.7765 10.4359 40.8924 10.4309 41.0083C10.4156 40.9851 10.4043 40.9596 10.3973 40.9327C10.3973 40.9176 10.3973 40.9041 10.3889 40.8907C10.388 40.8773 10.388 40.8638 10.3889 40.8504V43.0004C10.3889 44.1123 10.4309 45.2148 10.5148 46.3077H0.125977C0.0419922 45.2159 0 44.1135 0 43.0004V40.8588C0.000167461 40.9146 0.0158708 40.9693 0.0453516 41.0167C0.0453516 40.9008 0.0554297 40.7849 0.0621484 40.6707C0.0789453 40.3431 0.100781 40.0189 0.125977 39.6931C0.294312 37.4647 0.637464 35.2531 1.15227 33.0785C1.3919 32.0539 1.67185 31.0461 1.99211 30.055C2.3762 28.8322 2.81292 27.6363 3.30227 26.4672C3.51055 25.9633 3.72891 25.4695 3.95902 24.9757C4.68987 23.3945 5.51612 21.8593 6.4332 20.3784C6.54238 20.2104 6.65324 20.029 6.76914 19.8526C7.38223 18.8969 8.03227 17.963 8.71758 17.061C9.72535 15.7247 10.81 14.4482 11.9661 13.238C12.0064 13.1943 12.0484 13.1523 12.0904 13.1087C12.8742 12.3024 13.6833 11.5281 14.5175 10.7857C15.3204 10.0768 16.1496 9.39656 17.0052 8.74484C17.9928 7.9957 19.0208 7.2852 20.0655 6.6234C20.8841 6.10606 21.7206 5.61615 22.575 5.15367C28.6264 1.87872 35.3793 0.113722 42.2593 0.00878906H43.7407C44.5638 0.0205469 45.3801 0.0591797 46.1914 0.117969Z" fill="#32314B"/>
<path d="M20.7982 6.62348C20.7829 6.67842 20.7829 6.73651 20.7982 6.79145L21.3878 8.59879C21.4059 8.65978 21.4045 8.72489 21.3838 8.78505C21.3631 8.8452 21.3241 8.8974 21.2724 8.93438C21.2206 8.97135 21.1586 8.99126 21.095 8.99132C21.0314 8.99138 20.9693 8.9716 20.9175 8.93473L19.3772 7.81773C19.3251 7.78015 19.2626 7.75993 19.1983 7.75993C19.1341 7.75993 19.0715 7.78015 19.0194 7.81773L17.4792 8.93473C17.4374 8.96558 17.3885 8.98524 17.337 8.99182C17.2855 8.9984 17.2332 8.99169 17.185 8.97233C17.1369 8.95296 17.0945 8.92159 17.0619 8.88119C17.0293 8.8408 17.0075 8.79273 16.9988 8.74156C17.9864 7.99242 19.0144 7.28191 20.0592 6.62012C20.8777 6.10277 21.7142 5.61286 22.5686 5.15039C22.5494 5.21843 22.5073 5.27775 22.4494 5.31836L20.9091 6.43703C20.8509 6.48385 20.8116 6.55003 20.7982 6.62348Z" fill="#DBDBDB"/>
<path d="M19.3883 16.6822L19.101 17.0584C18.9448 17.265 18.7903 17.4716 18.6375 17.6816L18.9129 16.8417C18.9268 16.7945 18.9518 16.7513 18.986 16.7158C19.0201 16.6803 19.0623 16.6536 19.109 16.638C19.1556 16.6223 19.2054 16.6181 19.254 16.6258C19.3027 16.6335 19.3487 16.6528 19.3883 16.6822Z" fill="#DBDBDB"/>
<path d="M11.5898 19.4083L10.9801 19.8501L10.0496 20.522C9.99855 20.5596 9.96048 20.6121 9.94062 20.6723C9.92076 20.7324 9.92009 20.7973 9.93871 20.8579L10.5316 22.6753C10.5486 22.7361 10.5465 22.8007 10.5255 22.8603C10.5045 22.9198 10.4657 22.9715 10.4143 23.0082C10.3629 23.0449 10.3014 23.0649 10.2383 23.0654C10.1751 23.066 10.1134 23.0471 10.0613 23.0113L8.52274 21.8909C8.4704 21.8532 8.40752 21.8329 8.34301 21.8329C8.2785 21.8329 8.21562 21.8532 8.16329 21.8909L6.62301 23.0113C6.57099 23.0471 6.50921 23.066 6.44606 23.0654C6.38291 23.0649 6.32146 23.0449 6.27008 23.0082C6.21869 22.9715 6.17985 22.9198 6.15885 22.8603C6.13785 22.8007 6.1357 22.7361 6.1527 22.6753L6.74227 20.8663C6.76015 20.8057 6.75912 20.741 6.73931 20.681C6.7195 20.621 6.68186 20.5684 6.63141 20.5304L6.42649 20.3809C6.53567 20.2129 6.64653 20.0315 6.76243 19.8551C7.37551 18.8994 8.02555 17.9655 8.71086 17.0635L9.22149 18.6441C9.24136 18.7055 9.28018 18.7591 9.33239 18.7971C9.38459 18.8351 9.44749 18.8556 9.51207 18.8557H11.4219C11.4848 18.8591 11.5452 18.8819 11.5948 18.9208C11.6444 18.9597 11.6809 19.0129 11.6992 19.0732C11.7176 19.1336 11.7169 19.1981 11.6973 19.258C11.6778 19.318 11.6402 19.3704 11.5898 19.4083Z" fill="#DBDBDB"/>
<path d="M11.5901 33.7503L11.3533 33.9183L10.0499 34.8673C9.99806 34.9042 9.95937 34.9567 9.93943 35.0171C9.91949 35.0775 9.91935 35.1427 9.93901 35.2032L10.5269 37.0122C10.545 37.0732 10.5436 37.1383 10.5229 37.1985C10.5022 37.2587 10.4632 37.3109 10.4115 37.3478C10.3597 37.3848 10.2977 37.4047 10.2341 37.4048C10.1705 37.4048 10.1084 37.3851 10.0566 37.3482L8.518 36.2295C8.46566 36.1918 8.40279 36.1715 8.33827 36.1715C8.27376 36.1715 8.21088 36.1918 8.15855 36.2295L6.61827 37.3482C6.56644 37.3851 6.50439 37.4048 6.44077 37.4048C6.37716 37.4047 6.31515 37.3848 6.26339 37.3478C6.21162 37.3109 6.17268 37.2587 6.15199 37.1985C6.1313 37.1383 6.12989 37.0732 6.14796 37.0122L6.73753 35.2032C6.75641 35.1427 6.75587 35.0777 6.73599 35.0175C6.71611 34.9572 6.67789 34.9047 6.62667 34.8673L5.0864 33.7469C5.03434 33.7089 4.99562 33.6554 4.97578 33.5941C4.95594 33.5328 4.95599 33.4668 4.97593 33.4055C4.99586 33.3442 5.03466 33.2907 5.08678 33.2528C5.1389 33.2149 5.20167 33.1944 5.26612 33.1943H7.17425C7.221 33.1943 7.26712 33.1835 7.30905 33.1628C7.35098 33.1421 7.38761 33.1121 7.41612 33.0751C7.43694 33.0469 7.45337 33.0158 7.46483 32.9827L8.05273 31.1736C8.07275 31.1124 8.11164 31.059 8.16383 31.0211C8.21602 30.9833 8.27884 30.9629 8.34331 30.9629C8.40778 30.9629 8.47061 30.9833 8.5228 31.0211C8.57499 31.059 8.61387 31.1124 8.6339 31.1736L9.22179 32.9827C9.23326 33.0158 9.24968 33.0469 9.2705 33.0751C9.29901 33.1121 9.33564 33.1421 9.37757 33.1628C9.41951 33.1835 9.46562 33.1943 9.51237 33.1943H11.4222C11.4565 33.1944 11.4905 33.2001 11.523 33.2111C11.5756 33.2305 11.6219 33.264 11.6568 33.3079C11.6917 33.3518 11.7139 33.4045 11.7208 33.4602C11.7278 33.5159 11.7192 33.5724 11.6962 33.6236C11.6731 33.6748 11.6365 33.7186 11.5901 33.7503Z" fill="#DBDBDB"/>
<path d="M15.3742 13.2374C15.3549 13.2986 15.3549 13.3643 15.3742 13.4255L15.957 15.2345C15.9747 15.2953 15.9731 15.36 15.9524 15.4198C15.9317 15.4796 15.893 15.5315 15.8416 15.5683C15.7902 15.6052 15.7286 15.6252 15.6653 15.6256C15.6021 15.6259 15.5403 15.6067 15.4884 15.5705L13.9481 14.4501C13.8958 14.4124 13.8329 14.3921 13.7684 14.3921C13.7039 14.3921 13.641 14.4124 13.5887 14.4501L12.0484 15.5705C11.9966 15.6067 11.9347 15.6259 11.8715 15.6256C11.8082 15.6252 11.7466 15.6052 11.6952 15.5683C11.6438 15.5315 11.6051 15.4796 11.5844 15.4198C11.5637 15.36 11.5621 15.2953 11.5798 15.2345L12.1677 13.4255C12.187 13.3643 12.187 13.2986 12.1677 13.2374C12.1565 13.1859 12.1308 13.1387 12.0938 13.1013C12.8776 12.2951 13.6867 11.5207 14.5209 10.7783L14.6553 11.1932C14.6741 11.2565 14.713 11.3119 14.7659 11.3513C14.8189 11.3906 14.8832 11.4118 14.9492 11.4116H16.8523C16.9167 11.4123 16.9792 11.4332 17.0311 11.4713C17.083 11.5094 17.1215 11.5629 17.1414 11.6241C17.1612 11.6854 17.1614 11.7513 17.1418 11.8126C17.1221 11.8739 17.0838 11.9275 17.032 11.9659L15.4918 13.0829C15.4367 13.12 15.3953 13.1743 15.3742 13.2374Z" fill="#DBDBDB"/>
<path d="M6.75398 26.4645C6.74973 26.5064 6.7364 26.5469 6.71494 26.5832C6.69348 26.6194 6.66439 26.6506 6.62969 26.6745L5.08941 27.7948C5.03859 27.8326 5.00066 27.8851 4.98081 27.9453C4.96097 28.0054 4.96018 28.0702 4.97855 28.1308L5.56645 29.9415C5.58522 30.0024 5.58437 30.0677 5.56402 30.1281C5.54367 30.1885 5.50484 30.241 5.45303 30.2781C5.40123 30.3153 5.33906 30.3352 5.27531 30.335C5.21157 30.3349 5.14948 30.3148 5.09781 30.2774L3.55754 29.1604C3.50584 29.1212 3.44272 29.1 3.37781 29.1C3.31291 29.1 3.24979 29.1212 3.19809 29.1604L1.98535 30.0423C2.36944 28.8195 2.80616 27.6235 3.29551 26.4545C3.50379 25.9505 3.72215 25.4567 3.95227 24.9629L4.25629 25.9018C4.2761 25.9635 4.31485 26.0173 4.36703 26.0556C4.41921 26.0939 4.48215 26.1147 4.54688 26.1152H6.44996C6.49392 26.1149 6.53741 26.1242 6.57746 26.1423C6.61751 26.1605 6.65317 26.187 6.68203 26.2202C6.71089 26.2533 6.73225 26.2923 6.74467 26.3345C6.75709 26.3767 6.76026 26.421 6.75398 26.4645Z" fill="#DBDBDB"/>
<path d="M5.08951 42.2228C5.0383 42.2602 5.00007 42.3127 4.98019 42.3729C4.96031 42.4332 4.95977 42.4981 4.97865 42.5587L5.56654 44.3711C5.58532 44.432 5.58447 44.4973 5.56412 44.5577C5.54376 44.6181 5.50494 44.6706 5.45313 44.7077C5.40132 44.7448 5.33915 44.7648 5.27541 44.7646C5.21167 44.7645 5.14957 44.7444 5.09791 44.707L3.55764 43.59C3.50561 43.5516 3.44261 43.5308 3.37791 43.5308C3.31321 43.5308 3.25021 43.5516 3.19818 43.59L1.65959 44.7137C1.60796 44.7517 1.54563 44.7725 1.48152 44.7729C1.41741 44.7734 1.35479 44.7536 1.30261 44.7163C1.25044 44.679 1.21138 44.6262 1.19103 44.5654C1.17067 44.5046 1.17006 44.439 1.18928 44.3778L1.77717 42.5654C1.79657 42.5049 1.79629 42.4398 1.77637 42.3794C1.75645 42.3191 1.71792 42.2666 1.66631 42.2295L0.126035 41.1024C0.0937524 41.0795 0.066347 41.0503 0.0454102 41.0167C0.0454102 40.9008 0.0554883 40.7849 0.062207 40.6707C0.0901469 40.6326 0.126899 40.6019 0.169315 40.5811C0.211732 40.5604 0.25855 40.5502 0.305762 40.5515H2.20885C2.27358 40.551 2.33651 40.5302 2.38869 40.4919C2.44087 40.4536 2.47963 40.3998 2.49943 40.3381L2.70939 39.6931L3.08732 38.5291C3.10735 38.4678 3.14623 38.4144 3.19842 38.3766C3.25062 38.3387 3.31344 38.3184 3.37791 38.3184C3.44238 38.3184 3.5052 38.3387 3.5574 38.3766C3.60959 38.4144 3.64847 38.4678 3.6685 38.5291L4.04643 39.6931L4.25639 40.3381C4.27619 40.3998 4.31495 40.4536 4.36713 40.4919C4.41931 40.5302 4.48224 40.551 4.54697 40.5515H6.45006C6.5146 40.551 6.57763 40.571 6.63002 40.6087C6.68241 40.6464 6.72143 40.6998 6.74145 40.7612C6.76147 40.8226 6.76144 40.8887 6.74136 40.95C6.72129 41.0114 6.68221 41.0647 6.62979 41.1024L5.08951 42.2228Z" fill="#DBDBDB"/>
<path d="M10.3955 40.858C10.3957 40.7903 10.4175 40.7244 10.4577 40.6699C10.4577 40.7841 10.4459 40.9 10.4409 41.0159C10.4256 40.9927 10.4143 40.9672 10.4073 40.9404C10.4073 40.9252 10.4073 40.9118 10.3989 40.8984C10.3968 40.885 10.3957 40.8715 10.3955 40.858Z" fill="white"/>
<path d="M14.0643 24.104L14.6522 25.9147C14.6727 25.977 14.7127 26.031 14.7662 26.0688C14.8197 26.1066 14.884 26.1262 14.9495 26.1247H16.8526C16.9171 26.1248 16.9798 26.1453 17.0319 26.1832C17.0841 26.2211 17.1229 26.2745 17.1428 26.3358C17.1627 26.3971 17.1628 26.4632 17.1429 26.5245C17.1231 26.5858 17.0844 26.6393 17.0323 26.6773L15.4921 27.796C15.4408 27.8334 15.4026 27.8859 15.3827 27.9462C15.3629 28.0064 15.3623 28.0714 15.3812 28.1319L15.9573 29.9477C15.9761 30.0086 15.9752 30.0739 15.9549 30.1343C15.9345 30.1947 15.8957 30.2471 15.8439 30.2843C15.7921 30.3214 15.7299 30.3413 15.6662 30.3412C15.6024 30.3411 15.5404 30.3209 15.4887 30.2836L13.9484 29.1649C13.8961 29.1272 13.8332 29.1069 13.7687 29.1069C13.7042 29.1069 13.6413 29.1272 13.589 29.1649L12.0487 30.2836C11.997 30.3209 11.9349 30.3411 11.8712 30.3412C11.8074 30.3413 11.7453 30.3214 11.6935 30.2843C11.6417 30.2471 11.6028 30.1947 11.5825 30.1343C11.5621 30.0739 11.5613 30.0086 11.5801 29.9477L12.168 28.137C12.1868 28.0764 12.1863 28.0114 12.1664 27.9512C12.1465 27.891 12.1083 27.8384 12.0571 27.801L10.5168 26.6823C10.4648 26.6443 10.426 26.5909 10.4062 26.5295C10.3864 26.4682 10.3864 26.4022 10.4063 26.3409C10.4263 26.2796 10.4651 26.2262 10.5172 26.1882C10.5693 26.1503 10.6321 26.1298 10.6965 26.1297H12.598C12.6623 26.1298 12.7251 26.1095 12.7773 26.0718C12.8294 26.0341 12.8684 25.9809 12.8885 25.9198L13.4764 24.1091C13.4941 24.045 13.5322 23.9885 13.5849 23.948C13.6376 23.9075 13.702 23.8853 13.7685 23.8848C13.8349 23.8842 13.8997 23.9053 13.9531 23.9449C14.0065 23.9844 14.0455 24.0403 14.0643 24.104Z" fill="white"/>
<path d="M14.3481 24.9738C14.118 25.466 13.8996 25.9598 13.6914 26.4637C13.202 27.6339 12.7653 28.8292 12.3812 30.0498L12.0537 30.285C12.002 30.3223 11.9399 30.3425 11.8762 30.3426C11.8124 30.3427 11.7503 30.3228 11.6984 30.2857C11.6466 30.2485 11.6078 30.1961 11.5875 30.1356C11.5671 30.0752 11.5663 30.01 11.585 29.949L12.1729 28.1383C12.1918 28.0778 12.1913 28.0128 12.1714 27.9526C12.1515 27.8923 12.1133 27.8398 12.0621 27.8024L10.5218 26.6821C10.4871 26.6582 10.458 26.627 10.4365 26.5907C10.4151 26.5545 10.4018 26.514 10.3975 26.4721C10.3933 26.4296 10.398 26.3867 10.4113 26.3462C10.4247 26.3057 10.4464 26.2684 10.475 26.2367C10.5037 26.2051 10.5386 26.1798 10.5776 26.1625C10.6166 26.1451 10.6588 26.1362 10.7015 26.1362H12.5979C12.6626 26.1357 12.7256 26.1149 12.7777 26.0766C12.8299 26.0383 12.8687 25.9845 12.8885 25.9228L13.4764 24.1121C13.4964 24.0508 13.5353 23.9975 13.5875 23.9596C13.6397 23.9218 13.7025 23.9014 13.7669 23.9014C13.8314 23.9014 13.8942 23.9218 13.9464 23.9596C13.9986 23.9975 14.0375 24.0508 14.0575 24.1121L14.3481 24.9738Z" fill="#DBDBDB"/>
<path d="M19.4943 16.8328L20.0821 18.6435C20.1023 18.7047 20.1413 18.7579 20.1934 18.7956C20.2456 18.8333 20.3084 18.8535 20.3727 18.8535H22.2758C22.3403 18.8536 22.403 18.8741 22.4552 18.912C22.5073 18.9499 22.5461 19.0034 22.566 19.0646C22.586 19.1259 22.586 19.192 22.5662 19.2533C22.5463 19.3146 22.5076 19.3681 22.4555 19.4061L20.9153 20.5248C20.8644 20.5625 20.8265 20.6151 20.8067 20.6752C20.7868 20.7353 20.786 20.8001 20.8044 20.8607L21.394 22.6748C21.4121 22.7358 21.4106 22.8009 21.39 22.861C21.3693 22.9212 21.3303 22.9734 21.2786 23.0104C21.2268 23.0473 21.1648 23.0673 21.1012 23.0673C21.0376 23.0674 20.9755 23.0476 20.9237 23.0107L19.3834 21.892C19.3313 21.8545 19.2687 21.8342 19.2045 21.8342C19.1403 21.8342 19.0777 21.8545 19.0256 21.892L17.4854 23.0107C17.4335 23.0476 17.3715 23.0674 17.3079 23.0673C17.2442 23.0673 17.1822 23.0473 17.1305 23.0104C17.0787 22.9734 17.0398 22.9212 17.0191 22.861C16.9984 22.8009 16.997 22.7358 17.015 22.6748L17.6029 20.8641C17.6221 20.8035 17.6217 20.7385 17.6018 20.6782C17.5819 20.6179 17.5435 20.5654 17.4921 20.5281L15.9568 19.4061C15.9055 19.3687 15.8671 19.3163 15.8469 19.2561C15.8267 19.1958 15.8258 19.1308 15.8443 19.0701C15.8627 19.0093 15.8997 18.9558 15.95 18.917C16.0002 18.8782 16.0613 18.856 16.1248 18.8535H18.0279C18.0935 18.8553 18.1578 18.8358 18.2114 18.7979C18.265 18.7601 18.3049 18.7059 18.3252 18.6435L18.9131 16.8328C18.9331 16.7715 18.972 16.7182 19.0242 16.6803C19.0764 16.6425 19.1392 16.6221 19.2037 16.6221C19.2681 16.6221 19.331 16.6425 19.3832 16.6803C19.4353 16.7182 19.4742 16.7715 19.4943 16.8328Z" fill="white"/>
<path d="M16.125 18.8555H17.8047C17.5796 19.1914 17.3613 19.5173 17.1463 19.8515L16.9615 20.1455L16.555 19.8515L15.9571 19.4098C15.906 19.3721 15.8679 19.3195 15.8479 19.2593C15.8279 19.199 15.8271 19.1341 15.8455 19.0734C15.8639 19.0126 15.9006 18.9591 15.9507 18.9201C16.0007 18.8811 16.0616 18.8585 16.125 18.8555Z" fill="#DBDBDB"/>
<path d="M24.9269 9.39268L25.5148 11.2034C25.5347 11.2647 25.5736 11.318 25.6258 11.3558C25.678 11.3935 25.7409 11.4137 25.8053 11.4133H27.7151C27.7786 11.4158 27.8397 11.438 27.89 11.4768C27.9403 11.5156 27.9772 11.5691 27.9957 11.6299C28.0142 11.6907 28.0132 11.7557 27.9931 11.8159C27.9729 11.8761 27.9345 11.9286 27.8831 11.966L26.3428 13.0846C26.2914 13.1219 26.2531 13.1744 26.2332 13.2347C26.2133 13.295 26.2128 13.36 26.232 13.4206L26.8199 15.2313C26.8379 15.2923 26.8365 15.3574 26.8158 15.4175C26.7952 15.4777 26.7562 15.5299 26.7044 15.5669C26.6527 15.6038 26.5907 15.6237 26.5271 15.6238C26.4634 15.6239 26.4014 15.6041 26.3496 15.5672L24.811 14.4485C24.7586 14.4108 24.6958 14.3905 24.6312 14.3905C24.5667 14.3905 24.5039 14.4108 24.4515 14.4485L22.9112 15.5672C22.8594 15.6041 22.7974 15.6239 22.7337 15.6238C22.6701 15.6237 22.6081 15.6038 22.5564 15.5669C22.5046 15.5299 22.4656 15.4777 22.445 15.4175C22.4243 15.3574 22.4229 15.2923 22.4409 15.2313L23.0305 13.4206C23.0489 13.36 23.0481 13.2952 23.0282 13.2351C23.0084 13.1749 22.9705 13.1224 22.9196 13.0846L21.3794 11.966C21.3273 11.928 21.2886 11.8745 21.2687 11.8131C21.2489 11.7518 21.249 11.6858 21.2689 11.6245C21.2888 11.5632 21.3276 11.5098 21.3797 11.4719C21.4319 11.4339 21.4946 11.4135 21.5591 11.4133H23.4622C23.5266 11.4134 23.5893 11.3931 23.6415 11.3554C23.6937 11.3177 23.7326 11.2645 23.7528 11.2034L24.3407 9.39268C24.3594 9.32947 24.398 9.27402 24.4509 9.23458C24.5037 9.19514 24.5678 9.17383 24.6338 9.17383C24.6997 9.17383 24.7638 9.19514 24.8167 9.23458C24.8695 9.27402 24.9081 9.32947 24.9269 9.39268Z" fill="white"/>
<path d="M25.2774 10.4701C25.1548 10.5725 25.0339 10.6783 24.9129 10.7858C24.1436 11.4661 23.4012 12.1766 22.6823 12.909L21.3839 11.9667C21.3311 11.9289 21.2917 11.8753 21.2714 11.8137C21.2511 11.752 21.251 11.6855 21.271 11.6238C21.291 11.562 21.3302 11.5083 21.3828 11.4703C21.4354 11.4323 21.4987 11.412 21.5636 11.4124H23.4667C23.5312 11.412 23.594 11.3914 23.6462 11.3534C23.6983 11.3155 23.7372 11.262 23.7573 11.2007L24.3452 9.39338C24.3652 9.33209 24.4041 9.27871 24.4563 9.24085C24.5085 9.203 24.5713 9.18262 24.6358 9.18262C24.7002 9.18262 24.7631 9.203 24.8153 9.24085C24.8674 9.27871 24.9063 9.33209 24.9264 9.39338L25.2774 10.4701Z" fill="#DBDBDB"/>
<path d="M30.3573 2.75539L30.9452 4.56441C30.9654 4.62697 31.0052 4.68134 31.0588 4.71946C31.1123 4.75759 31.1768 4.77743 31.2425 4.77605H33.1456C33.21 4.77616 33.2728 4.79664 33.3249 4.83456C33.377 4.87249 33.4158 4.92591 33.4358 4.98721C33.4557 5.0485 33.4558 5.11453 33.4359 5.17586C33.4161 5.23718 33.3774 5.29067 33.3253 5.32867L31.785 6.44734C31.7338 6.48477 31.6956 6.53729 31.6757 6.59753C31.6558 6.65777 31.6553 6.72272 31.6742 6.78328L32.2503 8.59902C32.2691 8.65994 32.2682 8.72522 32.2479 8.78562C32.2275 8.84603 32.1887 8.89852 32.1369 8.93565C32.0851 8.97279 32.0229 8.99271 31.9592 8.99258C31.8954 8.99246 31.8333 8.9723 31.7817 8.93496L30.2414 7.81629C30.189 7.77857 30.1262 7.75827 30.0617 7.75827C29.9971 7.75827 29.9343 7.77857 29.8819 7.81629L28.3417 8.93496C28.29 8.9723 28.2279 8.99246 28.1642 8.99258C28.1004 8.99271 28.0382 8.97279 27.9864 8.93565C27.9346 8.89852 27.8958 8.84603 27.8755 8.78562C27.8551 8.72522 27.8543 8.65994 27.873 8.59902L28.4609 6.78832C28.4798 6.72776 28.4793 6.66281 28.4594 6.60257C28.4395 6.54233 28.4013 6.48981 28.3501 6.45238L26.8098 5.33371C26.7577 5.29571 26.719 5.24222 26.6992 5.1809C26.6793 5.11957 26.6794 5.05354 26.6993 4.99225C26.7192 4.93095 26.758 4.87753 26.8102 4.8396C26.8623 4.80168 26.9251 4.7812 26.9895 4.78109H28.8909C28.9555 4.78103 29.0184 4.76052 29.0706 4.7225C29.1228 4.68448 29.1616 4.6309 29.1815 4.56945L29.7694 2.76043C29.7871 2.69639 29.8252 2.63985 29.8779 2.59938C29.9306 2.55891 29.995 2.53671 30.0614 2.53614C30.1279 2.53557 30.1927 2.55667 30.2461 2.59623C30.2995 2.63579 30.3385 2.69166 30.3573 2.75539Z" fill="white"/>
<path d="M33.4004 4.92529C33.256 4.9992 33.1132 5.07814 32.9704 5.15373C32.1149 5.6162 31.2784 6.10611 30.461 6.62346C29.6077 7.15872 28.7762 7.72533 27.9666 8.3233L28.4705 6.78974C28.4859 6.7348 28.4859 6.67671 28.4705 6.62178C28.454 6.55023 28.4123 6.48703 28.353 6.44373L26.8127 5.32506C26.7603 5.2874 26.7212 5.23404 26.7011 5.17269C26.681 5.11135 26.681 5.04521 26.701 4.98385C26.721 4.92248 26.7601 4.86908 26.8125 4.83138C26.8648 4.79367 26.9279 4.77362 26.9924 4.77412H28.8905C28.9549 4.77443 29.0178 4.75427 29.07 4.71653C29.1222 4.67879 29.1611 4.62543 29.1811 4.56416L29.7689 2.75178C29.789 2.69049 29.8279 2.63711 29.88 2.59925C29.9322 2.5614 29.9951 2.54102 30.0595 2.54102C30.124 2.54102 30.1868 2.5614 30.239 2.59925C30.2912 2.63711 30.3301 2.69049 30.3501 2.75178L30.938 4.56416C30.9583 4.628 30.9991 4.68336 31.0541 4.72163C31.109 4.7599 31.1751 4.77894 31.242 4.7758H33.1451C33.197 4.77626 33.2479 4.7903 33.2927 4.81653C33.3375 4.84276 33.3746 4.88025 33.4004 4.92529Z" fill="#DBDBDB"/>
<path d="M80.8454 45.7191C82.3556 45.7191 83.5799 44.4948 83.5799 42.9845C83.5799 41.4743 82.3556 40.25 80.8454 40.25C79.3351 40.25 78.1108 41.4743 78.1108 42.9845C78.1108 44.4948 79.3351 45.7191 80.8454 45.7191Z" fill="#E54141"/>
<path d="M75.1496 44.9212C76.2192 44.9212 77.0862 44.0541 77.0862 42.9845C77.0862 41.9149 76.2192 41.0479 75.1496 41.0479C74.08 41.0479 73.2129 41.9149 73.2129 42.9845C73.2129 44.0541 74.08 44.9212 75.1496 44.9212Z" fill="#E54141"/>
</g>
<defs>
<clipPath id="clip0_29_377">
<rect width="86" height="86" fill="white"/>
</clipPath>
</defs>
</svg>
