<svg width="68" height="68" viewBox="0 0 68 68" fill="none" xmlns="http://www.w3.org/2000/svg">
<rect width="68" height="68" rx="34" fill="#343434"/>
<path d="M41.6554 24.0176H20.6642C19.662 24.0176 18.8496 24.83 18.8496 25.8322V48.95C18.8496 49.9522 19.662 50.7646 20.6642 50.7646H41.6554C42.6575 50.7646 43.4699 49.9522 43.4699 48.95V25.8322C43.4699 24.83 42.6575 24.0176 41.6554 24.0176Z" stroke="white" stroke-width="2.5"/>
<path d="M24.8159 21.484V20.6566C24.7863 19.9843 25.0239 19.3276 25.4767 18.8299C25.9296 18.3322 26.5609 18.0339 27.233 18H46.7289C47.401 18.0339 48.0323 18.3322 48.4852 18.8299C48.938 19.3276 49.1756 19.9843 49.1459 20.6566V42.0905C49.1756 42.7627 48.938 43.4194 48.4852 43.9171C48.0323 44.4148 47.401 44.7132 46.7289 44.747H45.8942" stroke="white" stroke-width="2.5"/>
</svg>
