<svg width="68" height="68" viewBox="0 0 68 68" fill="none" xmlns="http://www.w3.org/2000/svg">
<path d="M0 34C0 15.2223 15.2223 0 34 0V0C52.7777 0 68 15.2223 68 34V34C68 52.7777 52.7777 68 34 68V68C15.2223 68 0 52.7777 0 34V34Z" fill="url(#paint0_radial_472_1128)"/>
<path fill-rule="evenodd" clip-rule="evenodd" d="M11.293 33.3167C11.293 20.6633 21.2102 11.291 33.9999 11.291C46.7896 11.291 56.7068 20.669 56.7068 33.3224C56.7068 45.9759 46.7896 55.3482 33.9999 55.3482C31.7008 55.3482 29.4983 55.0416 27.4263 54.4739C27.0232 54.3661 26.5918 54.3945 26.2114 54.5648L21.7041 56.5516C20.5233 57.0739 19.195 56.2337 19.1552 54.9451L19.0304 50.9033C19.019 50.4037 18.7919 49.9382 18.4229 49.609C14.0064 45.658 11.293 39.9358 11.293 33.3167ZM27.0341 29.1784L20.364 39.7599C19.7225 40.776 20.9714 41.917 21.9251 41.1904L29.0891 35.7521C29.5716 35.3831 30.2415 35.3831 30.7297 35.7464L36.0374 39.7258C37.6326 40.9179 39.9033 40.5035 40.9648 38.8175L47.6407 28.2418C48.2764 27.2256 47.0276 26.0789 46.0739 26.8055L38.9099 32.2439C38.4273 32.6128 37.7575 32.6128 37.2693 32.2495L31.9615 28.2701C30.3664 27.078 28.0957 27.4924 27.0341 29.1784Z" fill="white"/>
<defs>
<radialGradient id="paint0_radial_472_1128" cx="0" cy="0" r="1" gradientUnits="userSpaceOnUse" gradientTransform="translate(13.09 67.635) scale(74.0928 74.0862)">
<stop stop-color="#0099FF"/>
<stop offset="0.6098" stop-color="#A033FF"/>
<stop offset="0.9348" stop-color="#FF5280"/>
<stop offset="1" stop-color="#FF7061"/>
</radialGradient>
</defs>
</svg>
