<svg width="68" height="68" viewBox="0 0 68 68" fill="none" xmlns="http://www.w3.org/2000/svg">
<path d="M0 34C0 15.2223 15.2223 0 34 0V0C52.7777 0 68 15.2223 68 34V34C68 52.7777 52.7777 68 34 68V68C15.2223 68 0 52.7777 0 34V34Z" fill="#1877F2"/>
<path d="M47.2348 43.8281L48.7422 34H39.3125V27.625C39.3125 24.9355 40.6273 22.3125 44.8508 22.3125H49.1406V13.9453C49.1406 13.9453 45.2492 13.2812 41.5305 13.2812C33.7609 13.2812 28.6875 17.9895 28.6875 26.5094V34H20.0547V43.8281H28.6875V67.5883C30.4207 67.8605 32.1938 68 34 68C35.8062 68 37.5793 67.8605 39.3125 67.5883V43.8281H47.2348Z" fill="white"/>
</svg>
