<svg width="68" height="68" viewBox="0 0 68 68" fill="none" xmlns="http://www.w3.org/2000/svg">
<rect width="68" height="68" rx="34" fill="url(#paint0_radial_506_82)"/>
<path d="M34.0004 18.1906C39.1154 18.1906 39.8129 18.1906 41.9053 18.1906C43.7653 18.1906 44.6953 18.6556 45.3928 18.8881C46.3228 19.3531 47.0203 19.5856 47.7178 20.2831C48.4153 20.9806 48.8803 21.6781 49.1128 22.608C49.3453 23.3055 49.5778 24.2355 49.8103 26.0955C49.8103 28.188 49.8103 28.653 49.8103 34.0004C49.8103 39.3479 49.8103 39.8129 49.8103 41.9053C49.8103 43.7653 49.3453 44.6953 49.1128 45.3928C48.6478 46.3228 48.4153 47.0203 47.7178 47.7178C47.0203 48.4153 46.3228 48.8803 45.3928 49.1128C44.6953 49.3453 43.7653 49.5778 41.9053 49.8103C39.8129 49.8103 39.3479 49.8103 34.0004 49.8103C28.653 49.8103 28.188 49.8103 26.0955 49.8103C24.2355 49.8103 23.3055 49.3453 22.608 49.1128C21.6781 48.6478 20.9806 48.4153 20.2831 47.7178C19.5856 47.0203 19.1206 46.3228 18.8881 45.3928C18.6556 44.6953 18.4231 43.7653 18.1906 41.9053C18.1906 39.8129 18.1906 39.3479 18.1906 34.0004C18.1906 28.653 18.1906 28.188 18.1906 26.0955C18.1906 24.2355 18.6556 23.3055 18.8881 22.608C19.3531 21.6781 19.5856 20.9806 20.2831 20.2831C20.9806 19.5856 21.6781 19.1206 22.608 18.8881C23.3055 18.6556 24.2355 18.4231 26.0955 18.1906C28.188 18.1906 28.8855 18.1906 34.0004 18.1906ZM34.0004 14.7031C28.653 14.7031 28.188 14.7031 26.0955 14.7031C24.003 14.7031 22.608 15.1681 21.4456 15.6331C20.2831 16.0981 19.1206 16.7956 17.9581 17.9581C16.7956 19.1206 16.3306 20.0506 15.6331 21.4456C15.1681 22.608 14.9356 24.003 14.7031 26.0955C14.7031 28.188 14.7031 28.8855 14.7031 34.0004C14.7031 39.3479 14.7031 39.8129 14.7031 41.9053C14.7031 43.9978 15.1681 45.3928 15.6331 46.5553C16.0981 47.7178 16.7956 48.8803 17.9581 50.0428C19.1206 51.2052 20.0506 51.6702 21.4456 52.3677C22.608 52.8327 24.003 53.0652 26.0955 53.2977C28.188 53.2977 28.8855 53.2977 34.0004 53.2977C39.1154 53.2977 39.8129 53.2977 41.9053 53.2977C43.9978 53.2977 45.3928 52.8327 46.5553 52.3677C47.7178 51.9027 48.8803 51.2052 50.0428 50.0428C51.2052 48.8803 51.6702 47.9503 52.3677 46.5553C52.8327 45.3928 53.0652 43.9978 53.2977 41.9053C53.2977 39.8129 53.2977 39.1154 53.2977 34.0004C53.2977 28.8855 53.2977 28.188 53.2977 26.0955C53.2977 24.003 52.8327 22.608 52.3677 21.4456C51.9027 20.2831 51.2052 19.1206 50.0428 17.9581C48.8803 16.7956 47.9503 16.3306 46.5553 15.6331C45.3928 15.1681 43.9978 14.9356 41.9053 14.7031C39.8129 14.7031 39.3479 14.7031 34.0004 14.7031Z" fill="white"/>
<path d="M34.0004 24.003C28.4205 24.003 24.003 28.4205 24.003 34.0004C24.003 39.5804 28.4205 43.9978 34.0004 43.9978C39.5804 43.9978 43.9978 39.5804 43.9978 34.0004C43.9978 28.4205 39.5804 24.003 34.0004 24.003ZM34.0004 40.5104C30.513 40.5104 27.4905 37.7204 27.4905 34.0004C27.4905 30.513 30.2805 27.4905 34.0004 27.4905C37.4879 27.4905 40.5104 30.2805 40.5104 34.0004C40.5104 37.4879 37.4879 40.5104 34.0004 40.5104Z" fill="white"/>
<path d="M44.2303 26.0955C45.5144 26.0955 46.5553 25.0546 46.5553 23.7705C46.5553 22.4865 45.5144 21.4456 44.2303 21.4456C42.9463 21.4456 41.9053 22.4865 41.9053 23.7705C41.9053 25.0546 42.9463 26.0955 44.2303 26.0955Z" fill="white"/>
<defs>
<radialGradient id="paint0_radial_506_82" cx="0" cy="0" r="1" gradientUnits="userSpaceOnUse" gradientTransform="translate(69.368 1.38125) scale(157.032)">
<stop stop-color="#F9ED32"/>
<stop offset="0.36" stop-color="#EE2A7B"/>
<stop offset="0.44" stop-color="#D22A8A"/>
<stop offset="0.6" stop-color="#8B2AB2"/>
<stop offset="0.83" stop-color="#1B2AF0"/>
<stop offset="0.88" stop-color="#002AFF"/>
</radialGradient>
</defs>
</svg>
