<svg width="70" height="70" viewBox="0 0 70 70" fill="none" xmlns="http://www.w3.org/2000/svg">
<path d="M35 70C54.33 70 70 54.33 70 35C70 15.67 54.33 0 35 0C15.67 0 0 15.67 0 35C0 54.33 15.67 70 35 70Z" fill="#FF4500"/>
<path d="M58.3338 34.9997C58.3338 32.1751 56.0414 29.8827 53.2169 29.8827C51.825 29.8827 50.597 30.4149 49.6964 31.3155C46.2169 28.8184 41.3865 27.181 36.0648 26.9763L38.3981 16.0465L45.9712 17.643C46.0531 19.5669 47.6496 21.1225 49.6145 21.1225C51.6204 21.1225 53.2578 19.4851 53.2578 17.4792C53.2578 15.4734 51.6204 13.8359 49.6145 13.8359C48.1818 13.8359 46.9537 14.6547 46.3806 15.8827L37.9069 14.0816C37.6613 14.0406 37.4157 14.0816 37.211 14.2044C37.0063 14.3272 36.8835 14.5318 36.8017 14.7775L34.2227 26.9763C28.7783 27.14 23.9069 28.7365 20.3864 31.3155C19.4859 30.4558 18.2169 29.8827 16.866 29.8827C14.0414 29.8827 11.749 32.1751 11.749 34.9997C11.749 37.0874 12.9771 38.8476 14.7783 39.6663C14.6964 40.1576 14.6555 40.6897 14.6555 41.2219C14.6555 49.0816 23.7841 55.4266 35.0824 55.4266C46.3806 55.4266 55.5093 49.0816 55.5093 41.2219C55.5093 40.6897 55.4683 40.1985 55.3864 39.7073C57.0648 38.8886 58.3338 37.0874 58.3338 34.9997ZM23.3338 38.643C23.3338 36.6371 24.9712 34.9997 26.9771 34.9997C28.9829 34.9997 30.6204 36.6371 30.6204 38.643C30.6204 40.6488 28.9829 42.2862 26.9771 42.2862C24.9712 42.2862 23.3338 40.6488 23.3338 38.643ZM43.6789 48.2628C41.1818 50.7599 36.4332 50.9237 35.0414 50.9237C33.6496 50.9237 28.8601 50.719 26.404 48.2628C26.0356 47.8944 26.0356 47.2804 26.404 46.912C26.7724 46.5435 27.3864 46.5435 27.7549 46.912C29.3104 48.4675 32.6672 49.0406 35.0824 49.0406C37.4976 49.0406 40.8134 48.4675 42.4098 46.912C42.7783 46.5435 43.3923 46.5435 43.7607 46.912C44.0473 47.3213 44.0473 47.8944 43.6789 48.2628ZM43.0239 42.2862C41.018 42.2862 39.3806 40.6488 39.3806 38.643C39.3806 36.6371 41.018 34.9997 43.0239 34.9997C45.0297 34.9997 46.6671 36.6371 46.6671 38.643C46.6671 40.6488 45.0297 42.2862 43.0239 42.2862Z" fill="white"/>
</svg>
