<svg width="70" height="70" viewBox="0 0 70 70" fill="none" xmlns="http://www.w3.org/2000/svg">
<path d="M0 35C0 15.67 15.67 0 35 0V0C54.33 0 70 15.67 70 35V35C70 54.33 54.33 70 35 70V70C15.67 70 0 54.33 0 35V35Z" fill="#1D9BF0"/>
<path d="M28.5948 53.4621C44.1173 53.4621 52.6048 40.5996 52.6048 29.4521C52.6048 29.0846 52.6048 28.7171 52.5873 28.3671C54.2323 27.1771 55.6673 25.6896 56.8048 23.9921C55.2998 24.6571 53.6723 25.1121 51.9573 25.3221C53.7073 24.2721 55.0373 22.6271 55.6673 20.6496C54.0398 21.6121 52.2373 22.3121 50.3123 22.6971C48.7723 21.0521 46.5848 20.0371 44.1523 20.0371C39.4973 20.0371 35.7173 23.8171 35.7173 28.4721C35.7173 29.1371 35.7873 29.7846 35.9448 30.3971C28.9273 30.0471 22.7148 26.6871 18.5498 21.5771C17.8323 22.8196 17.4123 24.2721 17.4123 25.8121C17.4123 28.7346 18.8998 31.3246 21.1748 32.8296C19.7923 32.7946 18.4973 32.4096 17.3598 31.7796C17.3598 31.8146 17.3598 31.8496 17.3598 31.8846C17.3598 35.9796 20.2648 39.3746 24.1323 40.1621C23.4323 40.3546 22.6798 40.4596 21.9098 40.4596C21.3673 40.4596 20.8423 40.4071 20.3173 40.3021C21.3848 43.6621 24.4998 46.0946 28.1923 46.1646C25.3048 48.4221 21.6648 49.7696 17.7098 49.7696C17.0273 49.7696 16.3623 49.7346 15.6973 49.6471C19.3898 52.0621 23.8348 53.4621 28.5948 53.4621Z" fill="white"/>
</svg>
